<svg version="1.1" xmlns="http://www.w3.org/2000/svg" xmlns:xlink="http://www.w3.org/1999/xlink" width="654" height="2495" viewBox="0 0 654 2495"><defs/><g transform="matrix(1,0,0,1,0,0)"><g><g><g><path fill="none" stroke="#d3d3d3" paint-order="fill stroke markers" d=" M 0 0 L 1200 0" stroke-miterlimit="10" stroke-opacity="0.8" stroke-dasharray="5"/></g><g><path fill="none" stroke="#d3d3d3" paint-order="fill stroke markers" d=" M 0 0 L 0 800" stroke-miterlimit="10" stroke-opacity="0.8" stroke-dasharray="5"/></g></g><g id="_039D93B5-1CC0-4FEC-9FE8-7306DB03AEFA" transform="matrix(1,0,0,1,302,50)"><g><path fill="#fff" stroke="#ccc" id="_039D93B5-1CC0-4FEC-9FE8-7306DB03AEFA?shapeType=BACKGROUND" paint-order="fill stroke markers" d=" M 25 0 L 25 0 L 25 0 A 25 25 0 0 1 50 25 L 50 25 L 50 25 A 25 25 0 0 1 25 50 L 25 50 L 25 50 A 25 25 0 0 1 0 25.000000000000004 L 0 25 L 0 25.000000000000004 A 25 25 0 0 1 25 0 Z" stroke-miterlimit="10" stroke-width="2" stroke-dasharray=""/></g><g transform="matrix(1,0,0,1,7,29)"><text fill="#929292" stroke="none" font-family="Open Sans" font-size="12pt" font-style="normal" font-weight="normal" text-decoration="normal" x="0" y="0" text-anchor="start" dominant-baseline="alphabetic">Start</text></g></g><g id="_E740473E-9DAB-4877-BF72-D4E3E18440EE" transform="matrix(1,0,0,1,202,229)"><g><path fill="#fff" stroke="#ccc" id="_E740473E-9DAB-4877-BF72-D4E3E18440EE?shapeType=BACKGROUND" paint-order="fill stroke markers" d=" M 0 5 L 0 5 L 0 5.000000000000001 A 5 5 0 0 1 5 0 L 245 0 L 245 0 L 245 0 A 5 5 0 0 1 250 5 L 250 85 L 250 85 L 250 85 A 5 5 0 0 1 245 90 L 5 90 L 5 90 L 5 90 A 5 5 0 0 1 0 85 Z" stroke-miterlimit="10" stroke-width="2" stroke-dasharray=""/></g><g transform="matrix(1,0,0,1,45,46)"><g id="_E740473E-9DAB-4877-BF72-D4E3E18440EE"><path fill="#0066CC" stroke="#d5d5d5" id="_E740473E-9DAB-4877-BF72-D4E3E18440EE" paint-order="fill stroke markers" d=" M 0 -25 L 0 -25 L 1.5308084989341915e-15 -25 A 25 25 0 0 1 25 0 L 25 0 L 25 0 A 25 25 0 0 1 1.5308084989341915e-15 25 L 0 25 L 1.5308084989341915e-15 25 A 25 25 0 0 1 -25 3.061616997868383e-15 L -25 0 L -25 3.061616997868383e-15 A 25 25 0 0 1 1.5308084989341915e-15 -25 Z" stroke-miterlimit="10" stroke-dasharray=""/></g><g><g transform="matrix(0.35,0,0,0.35,-11,-11)"><path fill="#fff" stroke="#fff" paint-order="fill stroke markers" d=" M 0 0 M 61.99 20.83 C 62.4 21.9 62.050000000000004 23.119999999999997 61.2 23.9 L 55.790000000000006 28.83 C 55.93000000000001 29.869999999999997 56.00000000000001 30.93 56.00000000000001 32 C 56.00000000000001 33.07 55.92000000000001 34.14 55.790000000000006 35.17 L 61.2 40.09 C 62.050000000000004 40.88 62.400000000000006 42.09 61.99 43.17 C 61.440000000000005 44.660000000000004 60.78 46.09 60.03 47.46 L 59.44 48.47 C 58.61 49.85 57.69 51.15 56.68 52.379999999999995 C 55.93 53.269999999999996 54.72 53.58 53.62 53.23 L 46.66 51.01 C 44.98 52.3 43.019999999999996 53.37 41.16 54.199999999999996 L 39.599999999999994 61.339999999999996 C 39.349999999999994 62.459999999999994 38.48 63.26 37.31999999999999 63.559999999999995 C 35.599999999999994 63.849999999999994 33.81999999999999 63.99999999999999 31.89999999999999 63.99999999999999 C 30.199999999999992 63.99999999999999 28.41999999999999 63.849999999999994 26.699999999999992 63.559999999999995 C 25.549999999999994 63.26 24.679999999999993 62.459999999999994 24.429999999999993 61.339999999999996 L 22.869999999999994 54.199999999999996 C 20.889999999999993 53.37 19.039999999999992 52.3 17.369999999999994 51.01 L 10.409999999999993 53.23 C 9.309999999999993 53.58 8.089999999999993 53.269999999999996 7.3499999999999925 52.379999999999995 C 6.339999999999993 51.13999999999999 5.409999999999993 49.839999999999996 4.589999999999993 48.47 L 3.999999999999993 47.46 C 3.239999999999993 46.1 2.579999999999993 44.660000000000004 2.029999999999993 43.17 C 1.6299999999999932 42.09 1.969999999999993 40.88 2.819999999999993 40.09 L 8.229999999999993 35.17 C 8.089999999999993 34.13 8.019999999999992 33.07 8.019999999999992 32 C 8.019999999999992 30.93 8.089999999999993 29.86 8.229999999999993 28.83 L 2.819999999999993 23.9 C 1.9599999999999933 23.11 1.6199999999999932 21.91 2.029999999999993 20.83 C 2.579999999999993 19.34 3.249999999999993 17.9 3.999999999999993 16.54 L 4.579999999999993 15.53 C 5.409999999999993 14.149999999999999 6.329999999999993 12.86 7.3499999999999925 11.62 C 8.089999999999993 10.729999999999999 9.309999999999992 10.42 10.409999999999993 10.77 L 17.369999999999994 12.99 C 19.039999999999992 11.7 20.889999999999993 10.620000000000001 22.869999999999994 9.81 L 24.429999999999993 2.670000000000001 C 24.679999999999993 1.540000000000001 25.549999999999994 0.6300000000000008 26.699999999999992 0.44000000000000083 C 28.429999999999993 0.15000000000000085 30.199999999999992 8.326672684688674e-16 32.00999999999999 8.326672684688674e-16 C 33.81999999999999 8.326672684688674e-16 35.599999999999994 0.15000000000000083 37.31999999999999 0.44000000000000083 C 38.46999999999999 0.6300000000000008 39.349999999999994 1.530000000000001 39.599999999999994 2.670000000000001 L 41.16 9.81 C 43.019999999999996 10.63 44.98 11.700000000000001 46.66 12.99 L 53.62 10.77 C 54.72 10.42 55.93 10.73 56.68 11.62 C 57.69 12.85 58.62 14.149999999999999 59.44 15.53 L 60.03 16.54 C 60.78 17.9 61.44 19.34 61.99 20.83 L 61.99 20.83 Z M 0 0 M 32 42 C 37.53 42 42 37.53 42 31.89 C 42 26.25 37.53 21.89 32 21.89 C 26.47 21.89 22 26.48 22 31.89 C 22 37.3 26.48 42 32 42 Z" stroke-miterlimit="10" stroke-width="2" stroke-dasharray=""/></g></g></g><g transform="matrix(1,0,0,1,224,6)"><g><path fill="white" stroke="white" paint-order="fill stroke markers" d=" M 9 0 L 11 0 L 10.999999999999998 0 A 9 9 0 0 1 20 9 L 20 11 L 20 11 A 9 9 0 0 1 11 20 L 9 20 L 9 20 A 9 9 0 0 1 0 11.000000000000002 L 0 9 L 0 9.000000000000002 A 9 9 0 0 1 8.999999999999998 0 Z" fill-opacity="0.001" stroke-miterlimit="10" stroke-opacity="0.001" stroke-dasharray=""/></g><g transform="matrix(2,0,0,2,0,0)"><path fill="#CCC" stroke="none" paint-order="stroke fill markers" d=" M 0 0 M 2.175 3.286 C 1.743 3.286 1.394 3.637 1.394 4.067 C 1.394 4.498 1.745 4.849 2.175 4.849 C 2.605 4.849 2.956 4.498 2.956 4.067 C 2.956 3.637 2.606 3.286 2.175 3.286 Z M 0 0 M 2.175 4.38 C 2.003 4.38 1.863 4.239 1.863 4.067 C 1.863 3.896 2.003 3.755 2.175 3.755 C 2.346 3.755 2.487 3.896 2.487 4.067 C 2.487 4.239 2.346 4.38 2.175 4.38 Z M 0 0 M 1.875 0.312 C 1.185 0.312 0.625 0.873 0.625 1.563 C 0.625 2.254 1.185 2.813 1.875 2.813 C 2.565 2.813 3.125 2.253 3.125 1.563 C 3.125 0.874 2.565 0.312 1.875 0.312 Z M 0 0 M 1.875 2.032 C 1.616 2.032 1.406 1.822 1.406 1.563 C 1.406 1.304 1.616 1.094 1.875 1.094 C 2.134 1.094 2.344 1.304 2.344 1.563 C 2.344 1.822 2.134 2.032 1.875 2.032 Z M 0 0 M 8.641 2.285 L 7.704 2.208 C 7.665 2.085 7.683 2.121 7.626 2 C 7.75 1.829 8.078 1.493 8.205 1.321 C 8.222 1.296 8.235 1.269 8.235 1.238 C 8.235 1.115 7.716 0.64 7.603 0.535 C 7.577 0.513 7.546 0.5 7.511 0.5 C 7.48 0.5 7.449 0.509 7.423 0.53 L 6.772 1.1 C 6.666 1.047 6.65 1.047 6.535 1.012 L 6.475 0.112 C 6.47 0.048 6.408 0 6.346 0 L 5.53 0 C 5.469 0 5.416 0.044 5.399 0.106 C 5.343 0.32 5.371 0.796 5.348 1.017 C 5.23 1.056 5.241 1.065 5.129 1.122 L 4.452 0.528 C 4.427 0.511 4.395 0.498 4.36 0.498 C 4.233 0.498 3.74 1.031 3.654 1.149 C 3.631 1.174 3.623 1.205 3.623 1.235 C 3.623 1.266 3.637 1.297 3.654 1.322 C 3.793 1.489 4.098 1.773 4.22 1.949 C 4.164 2.059 4.173 2.109 4.137 2.226 L 3.227 2.269 C 3.17 2.278 3.126 2.345 3.126 2.401 L 3.125 3.213 C 3.125 3.276 3.169 3.332 3.23 3.342 L 4.15 3.402 C 4.189 3.524 4.18 3.485 4.242 3.605 C 4.115 3.776 3.793 4.143 3.666 4.309 C 3.648 4.334 3.636 4.361 3.636 4.392 C 3.636 4.52 4.155 4.99 4.269 5.094 C 4.294 5.117 4.325 5.129 4.36 5.129 C 4.39 5.129 4.427 5.121 4.447 5.1 L 5.094 4.495 C 5.2 4.548 5.209 4.543 5.325 4.578 L 5.397 5.515 C 5.406 5.577 5.468 5.625 5.528 5.625 L 6.345 5.625 C 6.406 5.625 6.459 5.581 6.475 5.52 C 6.532 5.304 6.491 4.804 6.513 4.577 C 6.631 4.542 6.62 4.536 6.732 4.479 L 7.423 5.095 C 7.448 5.113 7.479 5.126 7.514 5.126 C 7.642 5.126 8.135 4.589 8.221 4.472 C 8.244 4.449 8.252 4.419 8.252 4.388 C 8.252 4.353 8.238 4.327 8.221 4.302 C 8.082 4.135 7.714 3.824 7.591 3.649 C 7.647 3.54 7.637 3.542 7.672 3.426 L 8.648 3.353 C 8.705 3.345 8.749 3.278 8.749 3.222 L 8.749 2.41 C 8.747 2.355 8.703 2.297 8.641 2.285 Z M 0 0 M 5.92 3.919 C 5.317 3.919 4.822 3.427 4.822 2.819 C 4.822 2.212 5.314 1.72 5.92 1.72 C 6.528 1.72 7.02 2.212 7.02 2.819 C 7.02 3.427 6.528 3.919 5.92 3.919 Z M 0 0 M 8.435 6.25 C 7.941 5.757 7.497 6.25 7.497 6.25 L 5.622 8.125 L 3.728 8.125 C 3.728 8.125 3.415 8.125 3.415 7.813 C 3.415 7.5 3.747 7.5 3.747 7.5 L 5.31 7.5 C 5.31 7.5 5.622 7.5 5.622 7.187 C 5.622 6.875 5.31 6.875 5.31 6.875 L 1.882 6.87 C 1.683 6.865 1.305 6.905 0.944 7.304 L 0 8.301 L 1.872 10 L 2.497 9.374 L 6.117 9.374 C 6.2 9.374 6.28 9.342 6.339 9.283 L 6.872 8.75 L 8.435 7.187 C 8.435 7.187 8.927 6.743 8.435 6.25 Z"/></g></g><g transform="matrix(1,0,0,1,117,70)"><g><path fill="white" stroke="white" paint-order="fill stroke markers" d=" M 9 0 L 11 0 L 10.999999999999998 0 A 9 9 0 0 1 20 9 L 20 11 L 20 11 A 9 9 0 0 1 11 20 L 9 20 L 9 20 A 9 9 0 0 1 0 11.000000000000002 L 0 9 L 0 9.000000000000002 A 9 9 0 0 1 8.999999999999998 0 Z" fill-opacity="0.001" stroke-miterlimit="10" stroke-opacity="0.001" stroke-dasharray=""/></g><g><path fill="#4F5255" stroke="#4F5255" paint-order="fill stroke markers" d=" M 0 0 M 15.26 3.1 L 0.42 3.1 C 0.189 3.1 0 2.911 0 2.68 L 0 1.56 C 0 1.329 0.189 1.14 0.42 1.14 L 15.26 1.14 C 15.491 1.14 15.68 1.329 15.68 1.56 L 15.68 2.68 C 15.68 2.911 15.491 3.1 15.26 3.1 Z M 0 0 M 15.26 8.7 L 0.42 8.7 C 0.189 8.7 0 8.511 0 8.28 L 0 7.16 C 0 6.929 0.189 6.74 0.42 6.74 L 15.26 6.74 C 15.491 6.74 15.68 6.929 15.68 7.16 L 15.68 8.28 C 15.68 8.511 15.491 8.7 15.26 8.7 Z M 0 0 M 15.26 14.3 L 0.42 14.3 C 0.189 14.3 0 14.111 0 13.88 L 0 12.76 C 0 12.529 0.189 12.34 0.42 12.34 L 15.26 12.34 C 15.491 12.34 15.68 12.529 15.68 12.76 L 15.68 13.88 C 15.68 14.111 15.491 14.3 15.26 14.3 Z" stroke-miterlimit="10" stroke-dasharray=""/></g></g><g transform="matrix(1,0,0,1,80,31.5)"><text fill="#383B3D" stroke="none" font-family="Open Sans" font-size="12pt" font-style="normal" font-weight="normal" text-decoration="normal" x="50.1796875" y="12" text-anchor="middle" dominant-baseline="central">StartPlanning</text></g></g><g id="_9811A146-10A9-41B6-B1BA-417BB94630C2" transform="matrix(1,0,0,1,202,446)"><g><path fill="#fff" stroke="#ccc" id="_9811A146-10A9-41B6-B1BA-417BB94630C2?shapeType=BACKGROUND" paint-order="fill stroke markers" d=" M 0 5 L 0 5 L 0 5.000000000000001 A 5 5 0 0 1 5 0 L 245 0 L 245 0 L 245 0 A 5 5 0 0 1 250 5 L 250 85 L 250 85 L 250 85 A 5 5 0 0 1 245 90 L 5 90 L 5 90 L 5 90 A 5 5 0 0 1 0 85 Z" stroke-miterlimit="10" stroke-width="2" stroke-dasharray=""/></g><g transform="matrix(1,0,0,1,45,46)"><g id="_9811A146-10A9-41B6-B1BA-417BB94630C2"><path fill="#0066CC" stroke="#d5d5d5" id="_9811A146-10A9-41B6-B1BA-417BB94630C2" paint-order="fill stroke markers" d=" M 0 -25 L 0 -25 L 1.5308084989341915e-15 -25 A 25 25 0 0 1 25 0 L 25 0 L 25 0 A 25 25 0 0 1 1.5308084989341915e-15 25 L 0 25 L 1.5308084989341915e-15 25 A 25 25 0 0 1 -25 3.061616997868383e-15 L -25 0 L -25 3.061616997868383e-15 A 25 25 0 0 1 1.5308084989341915e-15 -25 Z" stroke-miterlimit="10" stroke-dasharray=""/></g><g><g transform="matrix(0.35,0,0,0.35,-11,-11)"><path fill="#fff" stroke="#fff" paint-order="fill stroke markers" d=" M 0 0 M 61.99 20.83 C 62.4 21.9 62.050000000000004 23.119999999999997 61.2 23.9 L 55.790000000000006 28.83 C 55.93000000000001 29.869999999999997 56.00000000000001 30.93 56.00000000000001 32 C 56.00000000000001 33.07 55.92000000000001 34.14 55.790000000000006 35.17 L 61.2 40.09 C 62.050000000000004 40.88 62.400000000000006 42.09 61.99 43.17 C 61.440000000000005 44.660000000000004 60.78 46.09 60.03 47.46 L 59.44 48.47 C 58.61 49.85 57.69 51.15 56.68 52.379999999999995 C 55.93 53.269999999999996 54.72 53.58 53.62 53.23 L 46.66 51.01 C 44.98 52.3 43.019999999999996 53.37 41.16 54.199999999999996 L 39.599999999999994 61.339999999999996 C 39.349999999999994 62.459999999999994 38.48 63.26 37.31999999999999 63.559999999999995 C 35.599999999999994 63.849999999999994 33.81999999999999 63.99999999999999 31.89999999999999 63.99999999999999 C 30.199999999999992 63.99999999999999 28.41999999999999 63.849999999999994 26.699999999999992 63.559999999999995 C 25.549999999999994 63.26 24.679999999999993 62.459999999999994 24.429999999999993 61.339999999999996 L 22.869999999999994 54.199999999999996 C 20.889999999999993 53.37 19.039999999999992 52.3 17.369999999999994 51.01 L 10.409999999999993 53.23 C 9.309999999999993 53.58 8.089999999999993 53.269999999999996 7.3499999999999925 52.379999999999995 C 6.339999999999993 51.13999999999999 5.409999999999993 49.839999999999996 4.589999999999993 48.47 L 3.999999999999993 47.46 C 3.239999999999993 46.1 2.579999999999993 44.660000000000004 2.029999999999993 43.17 C 1.6299999999999932 42.09 1.969999999999993 40.88 2.819999999999993 40.09 L 8.229999999999993 35.17 C 8.089999999999993 34.13 8.019999999999992 33.07 8.019999999999992 32 C 8.019999999999992 30.93 8.089999999999993 29.86 8.229999999999993 28.83 L 2.819999999999993 23.9 C 1.9599999999999933 23.11 1.6199999999999932 21.91 2.029999999999993 20.83 C 2.579999999999993 19.34 3.249999999999993 17.9 3.999999999999993 16.54 L 4.579999999999993 15.53 C 5.409999999999993 14.149999999999999 6.329999999999993 12.86 7.3499999999999925 11.62 C 8.089999999999993 10.729999999999999 9.309999999999992 10.42 10.409999999999993 10.77 L 17.369999999999994 12.99 C 19.039999999999992 11.7 20.889999999999993 10.620000000000001 22.869999999999994 9.81 L 24.429999999999993 2.670000000000001 C 24.679999999999993 1.540000000000001 25.549999999999994 0.6300000000000008 26.699999999999992 0.44000000000000083 C 28.429999999999993 0.15000000000000085 30.199999999999992 8.326672684688674e-16 32.00999999999999 8.326672684688674e-16 C 33.81999999999999 8.326672684688674e-16 35.599999999999994 0.15000000000000083 37.31999999999999 0.44000000000000083 C 38.46999999999999 0.6300000000000008 39.349999999999994 1.530000000000001 39.599999999999994 2.670000000000001 L 41.16 9.81 C 43.019999999999996 10.63 44.98 11.700000000000001 46.66 12.99 L 53.62 10.77 C 54.72 10.42 55.93 10.73 56.68 11.62 C 57.69 12.85 58.62 14.149999999999999 59.44 15.53 L 60.03 16.54 C 60.78 17.9 61.44 19.34 61.99 20.83 L 61.99 20.83 Z M 0 0 M 32 42 C 37.53 42 42 37.53 42 31.89 C 42 26.25 37.53 21.89 32 21.89 C 26.47 21.89 22 26.48 22 31.89 C 22 37.3 26.48 42 32 42 Z" stroke-miterlimit="10" stroke-width="2" stroke-dasharray=""/></g></g></g><g transform="matrix(1,0,0,1,224,6)"><g><path fill="white" stroke="white" paint-order="fill stroke markers" d=" M 9 0 L 11 0 L 10.999999999999998 0 A 9 9 0 0 1 20 9 L 20 11 L 20 11 A 9 9 0 0 1 11 20 L 9 20 L 9 20 A 9 9 0 0 1 0 11.000000000000002 L 0 9 L 0 9.000000000000002 A 9 9 0 0 1 8.999999999999998 0 Z" fill-opacity="0.001" stroke-miterlimit="10" stroke-opacity="0.001" stroke-dasharray=""/></g><g transform="matrix(2,0,0,2,0,0)"><path fill="#CCC" stroke="none" paint-order="stroke fill markers" d=" M 0 0 M 2.175 3.286 C 1.743 3.286 1.394 3.637 1.394 4.067 C 1.394 4.498 1.745 4.849 2.175 4.849 C 2.605 4.849 2.956 4.498 2.956 4.067 C 2.956 3.637 2.606 3.286 2.175 3.286 Z M 0 0 M 2.175 4.38 C 2.003 4.38 1.863 4.239 1.863 4.067 C 1.863 3.896 2.003 3.755 2.175 3.755 C 2.346 3.755 2.487 3.896 2.487 4.067 C 2.487 4.239 2.346 4.38 2.175 4.38 Z M 0 0 M 1.875 0.312 C 1.185 0.312 0.625 0.873 0.625 1.563 C 0.625 2.254 1.185 2.813 1.875 2.813 C 2.565 2.813 3.125 2.253 3.125 1.563 C 3.125 0.874 2.565 0.312 1.875 0.312 Z M 0 0 M 1.875 2.032 C 1.616 2.032 1.406 1.822 1.406 1.563 C 1.406 1.304 1.616 1.094 1.875 1.094 C 2.134 1.094 2.344 1.304 2.344 1.563 C 2.344 1.822 2.134 2.032 1.875 2.032 Z M 0 0 M 8.641 2.285 L 7.704 2.208 C 7.665 2.085 7.683 2.121 7.626 2 C 7.75 1.829 8.078 1.493 8.205 1.321 C 8.222 1.296 8.235 1.269 8.235 1.238 C 8.235 1.115 7.716 0.64 7.603 0.535 C 7.577 0.513 7.546 0.5 7.511 0.5 C 7.48 0.5 7.449 0.509 7.423 0.53 L 6.772 1.1 C 6.666 1.047 6.65 1.047 6.535 1.012 L 6.475 0.112 C 6.47 0.048 6.408 0 6.346 0 L 5.53 0 C 5.469 0 5.416 0.044 5.399 0.106 C 5.343 0.32 5.371 0.796 5.348 1.017 C 5.23 1.056 5.241 1.065 5.129 1.122 L 4.452 0.528 C 4.427 0.511 4.395 0.498 4.36 0.498 C 4.233 0.498 3.74 1.031 3.654 1.149 C 3.631 1.174 3.623 1.205 3.623 1.235 C 3.623 1.266 3.637 1.297 3.654 1.322 C 3.793 1.489 4.098 1.773 4.22 1.949 C 4.164 2.059 4.173 2.109 4.137 2.226 L 3.227 2.269 C 3.17 2.278 3.126 2.345 3.126 2.401 L 3.125 3.213 C 3.125 3.276 3.169 3.332 3.23 3.342 L 4.15 3.402 C 4.189 3.524 4.18 3.485 4.242 3.605 C 4.115 3.776 3.793 4.143 3.666 4.309 C 3.648 4.334 3.636 4.361 3.636 4.392 C 3.636 4.52 4.155 4.99 4.269 5.094 C 4.294 5.117 4.325 5.129 4.36 5.129 C 4.39 5.129 4.427 5.121 4.447 5.1 L 5.094 4.495 C 5.2 4.548 5.209 4.543 5.325 4.578 L 5.397 5.515 C 5.406 5.577 5.468 5.625 5.528 5.625 L 6.345 5.625 C 6.406 5.625 6.459 5.581 6.475 5.52 C 6.532 5.304 6.491 4.804 6.513 4.577 C 6.631 4.542 6.62 4.536 6.732 4.479 L 7.423 5.095 C 7.448 5.113 7.479 5.126 7.514 5.126 C 7.642 5.126 8.135 4.589 8.221 4.472 C 8.244 4.449 8.252 4.419 8.252 4.388 C 8.252 4.353 8.238 4.327 8.221 4.302 C 8.082 4.135 7.714 3.824 7.591 3.649 C 7.647 3.54 7.637 3.542 7.672 3.426 L 8.648 3.353 C 8.705 3.345 8.749 3.278 8.749 3.222 L 8.749 2.41 C 8.747 2.355 8.703 2.297 8.641 2.285 Z M 0 0 M 5.92 3.919 C 5.317 3.919 4.822 3.427 4.822 2.819 C 4.822 2.212 5.314 1.72 5.92 1.72 C 6.528 1.72 7.02 2.212 7.02 2.819 C 7.02 3.427 6.528 3.919 5.92 3.919 Z M 0 0 M 8.435 6.25 C 7.941 5.757 7.497 6.25 7.497 6.25 L 5.622 8.125 L 3.728 8.125 C 3.728 8.125 3.415 8.125 3.415 7.813 C 3.415 7.5 3.747 7.5 3.747 7.5 L 5.31 7.5 C 5.31 7.5 5.622 7.5 5.622 7.187 C 5.622 6.875 5.31 6.875 5.31 6.875 L 1.882 6.87 C 1.683 6.865 1.305 6.905 0.944 7.304 L 0 8.301 L 1.872 10 L 2.497 9.374 L 6.117 9.374 C 6.2 9.374 6.28 9.342 6.339 9.283 L 6.872 8.75 L 8.435 7.187 C 8.435 7.187 8.927 6.743 8.435 6.25 Z"/></g></g><g transform="matrix(1,0,0,1,117,70)"><g><path fill="white" stroke="white" paint-order="fill stroke markers" d=" M 9 0 L 11 0 L 10.999999999999998 0 A 9 9 0 0 1 20 9 L 20 11 L 20 11 A 9 9 0 0 1 11 20 L 9 20 L 9 20 A 9 9 0 0 1 0 11.000000000000002 L 0 9 L 0 9.000000000000002 A 9 9 0 0 1 8.999999999999998 0 Z" fill-opacity="0.001" stroke-miterlimit="10" stroke-opacity="0.001" stroke-dasharray=""/></g><g><path fill="#4F5255" stroke="#4F5255" paint-order="fill stroke markers" d=" M 0 0 M 15.26 3.1 L 0.42 3.1 C 0.189 3.1 0 2.911 0 2.68 L 0 1.56 C 0 1.329 0.189 1.14 0.42 1.14 L 15.26 1.14 C 15.491 1.14 15.68 1.329 15.68 1.56 L 15.68 2.68 C 15.68 2.911 15.491 3.1 15.26 3.1 Z M 0 0 M 15.26 8.7 L 0.42 8.7 C 0.189 8.7 0 8.511 0 8.28 L 0 7.16 C 0 6.929 0.189 6.74 0.42 6.74 L 15.26 6.74 C 15.491 6.74 15.68 6.929 15.68 7.16 L 15.68 8.28 C 15.68 8.511 15.491 8.7 15.26 8.7 Z M 0 0 M 15.26 14.3 L 0.42 14.3 C 0.189 14.3 0 14.111 0 13.88 L 0 12.76 C 0 12.529 0.189 12.34 0.42 12.34 L 15.26 12.34 C 15.491 12.34 15.68 12.529 15.68 12.76 L 15.68 13.88 C 15.68 14.111 15.491 14.3 15.26 14.3 Z" stroke-miterlimit="10" stroke-dasharray=""/></g></g><g transform="matrix(1,0,0,1,80,31.5)"><text fill="#383B3D" stroke="none" font-family="Open Sans" font-size="12pt" font-style="normal" font-weight="normal" text-decoration="normal" x="45.5625" y="12" text-anchor="middle" dominant-baseline="central">GetPlanning</text></g></g><g id="_1DF171E9-7751-47AA-9AD5-063AEF073B1C" transform="matrix(1,0,0,1,202,663)"><g><path fill="#fff" stroke="#ccc" id="_1DF171E9-7751-47AA-9AD5-063AEF073B1C?shapeType=BACKGROUND" paint-order="fill stroke markers" d=" M 0 5 L 0 5 L 0 5.000000000000001 A 5 5 0 0 1 5 0 L 245 0 L 245 0 L 245 0 A 5 5 0 0 1 250 5 L 250 85 L 250 85 L 250 85 A 5 5 0 0 1 245 90 L 5 90 L 5 90 L 5 90 A 5 5 0 0 1 0 85 Z" stroke-miterlimit="10" stroke-width="2" stroke-dasharray=""/></g><g transform="matrix(1,0,0,1,45,46)"><g id="_1DF171E9-7751-47AA-9AD5-063AEF073B1C"><path fill="#009596" stroke="#d5d5d5" id="_1DF171E9-7751-47AA-9AD5-063AEF073B1C" paint-order="fill stroke markers" d=" M 0 -25 L 0 -25 L 1.5308084989341915e-15 -25 A 25 25 0 0 1 25 0 L 25 0 L 25 0 A 25 25 0 0 1 1.5308084989341915e-15 25 L 0 25 L 1.5308084989341915e-15 25 A 25 25 0 0 1 -25 3.061616997868383e-15 L -25 0 L -25 3.061616997868383e-15 A 25 25 0 0 1 1.5308084989341915e-15 -25 Z" stroke-miterlimit="10" stroke-dasharray=""/></g><g><g transform="matrix(0.35,0,0,0.35,-11,-11)"><path fill="#fff" stroke="#fff" paint-order="fill stroke markers" d=" M 0 0 M 60.6 46.54 L 54.07 46.54 L 54.07 37.83 C 54.01 36.449999999999996 53.35 35.14 52.24 34.309999999999995 L 44.82 28.749999999999996 L 44.82 28.749999999999996 L 36.41 22.389999999999997 L 36.41 4.4 C 36.4 1.87 34.26 -0.17 31.69 0.01 C 29.44 0.17 27.6 2.23 27.6 4.49 L 27.6 22.41 L 19.19 28.72 L 19.19 28.72 L 11.770000000000001 34.269999999999996 C 10.660000000000002 35.099999999999994 10.010000000000002 36.41 9.940000000000001 37.79 L 9.940000000000001 46.5 L 3.4 46.5 C 0.45999999999999996 46.47 -1.02 50.03 1.06 52.11 L 12.07 63 C 13.36 64.29 15.45 64.29 16.75 63 L 27.759999999999998 52.11 C 29.839999999999996 50.15 28.369999999999997 46.59 25.419999999999998 46.64 L 18.75 46.64 L 18.75 40.01 C 18.75 40.01 26.97 33.93 32.03 30.14 C 36.99 33.87 45.230000000000004 40.06 45.27 40.04 L 45.27 46.67 L 38.6 46.67 C 35.660000000000004 46.620000000000005 34.18 50.18 36.260000000000005 52.14 L 47.27 63.03 C 48.56 64.32000000000001 50.650000000000006 64.32000000000001 51.95 63.03 L 62.96 52.14 C 65.04 50.06 63.56 46.5 60.620000000000005 46.53 Z" stroke-miterlimit="10" stroke-width="2" stroke-dasharray=""/></g></g></g><g transform="matrix(1,0,0,1,224,6)"><g><path fill="white" stroke="white" paint-order="fill stroke markers" d=" M 9 0 L 11 0 L 10.999999999999998 0 A 9 9 0 0 1 20 9 L 20 11 L 20 11 A 9 9 0 0 1 11 20 L 9 20 L 9 20 A 9 9 0 0 1 0 11.000000000000002 L 0 9 L 0 9.000000000000002 A 9 9 0 0 1 8.999999999999998 0 Z" fill-opacity="0.001" stroke-miterlimit="10" stroke-opacity="0.001" stroke-dasharray=""/></g><g transform="matrix(2,0,0,2,0,0)"><path fill="#CCC" stroke="none" paint-order="stroke fill markers" d=" M 0 0 M 7.382 2.142 L 9.781 4.542 C 9.921 4.683 10 4.876 10 5.076 C 10 5.274 9.921 5.467 9.781 5.608 L 7.382 8.008 C 7.256 8.132 7.088 8.2 6.912 8.2 C 6.547 8.2 6.25 7.903 6.25 7.538 L 6.25 6.326 L 3.75 6.326 C 3.405 6.326 3.126 6.046 3.126 5.7 L 3.126 4.45 C 3.126 4.105 3.405 3.826 3.75 3.826 L 6.25 3.826 L 6.25 2.612 C 6.25 2.247 6.547 1.95 6.912 1.95 C 7.088 1.95 7.256 2.02 7.382 2.142 Z M 0 0 M 3.126 1.95 L 1.876 1.95 C 1.53 1.95 1.25 2.23 1.25 2.576 L 1.25 7.576 C 1.25 7.92 1.53 8.2 1.876 8.2 L 3.126 8.2 C 3.47 8.2 3.75 8.48 3.75 8.826 C 3.75 9.17 3.47 9.45 3.126 9.45 L 1.876 9.45 C 0.84 9.45 0 8.61 0 7.576 L 0 2.576 C 0 1.54 0.84 0.7 1.876 0.7 L 3.126 0.7 C 3.47 0.7 3.75 0.98 3.75 1.326 C 3.75 1.67 3.47 1.95 3.126 1.95 Z"/></g></g><g transform="matrix(1,0,0,1,80,24)"><text fill="#383B3D" stroke="none" font-family="Open Sans" font-size="12pt" font-style="normal" font-weight="normal" text-decoration="normal" x="73.92578125" y="12" text-anchor="middle" dominant-baseline="central">PlanRetrievedCheck</text></g></g><g id="_43FBFEFA-A20D-42F5-AA8A-F7BD4F82D6EB" transform="matrix(1,0,0,1,202,880)"><g><path fill="#fff" stroke="#ccc" id="_43FBFEFA-A20D-42F5-AA8A-F7BD4F82D6EB?shapeType=BACKGROUND" paint-order="fill stroke markers" d=" M 0 5 L 0 5 L 0 5.000000000000001 A 5 5 0 0 1 5 0 L 245 0 L 245 0 L 245 0 A 5 5 0 0 1 250 5 L 250 85 L 250 85 L 250 85 A 5 5 0 0 1 245 90 L 5 90 L 5 90 L 5 90 A 5 5 0 0 1 0 85 Z" stroke-miterlimit="10" stroke-width="2" stroke-dasharray=""/></g><g transform="matrix(1,0,0,1,45,46)"><g id="_43FBFEFA-A20D-42F5-AA8A-F7BD4F82D6EB"><path fill="#0066CC" stroke="#d5d5d5" id="_43FBFEFA-A20D-42F5-AA8A-F7BD4F82D6EB" paint-order="fill stroke markers" d=" M 0 -25 L 0 -25 L 1.5308084989341915e-15 -25 A 25 25 0 0 1 25 0 L 25 0 L 25 0 A 25 25 0 0 1 1.5308084989341915e-15 25 L 0 25 L 1.5308084989341915e-15 25 A 25 25 0 0 1 -25 3.061616997868383e-15 L -25 0 L -25 3.061616997868383e-15 A 25 25 0 0 1 1.5308084989341915e-15 -25 Z" stroke-miterlimit="10" stroke-dasharray=""/></g><g><g transform="matrix(0.35,0,0,0.35,-11,-11)"><path fill="#fff" stroke="#fff" paint-order="fill stroke markers" d=" M 0 0 M 61.99 20.83 C 62.4 21.9 62.050000000000004 23.119999999999997 61.2 23.9 L 55.790000000000006 28.83 C 55.93000000000001 29.869999999999997 56.00000000000001 30.93 56.00000000000001 32 C 56.00000000000001 33.07 55.92000000000001 34.14 55.790000000000006 35.17 L 61.2 40.09 C 62.050000000000004 40.88 62.400000000000006 42.09 61.99 43.17 C 61.440000000000005 44.660000000000004 60.78 46.09 60.03 47.46 L 59.44 48.47 C 58.61 49.85 57.69 51.15 56.68 52.379999999999995 C 55.93 53.269999999999996 54.72 53.58 53.62 53.23 L 46.66 51.01 C 44.98 52.3 43.019999999999996 53.37 41.16 54.199999999999996 L 39.599999999999994 61.339999999999996 C 39.349999999999994 62.459999999999994 38.48 63.26 37.31999999999999 63.559999999999995 C 35.599999999999994 63.849999999999994 33.81999999999999 63.99999999999999 31.89999999999999 63.99999999999999 C 30.199999999999992 63.99999999999999 28.41999999999999 63.849999999999994 26.699999999999992 63.559999999999995 C 25.549999999999994 63.26 24.679999999999993 62.459999999999994 24.429999999999993 61.339999999999996 L 22.869999999999994 54.199999999999996 C 20.889999999999993 53.37 19.039999999999992 52.3 17.369999999999994 51.01 L 10.409999999999993 53.23 C 9.309999999999993 53.58 8.089999999999993 53.269999999999996 7.3499999999999925 52.379999999999995 C 6.339999999999993 51.13999999999999 5.409999999999993 49.839999999999996 4.589999999999993 48.47 L 3.999999999999993 47.46 C 3.239999999999993 46.1 2.579999999999993 44.660000000000004 2.029999999999993 43.17 C 1.6299999999999932 42.09 1.969999999999993 40.88 2.819999999999993 40.09 L 8.229999999999993 35.17 C 8.089999999999993 34.13 8.019999999999992 33.07 8.019999999999992 32 C 8.019999999999992 30.93 8.089999999999993 29.86 8.229999999999993 28.83 L 2.819999999999993 23.9 C 1.9599999999999933 23.11 1.6199999999999932 21.91 2.029999999999993 20.83 C 2.579999999999993 19.34 3.249999999999993 17.9 3.999999999999993 16.54 L 4.579999999999993 15.53 C 5.409999999999993 14.149999999999999 6.329999999999993 12.86 7.3499999999999925 11.62 C 8.089999999999993 10.729999999999999 9.309999999999992 10.42 10.409999999999993 10.77 L 17.369999999999994 12.99 C 19.039999999999992 11.7 20.889999999999993 10.620000000000001 22.869999999999994 9.81 L 24.429999999999993 2.670000000000001 C 24.679999999999993 1.540000000000001 25.549999999999994 0.6300000000000008 26.699999999999992 0.44000000000000083 C 28.429999999999993 0.15000000000000085 30.199999999999992 8.326672684688674e-16 32.00999999999999 8.326672684688674e-16 C 33.81999999999999 8.326672684688674e-16 35.599999999999994 0.15000000000000083 37.31999999999999 0.44000000000000083 C 38.46999999999999 0.6300000000000008 39.349999999999994 1.530000000000001 39.599999999999994 2.670000000000001 L 41.16 9.81 C 43.019999999999996 10.63 44.98 11.700000000000001 46.66 12.99 L 53.62 10.77 C 54.72 10.42 55.93 10.73 56.68 11.62 C 57.69 12.85 58.62 14.149999999999999 59.44 15.53 L 60.03 16.54 C 60.78 17.9 61.44 19.34 61.99 20.83 L 61.99 20.83 Z M 0 0 M 32 42 C 37.53 42 42 37.53 42 31.89 C 42 26.25 37.53 21.89 32 21.89 C 26.47 21.89 22 26.48 22 31.89 C 22 37.3 26.48 42 32 42 Z" stroke-miterlimit="10" stroke-width="2" stroke-dasharray=""/></g></g></g><g transform="matrix(1,0,0,1,224,6)"><g><path fill="white" stroke="white" paint-order="fill stroke markers" d=" M 9 0 L 11 0 L 10.999999999999998 0 A 9 9 0 0 1 20 9 L 20 11 L 20 11 A 9 9 0 0 1 11 20 L 9 20 L 9 20 A 9 9 0 0 1 0 11.000000000000002 L 0 9 L 0 9.000000000000002 A 9 9 0 0 1 8.999999999999998 0 Z" fill-opacity="0.001" stroke-miterlimit="10" stroke-opacity="0.001" stroke-dasharray=""/></g><g transform="matrix(2,0,0,2,0,0)"><path fill="#CCC" stroke="none" paint-order="stroke fill markers" d=" M 0 0 M 2.175 3.286 C 1.743 3.286 1.394 3.637 1.394 4.067 C 1.394 4.498 1.745 4.849 2.175 4.849 C 2.605 4.849 2.956 4.498 2.956 4.067 C 2.956 3.637 2.606 3.286 2.175 3.286 Z M 0 0 M 2.175 4.38 C 2.003 4.38 1.863 4.239 1.863 4.067 C 1.863 3.896 2.003 3.755 2.175 3.755 C 2.346 3.755 2.487 3.896 2.487 4.067 C 2.487 4.239 2.346 4.38 2.175 4.38 Z M 0 0 M 1.875 0.312 C 1.185 0.312 0.625 0.873 0.625 1.563 C 0.625 2.254 1.185 2.813 1.875 2.813 C 2.565 2.813 3.125 2.253 3.125 1.563 C 3.125 0.874 2.565 0.312 1.875 0.312 Z M 0 0 M 1.875 2.032 C 1.616 2.032 1.406 1.822 1.406 1.563 C 1.406 1.304 1.616 1.094 1.875 1.094 C 2.134 1.094 2.344 1.304 2.344 1.563 C 2.344 1.822 2.134 2.032 1.875 2.032 Z M 0 0 M 8.641 2.285 L 7.704 2.208 C 7.665 2.085 7.683 2.121 7.626 2 C 7.75 1.829 8.078 1.493 8.205 1.321 C 8.222 1.296 8.235 1.269 8.235 1.238 C 8.235 1.115 7.716 0.64 7.603 0.535 C 7.577 0.513 7.546 0.5 7.511 0.5 C 7.48 0.5 7.449 0.509 7.423 0.53 L 6.772 1.1 C 6.666 1.047 6.65 1.047 6.535 1.012 L 6.475 0.112 C 6.47 0.048 6.408 0 6.346 0 L 5.53 0 C 5.469 0 5.416 0.044 5.399 0.106 C 5.343 0.32 5.371 0.796 5.348 1.017 C 5.23 1.056 5.241 1.065 5.129 1.122 L 4.452 0.528 C 4.427 0.511 4.395 0.498 4.36 0.498 C 4.233 0.498 3.74 1.031 3.654 1.149 C 3.631 1.174 3.623 1.205 3.623 1.235 C 3.623 1.266 3.637 1.297 3.654 1.322 C 3.793 1.489 4.098 1.773 4.22 1.949 C 4.164 2.059 4.173 2.109 4.137 2.226 L 3.227 2.269 C 3.17 2.278 3.126 2.345 3.126 2.401 L 3.125 3.213 C 3.125 3.276 3.169 3.332 3.23 3.342 L 4.15 3.402 C 4.189 3.524 4.18 3.485 4.242 3.605 C 4.115 3.776 3.793 4.143 3.666 4.309 C 3.648 4.334 3.636 4.361 3.636 4.392 C 3.636 4.52 4.155 4.99 4.269 5.094 C 4.294 5.117 4.325 5.129 4.36 5.129 C 4.39 5.129 4.427 5.121 4.447 5.1 L 5.094 4.495 C 5.2 4.548 5.209 4.543 5.325 4.578 L 5.397 5.515 C 5.406 5.577 5.468 5.625 5.528 5.625 L 6.345 5.625 C 6.406 5.625 6.459 5.581 6.475 5.52 C 6.532 5.304 6.491 4.804 6.513 4.577 C 6.631 4.542 6.62 4.536 6.732 4.479 L 7.423 5.095 C 7.448 5.113 7.479 5.126 7.514 5.126 C 7.642 5.126 8.135 4.589 8.221 4.472 C 8.244 4.449 8.252 4.419 8.252 4.388 C 8.252 4.353 8.238 4.327 8.221 4.302 C 8.082 4.135 7.714 3.824 7.591 3.649 C 7.647 3.54 7.637 3.542 7.672 3.426 L 8.648 3.353 C 8.705 3.345 8.749 3.278 8.749 3.222 L 8.749 2.41 C 8.747 2.355 8.703 2.297 8.641 2.285 Z M 0 0 M 5.92 3.919 C 5.317 3.919 4.822 3.427 4.822 2.819 C 4.822 2.212 5.314 1.72 5.92 1.72 C 6.528 1.72 7.02 2.212 7.02 2.819 C 7.02 3.427 6.528 3.919 5.92 3.919 Z M 0 0 M 8.435 6.25 C 7.941 5.757 7.497 6.25 7.497 6.25 L 5.622 8.125 L 3.728 8.125 C 3.728 8.125 3.415 8.125 3.415 7.813 C 3.415 7.5 3.747 7.5 3.747 7.5 L 5.31 7.5 C 5.31 7.5 5.622 7.5 5.622 7.187 C 5.622 6.875 5.31 6.875 5.31 6.875 L 1.882 6.87 C 1.683 6.865 1.305 6.905 0.944 7.304 L 0 8.301 L 1.872 10 L 2.497 9.374 L 6.117 9.374 C 6.2 9.374 6.28 9.342 6.339 9.283 L 6.872 8.75 L 8.435 7.187 C 8.435 7.187 8.927 6.743 8.435 6.25 Z"/></g></g><g transform="matrix(1,0,0,1,117,70)"><g><path fill="white" stroke="white" paint-order="fill stroke markers" d=" M 9 0 L 11 0 L 10.999999999999998 0 A 9 9 0 0 1 20 9 L 20 11 L 20 11 A 9 9 0 0 1 11 20 L 9 20 L 9 20 A 9 9 0 0 1 0 11.000000000000002 L 0 9 L 0 9.000000000000002 A 9 9 0 0 1 8.999999999999998 0 Z" fill-opacity="0.001" stroke-miterlimit="10" stroke-opacity="0.001" stroke-dasharray=""/></g><g><path fill="#4F5255" stroke="#4F5255" paint-order="fill stroke markers" d=" M 0 0 M 15.26 3.1 L 0.42 3.1 C 0.189 3.1 0 2.911 0 2.68 L 0 1.56 C 0 1.329 0.189 1.14 0.42 1.14 L 15.26 1.14 C 15.491 1.14 15.68 1.329 15.68 1.56 L 15.68 2.68 C 15.68 2.911 15.491 3.1 15.26 3.1 Z M 0 0 M 15.26 8.7 L 0.42 8.7 C 0.189 8.7 0 8.511 0 8.28 L 0 7.16 C 0 6.929 0.189 6.74 0.42 6.74 L 15.26 6.74 C 15.491 6.74 15.68 6.929 15.68 7.16 L 15.68 8.28 C 15.68 8.511 15.491 8.7 15.26 8.7 Z M 0 0 M 15.26 14.3 L 0.42 14.3 C 0.189 14.3 0 14.111 0 13.88 L 0 12.76 C 0 12.529 0.189 12.34 0.42 12.34 L 15.26 12.34 C 15.491 12.34 15.68 12.529 15.68 12.76 L 15.68 13.88 C 15.68 14.111 15.491 14.3 15.26 14.3 Z" stroke-miterlimit="10" stroke-dasharray=""/></g></g><g transform="matrix(1,0,0,1,80,24)"><text fill="#383B3D" stroke="none" font-family="Open Sans" font-size="12pt" font-style="normal" font-weight="normal" text-decoration="normal" x="70.44140625" y="12" text-anchor="middle" dominant-baseline="central">StartTransformatio</text><text fill="#383B3D" stroke="none" font-family="Open Sans" font-size="12pt" font-style="normal" font-weight="normal" text-decoration="normal" x="70.44140625" y="27" text-anchor="middle" dominant-baseline="central">                n                </text></g></g><g id="_EEADA33C-ACDF-4FE7-B43E-99AFAECE3B83" transform="matrix(1,0,0,1,202,1097)"><g><path fill="#fff" stroke="#ccc" id="_EEADA33C-ACDF-4FE7-B43E-99AFAECE3B83?shapeType=BACKGROUND" paint-order="fill stroke markers" d=" M 0 5 L 0 5 L 0 5.000000000000001 A 5 5 0 0 1 5 0 L 245 0 L 245 0 L 245 0 A 5 5 0 0 1 250 5 L 250 85 L 250 85 L 250 85 A 5 5 0 0 1 245 90 L 5 90 L 5 90 L 5 90 A 5 5 0 0 1 0 85 Z" stroke-miterlimit="10" stroke-width="2" stroke-dasharray=""/></g><g transform="matrix(1,0,0,1,45,46)"><g id="_EEADA33C-ACDF-4FE7-B43E-99AFAECE3B83"><path fill="#0066CC" stroke="#d5d5d5" id="_EEADA33C-ACDF-4FE7-B43E-99AFAECE3B83" paint-order="fill stroke markers" d=" M 0 -25 L 0 -25 L 1.5308084989341915e-15 -25 A 25 25 0 0 1 25 0 L 25 0 L 25 0 A 25 25 0 0 1 1.5308084989341915e-15 25 L 0 25 L 1.5308084989341915e-15 25 A 25 25 0 0 1 -25 3.061616997868383e-15 L -25 0 L -25 3.061616997868383e-15 A 25 25 0 0 1 1.5308084989341915e-15 -25 Z" stroke-miterlimit="10" stroke-dasharray=""/></g><g><g transform="matrix(0.35,0,0,0.35,-11,-11)"><path fill="#fff" stroke="#fff" paint-order="fill stroke markers" d=" M 0 0 M 61.99 20.83 C 62.4 21.9 62.050000000000004 23.119999999999997 61.2 23.9 L 55.790000000000006 28.83 C 55.93000000000001 29.869999999999997 56.00000000000001 30.93 56.00000000000001 32 C 56.00000000000001 33.07 55.92000000000001 34.14 55.790000000000006 35.17 L 61.2 40.09 C 62.050000000000004 40.88 62.400000000000006 42.09 61.99 43.17 C 61.440000000000005 44.660000000000004 60.78 46.09 60.03 47.46 L 59.44 48.47 C 58.61 49.85 57.69 51.15 56.68 52.379999999999995 C 55.93 53.269999999999996 54.72 53.58 53.62 53.23 L 46.66 51.01 C 44.98 52.3 43.019999999999996 53.37 41.16 54.199999999999996 L 39.599999999999994 61.339999999999996 C 39.349999999999994 62.459999999999994 38.48 63.26 37.31999999999999 63.559999999999995 C 35.599999999999994 63.849999999999994 33.81999999999999 63.99999999999999 31.89999999999999 63.99999999999999 C 30.199999999999992 63.99999999999999 28.41999999999999 63.849999999999994 26.699999999999992 63.559999999999995 C 25.549999999999994 63.26 24.679999999999993 62.459999999999994 24.429999999999993 61.339999999999996 L 22.869999999999994 54.199999999999996 C 20.889999999999993 53.37 19.039999999999992 52.3 17.369999999999994 51.01 L 10.409999999999993 53.23 C 9.309999999999993 53.58 8.089999999999993 53.269999999999996 7.3499999999999925 52.379999999999995 C 6.339999999999993 51.13999999999999 5.409999999999993 49.839999999999996 4.589999999999993 48.47 L 3.999999999999993 47.46 C 3.239999999999993 46.1 2.579999999999993 44.660000000000004 2.029999999999993 43.17 C 1.6299999999999932 42.09 1.969999999999993 40.88 2.819999999999993 40.09 L 8.229999999999993 35.17 C 8.089999999999993 34.13 8.019999999999992 33.07 8.019999999999992 32 C 8.019999999999992 30.93 8.089999999999993 29.86 8.229999999999993 28.83 L 2.819999999999993 23.9 C 1.9599999999999933 23.11 1.6199999999999932 21.91 2.029999999999993 20.83 C 2.579999999999993 19.34 3.249999999999993 17.9 3.999999999999993 16.54 L 4.579999999999993 15.53 C 5.409999999999993 14.149999999999999 6.329999999999993 12.86 7.3499999999999925 11.62 C 8.089999999999993 10.729999999999999 9.309999999999992 10.42 10.409999999999993 10.77 L 17.369999999999994 12.99 C 19.039999999999992 11.7 20.889999999999993 10.620000000000001 22.869999999999994 9.81 L 24.429999999999993 2.670000000000001 C 24.679999999999993 1.540000000000001 25.549999999999994 0.6300000000000008 26.699999999999992 0.44000000000000083 C 28.429999999999993 0.15000000000000085 30.199999999999992 8.326672684688674e-16 32.00999999999999 8.326672684688674e-16 C 33.81999999999999 8.326672684688674e-16 35.599999999999994 0.15000000000000083 37.31999999999999 0.44000000000000083 C 38.46999999999999 0.6300000000000008 39.349999999999994 1.530000000000001 39.599999999999994 2.670000000000001 L 41.16 9.81 C 43.019999999999996 10.63 44.98 11.700000000000001 46.66 12.99 L 53.62 10.77 C 54.72 10.42 55.93 10.73 56.68 11.62 C 57.69 12.85 58.62 14.149999999999999 59.44 15.53 L 60.03 16.54 C 60.78 17.9 61.44 19.34 61.99 20.83 L 61.99 20.83 Z M 0 0 M 32 42 C 37.53 42 42 37.53 42 31.89 C 42 26.25 37.53 21.89 32 21.89 C 26.47 21.89 22 26.48 22 31.89 C 22 37.3 26.48 42 32 42 Z" stroke-miterlimit="10" stroke-width="2" stroke-dasharray=""/></g></g></g><g transform="matrix(1,0,0,1,224,6)"><g><path fill="white" stroke="white" paint-order="fill stroke markers" d=" M 9 0 L 11 0 L 10.999999999999998 0 A 9 9 0 0 1 20 9 L 20 11 L 20 11 A 9 9 0 0 1 11 20 L 9 20 L 9 20 A 9 9 0 0 1 0 11.000000000000002 L 0 9 L 0 9.000000000000002 A 9 9 0 0 1 8.999999999999998 0 Z" fill-opacity="0.001" stroke-miterlimit="10" stroke-opacity="0.001" stroke-dasharray=""/></g><g transform="matrix(2,0,0,2,0,0)"><path fill="#CCC" stroke="none" paint-order="stroke fill markers" d=" M 0 0 M 2.175 3.286 C 1.743 3.286 1.394 3.637 1.394 4.067 C 1.394 4.498 1.745 4.849 2.175 4.849 C 2.605 4.849 2.956 4.498 2.956 4.067 C 2.956 3.637 2.606 3.286 2.175 3.286 Z M 0 0 M 2.175 4.38 C 2.003 4.38 1.863 4.239 1.863 4.067 C 1.863 3.896 2.003 3.755 2.175 3.755 C 2.346 3.755 2.487 3.896 2.487 4.067 C 2.487 4.239 2.346 4.38 2.175 4.38 Z M 0 0 M 1.875 0.312 C 1.185 0.312 0.625 0.873 0.625 1.563 C 0.625 2.254 1.185 2.813 1.875 2.813 C 2.565 2.813 3.125 2.253 3.125 1.563 C 3.125 0.874 2.565 0.312 1.875 0.312 Z M 0 0 M 1.875 2.032 C 1.616 2.032 1.406 1.822 1.406 1.563 C 1.406 1.304 1.616 1.094 1.875 1.094 C 2.134 1.094 2.344 1.304 2.344 1.563 C 2.344 1.822 2.134 2.032 1.875 2.032 Z M 0 0 M 8.641 2.285 L 7.704 2.208 C 7.665 2.085 7.683 2.121 7.626 2 C 7.75 1.829 8.078 1.493 8.205 1.321 C 8.222 1.296 8.235 1.269 8.235 1.238 C 8.235 1.115 7.716 0.64 7.603 0.535 C 7.577 0.513 7.546 0.5 7.511 0.5 C 7.48 0.5 7.449 0.509 7.423 0.53 L 6.772 1.1 C 6.666 1.047 6.65 1.047 6.535 1.012 L 6.475 0.112 C 6.47 0.048 6.408 0 6.346 0 L 5.53 0 C 5.469 0 5.416 0.044 5.399 0.106 C 5.343 0.32 5.371 0.796 5.348 1.017 C 5.23 1.056 5.241 1.065 5.129 1.122 L 4.452 0.528 C 4.427 0.511 4.395 0.498 4.36 0.498 C 4.233 0.498 3.74 1.031 3.654 1.149 C 3.631 1.174 3.623 1.205 3.623 1.235 C 3.623 1.266 3.637 1.297 3.654 1.322 C 3.793 1.489 4.098 1.773 4.22 1.949 C 4.164 2.059 4.173 2.109 4.137 2.226 L 3.227 2.269 C 3.17 2.278 3.126 2.345 3.126 2.401 L 3.125 3.213 C 3.125 3.276 3.169 3.332 3.23 3.342 L 4.15 3.402 C 4.189 3.524 4.18 3.485 4.242 3.605 C 4.115 3.776 3.793 4.143 3.666 4.309 C 3.648 4.334 3.636 4.361 3.636 4.392 C 3.636 4.52 4.155 4.99 4.269 5.094 C 4.294 5.117 4.325 5.129 4.36 5.129 C 4.39 5.129 4.427 5.121 4.447 5.1 L 5.094 4.495 C 5.2 4.548 5.209 4.543 5.325 4.578 L 5.397 5.515 C 5.406 5.577 5.468 5.625 5.528 5.625 L 6.345 5.625 C 6.406 5.625 6.459 5.581 6.475 5.52 C 6.532 5.304 6.491 4.804 6.513 4.577 C 6.631 4.542 6.62 4.536 6.732 4.479 L 7.423 5.095 C 7.448 5.113 7.479 5.126 7.514 5.126 C 7.642 5.126 8.135 4.589 8.221 4.472 C 8.244 4.449 8.252 4.419 8.252 4.388 C 8.252 4.353 8.238 4.327 8.221 4.302 C 8.082 4.135 7.714 3.824 7.591 3.649 C 7.647 3.54 7.637 3.542 7.672 3.426 L 8.648 3.353 C 8.705 3.345 8.749 3.278 8.749 3.222 L 8.749 2.41 C 8.747 2.355 8.703 2.297 8.641 2.285 Z M 0 0 M 5.92 3.919 C 5.317 3.919 4.822 3.427 4.822 2.819 C 4.822 2.212 5.314 1.72 5.92 1.72 C 6.528 1.72 7.02 2.212 7.02 2.819 C 7.02 3.427 6.528 3.919 5.92 3.919 Z M 0 0 M 8.435 6.25 C 7.941 5.757 7.497 6.25 7.497 6.25 L 5.622 8.125 L 3.728 8.125 C 3.728 8.125 3.415 8.125 3.415 7.813 C 3.415 7.5 3.747 7.5 3.747 7.5 L 5.31 7.5 C 5.31 7.5 5.622 7.5 5.622 7.187 C 5.622 6.875 5.31 6.875 5.31 6.875 L 1.882 6.87 C 1.683 6.865 1.305 6.905 0.944 7.304 L 0 8.301 L 1.872 10 L 2.497 9.374 L 6.117 9.374 C 6.2 9.374 6.28 9.342 6.339 9.283 L 6.872 8.75 L 8.435 7.187 C 8.435 7.187 8.927 6.743 8.435 6.25 Z"/></g></g><g transform="matrix(1,0,0,1,117,70)"><g><path fill="white" stroke="white" paint-order="fill stroke markers" d=" M 9 0 L 11 0 L 10.999999999999998 0 A 9 9 0 0 1 20 9 L 20 11 L 20 11 A 9 9 0 0 1 11 20 L 9 20 L 9 20 A 9 9 0 0 1 0 11.000000000000002 L 0 9 L 0 9.000000000000002 A 9 9 0 0 1 8.999999999999998 0 Z" fill-opacity="0.001" stroke-miterlimit="10" stroke-opacity="0.001" stroke-dasharray=""/></g><g><path fill="#4F5255" stroke="#4F5255" paint-order="fill stroke markers" d=" M 0 0 M 15.26 3.1 L 0.42 3.1 C 0.189 3.1 0 2.911 0 2.68 L 0 1.56 C 0 1.329 0.189 1.14 0.42 1.14 L 15.26 1.14 C 15.491 1.14 15.68 1.329 15.68 1.56 L 15.68 2.68 C 15.68 2.911 15.491 3.1 15.26 3.1 Z M 0 0 M 15.26 8.7 L 0.42 8.7 C 0.189 8.7 0 8.511 0 8.28 L 0 7.16 C 0 6.929 0.189 6.74 0.42 6.74 L 15.26 6.74 C 15.491 6.74 15.68 6.929 15.68 7.16 L 15.68 8.28 C 15.68 8.511 15.491 8.7 15.26 8.7 Z M 0 0 M 15.26 14.3 L 0.42 14.3 C 0.189 14.3 0 14.111 0 13.88 L 0 12.76 C 0 12.529 0.189 12.34 0.42 12.34 L 15.26 12.34 C 15.491 12.34 15.68 12.529 15.68 12.76 L 15.68 13.88 C 15.68 14.111 15.491 14.3 15.26 14.3 Z" stroke-miterlimit="10" stroke-dasharray=""/></g></g><g transform="matrix(1,0,0,1,80,24)"><text fill="#383B3D" stroke="none" font-family="Open Sans" font-size="12pt" font-style="normal" font-weight="normal" text-decoration="normal" x="70.52734375" y="12" text-anchor="middle" dominant-baseline="central">PrintTransformatio</text><text fill="#383B3D" stroke="none" font-family="Open Sans" font-size="12pt" font-style="normal" font-weight="normal" text-decoration="normal" x="70.52734375" y="27" text-anchor="middle" dominant-baseline="central">      nIdMessage      </text></g></g><g id="_3205FA5C-4044-45C2-9C7F-5055A416C6F4" transform="matrix(1,0,0,1,202,1314)"><g><path fill="#fff" stroke="#ccc" id="_3205FA5C-4044-45C2-9C7F-5055A416C6F4?shapeType=BACKGROUND" paint-order="fill stroke markers" d=" M 0 5 L 0 5 L 0 5.000000000000001 A 5 5 0 0 1 5 0 L 245 0 L 245 0 L 245 0 A 5 5 0 0 1 250 5 L 250 85 L 250 85 L 250 85 A 5 5 0 0 1 245 90 L 5 90 L 5 90 L 5 90 A 5 5 0 0 1 0 85 Z" stroke-miterlimit="10" stroke-width="2" stroke-dasharray=""/></g><g transform="matrix(1,0,0,1,45,46)"><g id="_3205FA5C-4044-45C2-9C7F-5055A416C6F4"><path fill="#0066CC" stroke="#d5d5d5" id="_3205FA5C-4044-45C2-9C7F-5055A416C6F4" paint-order="fill stroke markers" d=" M 0 -25 L 0 -25 L 1.5308084989341915e-15 -25 A 25 25 0 0 1 25 0 L 25 0 L 25 0 A 25 25 0 0 1 1.5308084989341915e-15 25 L 0 25 L 1.5308084989341915e-15 25 A 25 25 0 0 1 -25 3.061616997868383e-15 L -25 0 L -25 3.061616997868383e-15 A 25 25 0 0 1 1.5308084989341915e-15 -25 Z" stroke-miterlimit="10" stroke-dasharray=""/></g><g><g transform="matrix(0.35,0,0,0.35,-11,-11)"><path fill="#fff" stroke="#fff" paint-order="fill stroke markers" d=" M 0 0 M 61.99 20.83 C 62.4 21.9 62.050000000000004 23.119999999999997 61.2 23.9 L 55.790000000000006 28.83 C 55.93000000000001 29.869999999999997 56.00000000000001 30.93 56.00000000000001 32 C 56.00000000000001 33.07 55.92000000000001 34.14 55.790000000000006 35.17 L 61.2 40.09 C 62.050000000000004 40.88 62.400000000000006 42.09 61.99 43.17 C 61.440000000000005 44.660000000000004 60.78 46.09 60.03 47.46 L 59.44 48.47 C 58.61 49.85 57.69 51.15 56.68 52.379999999999995 C 55.93 53.269999999999996 54.72 53.58 53.62 53.23 L 46.66 51.01 C 44.98 52.3 43.019999999999996 53.37 41.16 54.199999999999996 L 39.599999999999994 61.339999999999996 C 39.349999999999994 62.459999999999994 38.48 63.26 37.31999999999999 63.559999999999995 C 35.599999999999994 63.849999999999994 33.81999999999999 63.99999999999999 31.89999999999999 63.99999999999999 C 30.199999999999992 63.99999999999999 28.41999999999999 63.849999999999994 26.699999999999992 63.559999999999995 C 25.549999999999994 63.26 24.679999999999993 62.459999999999994 24.429999999999993 61.339999999999996 L 22.869999999999994 54.199999999999996 C 20.889999999999993 53.37 19.039999999999992 52.3 17.369999999999994 51.01 L 10.409999999999993 53.23 C 9.309999999999993 53.58 8.089999999999993 53.269999999999996 7.3499999999999925 52.379999999999995 C 6.339999999999993 51.13999999999999 5.409999999999993 49.839999999999996 4.589999999999993 48.47 L 3.999999999999993 47.46 C 3.239999999999993 46.1 2.579999999999993 44.660000000000004 2.029999999999993 43.17 C 1.6299999999999932 42.09 1.969999999999993 40.88 2.819999999999993 40.09 L 8.229999999999993 35.17 C 8.089999999999993 34.13 8.019999999999992 33.07 8.019999999999992 32 C 8.019999999999992 30.93 8.089999999999993 29.86 8.229999999999993 28.83 L 2.819999999999993 23.9 C 1.9599999999999933 23.11 1.6199999999999932 21.91 2.029999999999993 20.83 C 2.579999999999993 19.34 3.249999999999993 17.9 3.999999999999993 16.54 L 4.579999999999993 15.53 C 5.409999999999993 14.149999999999999 6.329999999999993 12.86 7.3499999999999925 11.62 C 8.089999999999993 10.729999999999999 9.309999999999992 10.42 10.409999999999993 10.77 L 17.369999999999994 12.99 C 19.039999999999992 11.7 20.889999999999993 10.620000000000001 22.869999999999994 9.81 L 24.429999999999993 2.670000000000001 C 24.679999999999993 1.540000000000001 25.549999999999994 0.6300000000000008 26.699999999999992 0.44000000000000083 C 28.429999999999993 0.15000000000000085 30.199999999999992 8.326672684688674e-16 32.00999999999999 8.326672684688674e-16 C 33.81999999999999 8.326672684688674e-16 35.599999999999994 0.15000000000000083 37.31999999999999 0.44000000000000083 C 38.46999999999999 0.6300000000000008 39.349999999999994 1.530000000000001 39.599999999999994 2.670000000000001 L 41.16 9.81 C 43.019999999999996 10.63 44.98 11.700000000000001 46.66 12.99 L 53.62 10.77 C 54.72 10.42 55.93 10.73 56.68 11.62 C 57.69 12.85 58.62 14.149999999999999 59.44 15.53 L 60.03 16.54 C 60.78 17.9 61.44 19.34 61.99 20.83 L 61.99 20.83 Z M 0 0 M 32 42 C 37.53 42 42 37.53 42 31.89 C 42 26.25 37.53 21.89 32 21.89 C 26.47 21.89 22 26.48 22 31.89 C 22 37.3 26.48 42 32 42 Z" stroke-miterlimit="10" stroke-width="2" stroke-dasharray=""/></g></g></g><g transform="matrix(1,0,0,1,224,6)"><g><path fill="white" stroke="white" paint-order="fill stroke markers" d=" M 9 0 L 11 0 L 10.999999999999998 0 A 9 9 0 0 1 20 9 L 20 11 L 20 11 A 9 9 0 0 1 11 20 L 9 20 L 9 20 A 9 9 0 0 1 0 11.000000000000002 L 0 9 L 0 9.000000000000002 A 9 9 0 0 1 8.999999999999998 0 Z" fill-opacity="0.001" stroke-miterlimit="10" stroke-opacity="0.001" stroke-dasharray=""/></g><g transform="matrix(2,0,0,2,0,0)"><path fill="#CCC" stroke="none" paint-order="stroke fill markers" d=" M 0 0 M 2.175 3.286 C 1.743 3.286 1.394 3.637 1.394 4.067 C 1.394 4.498 1.745 4.849 2.175 4.849 C 2.605 4.849 2.956 4.498 2.956 4.067 C 2.956 3.637 2.606 3.286 2.175 3.286 Z M 0 0 M 2.175 4.38 C 2.003 4.38 1.863 4.239 1.863 4.067 C 1.863 3.896 2.003 3.755 2.175 3.755 C 2.346 3.755 2.487 3.896 2.487 4.067 C 2.487 4.239 2.346 4.38 2.175 4.38 Z M 0 0 M 1.875 0.312 C 1.185 0.312 0.625 0.873 0.625 1.563 C 0.625 2.254 1.185 2.813 1.875 2.813 C 2.565 2.813 3.125 2.253 3.125 1.563 C 3.125 0.874 2.565 0.312 1.875 0.312 Z M 0 0 M 1.875 2.032 C 1.616 2.032 1.406 1.822 1.406 1.563 C 1.406 1.304 1.616 1.094 1.875 1.094 C 2.134 1.094 2.344 1.304 2.344 1.563 C 2.344 1.822 2.134 2.032 1.875 2.032 Z M 0 0 M 8.641 2.285 L 7.704 2.208 C 7.665 2.085 7.683 2.121 7.626 2 C 7.75 1.829 8.078 1.493 8.205 1.321 C 8.222 1.296 8.235 1.269 8.235 1.238 C 8.235 1.115 7.716 0.64 7.603 0.535 C 7.577 0.513 7.546 0.5 7.511 0.5 C 7.48 0.5 7.449 0.509 7.423 0.53 L 6.772 1.1 C 6.666 1.047 6.65 1.047 6.535 1.012 L 6.475 0.112 C 6.47 0.048 6.408 0 6.346 0 L 5.53 0 C 5.469 0 5.416 0.044 5.399 0.106 C 5.343 0.32 5.371 0.796 5.348 1.017 C 5.23 1.056 5.241 1.065 5.129 1.122 L 4.452 0.528 C 4.427 0.511 4.395 0.498 4.36 0.498 C 4.233 0.498 3.74 1.031 3.654 1.149 C 3.631 1.174 3.623 1.205 3.623 1.235 C 3.623 1.266 3.637 1.297 3.654 1.322 C 3.793 1.489 4.098 1.773 4.22 1.949 C 4.164 2.059 4.173 2.109 4.137 2.226 L 3.227 2.269 C 3.17 2.278 3.126 2.345 3.126 2.401 L 3.125 3.213 C 3.125 3.276 3.169 3.332 3.23 3.342 L 4.15 3.402 C 4.189 3.524 4.18 3.485 4.242 3.605 C 4.115 3.776 3.793 4.143 3.666 4.309 C 3.648 4.334 3.636 4.361 3.636 4.392 C 3.636 4.52 4.155 4.99 4.269 5.094 C 4.294 5.117 4.325 5.129 4.36 5.129 C 4.39 5.129 4.427 5.121 4.447 5.1 L 5.094 4.495 C 5.2 4.548 5.209 4.543 5.325 4.578 L 5.397 5.515 C 5.406 5.577 5.468 5.625 5.528 5.625 L 6.345 5.625 C 6.406 5.625 6.459 5.581 6.475 5.52 C 6.532 5.304 6.491 4.804 6.513 4.577 C 6.631 4.542 6.62 4.536 6.732 4.479 L 7.423 5.095 C 7.448 5.113 7.479 5.126 7.514 5.126 C 7.642 5.126 8.135 4.589 8.221 4.472 C 8.244 4.449 8.252 4.419 8.252 4.388 C 8.252 4.353 8.238 4.327 8.221 4.302 C 8.082 4.135 7.714 3.824 7.591 3.649 C 7.647 3.54 7.637 3.542 7.672 3.426 L 8.648 3.353 C 8.705 3.345 8.749 3.278 8.749 3.222 L 8.749 2.41 C 8.747 2.355 8.703 2.297 8.641 2.285 Z M 0 0 M 5.92 3.919 C 5.317 3.919 4.822 3.427 4.822 2.819 C 4.822 2.212 5.314 1.72 5.92 1.72 C 6.528 1.72 7.02 2.212 7.02 2.819 C 7.02 3.427 6.528 3.919 5.92 3.919 Z M 0 0 M 8.435 6.25 C 7.941 5.757 7.497 6.25 7.497 6.25 L 5.622 8.125 L 3.728 8.125 C 3.728 8.125 3.415 8.125 3.415 7.813 C 3.415 7.5 3.747 7.5 3.747 7.5 L 5.31 7.5 C 5.31 7.5 5.622 7.5 5.622 7.187 C 5.622 6.875 5.31 6.875 5.31 6.875 L 1.882 6.87 C 1.683 6.865 1.305 6.905 0.944 7.304 L 0 8.301 L 1.872 10 L 2.497 9.374 L 6.117 9.374 C 6.2 9.374 6.28 9.342 6.339 9.283 L 6.872 8.75 L 8.435 7.187 C 8.435 7.187 8.927 6.743 8.435 6.25 Z"/></g></g><g transform="matrix(1,0,0,1,117,70)"><g><path fill="white" stroke="white" paint-order="fill stroke markers" d=" M 9 0 L 11 0 L 10.999999999999998 0 A 9 9 0 0 1 20 9 L 20 11 L 20 11 A 9 9 0 0 1 11 20 L 9 20 L 9 20 A 9 9 0 0 1 0 11.000000000000002 L 0 9 L 0 9.000000000000002 A 9 9 0 0 1 8.999999999999998 0 Z" fill-opacity="0.001" stroke-miterlimit="10" stroke-opacity="0.001" stroke-dasharray=""/></g><g><path fill="#4F5255" stroke="#4F5255" paint-order="fill stroke markers" d=" M 0 0 M 15.26 3.1 L 0.42 3.1 C 0.189 3.1 0 2.911 0 2.68 L 0 1.56 C 0 1.329 0.189 1.14 0.42 1.14 L 15.26 1.14 C 15.491 1.14 15.68 1.329 15.68 1.56 L 15.68 2.68 C 15.68 2.911 15.491 3.1 15.26 3.1 Z M 0 0 M 15.26 8.7 L 0.42 8.7 C 0.189 8.7 0 8.511 0 8.28 L 0 7.16 C 0 6.929 0.189 6.74 0.42 6.74 L 15.26 6.74 C 15.491 6.74 15.68 6.929 15.68 7.16 L 15.68 8.28 C 15.68 8.511 15.491 8.7 15.26 8.7 Z M 0 0 M 15.26 14.3 L 0.42 14.3 C 0.189 14.3 0 14.111 0 13.88 L 0 12.76 C 0 12.529 0.189 12.34 0.42 12.34 L 15.26 12.34 C 15.491 12.34 15.68 12.529 15.68 12.76 L 15.68 13.88 C 15.68 14.111 15.491 14.3 15.26 14.3 Z" stroke-miterlimit="10" stroke-dasharray=""/></g></g><g transform="matrix(1,0,0,1,80,24)"><text fill="#383B3D" stroke="none" font-family="Open Sans" font-size="12pt" font-style="normal" font-weight="normal" text-decoration="normal" x="70.30859375" y="12" text-anchor="middle" dominant-baseline="central">NotifyTransformati</text><text fill="#383B3D" stroke="none" font-family="Open Sans" font-size="12pt" font-style="normal" font-weight="normal" text-decoration="normal" x="70.30859375" y="27" text-anchor="middle" dominant-baseline="central">        onWaiting        </text></g></g><g id="_7BDB9731-3D0C-4B66-A0FD-08E57A0C66DD" transform="matrix(1,0,0,1,202,1531)"><g><path fill="#fff" stroke="#ccc" id="_7BDB9731-3D0C-4B66-A0FD-08E57A0C66DD?shapeType=BACKGROUND" paint-order="fill stroke markers" d=" M 0 5 L 0 5 L 0 5.000000000000001 A 5 5 0 0 1 5 0 L 245 0 L 245 0 L 245 0 A 5 5 0 0 1 250 5 L 250 85 L 250 85 L 250 85 A 5 5 0 0 1 245 90 L 5 90 L 5 90 L 5 90 A 5 5 0 0 1 0 85 Z" stroke-miterlimit="10" stroke-width="2" stroke-dasharray=""/></g><g transform="matrix(1,0,0,1,45,46)"><g id="_7BDB9731-3D0C-4B66-A0FD-08E57A0C66DD"><path fill="#0066CC" stroke="#d5d5d5" id="_7BDB9731-3D0C-4B66-A0FD-08E57A0C66DD" paint-order="fill stroke markers" d=" M 0 -25 L 0 -25 L 1.5308084989341915e-15 -25 A 25 25 0 0 1 25 0 L 25 0 L 25 0 A 25 25 0 0 1 1.5308084989341915e-15 25 L 0 25 L 1.5308084989341915e-15 25 A 25 25 0 0 1 -25 3.061616997868383e-15 L -25 0 L -25 3.061616997868383e-15 A 25 25 0 0 1 1.5308084989341915e-15 -25 Z" stroke-miterlimit="10" stroke-dasharray=""/></g><g><g transform="matrix(0.35,0,0,0.35,-11,-11)"><path fill="#fff" stroke="#fff" paint-order="fill stroke markers" d=" M 0 0 M 61.99 20.83 C 62.4 21.9 62.050000000000004 23.119999999999997 61.2 23.9 L 55.790000000000006 28.83 C 55.93000000000001 29.869999999999997 56.00000000000001 30.93 56.00000000000001 32 C 56.00000000000001 33.07 55.92000000000001 34.14 55.790000000000006 35.17 L 61.2 40.09 C 62.050000000000004 40.88 62.400000000000006 42.09 61.99 43.17 C 61.440000000000005 44.660000000000004 60.78 46.09 60.03 47.46 L 59.44 48.47 C 58.61 49.85 57.69 51.15 56.68 52.379999999999995 C 55.93 53.269999999999996 54.72 53.58 53.62 53.23 L 46.66 51.01 C 44.98 52.3 43.019999999999996 53.37 41.16 54.199999999999996 L 39.599999999999994 61.339999999999996 C 39.349999999999994 62.459999999999994 38.48 63.26 37.31999999999999 63.559999999999995 C 35.599999999999994 63.849999999999994 33.81999999999999 63.99999999999999 31.89999999999999 63.99999999999999 C 30.199999999999992 63.99999999999999 28.41999999999999 63.849999999999994 26.699999999999992 63.559999999999995 C 25.549999999999994 63.26 24.679999999999993 62.459999999999994 24.429999999999993 61.339999999999996 L 22.869999999999994 54.199999999999996 C 20.889999999999993 53.37 19.039999999999992 52.3 17.369999999999994 51.01 L 10.409999999999993 53.23 C 9.309999999999993 53.58 8.089999999999993 53.269999999999996 7.3499999999999925 52.379999999999995 C 6.339999999999993 51.13999999999999 5.409999999999993 49.839999999999996 4.589999999999993 48.47 L 3.999999999999993 47.46 C 3.239999999999993 46.1 2.579999999999993 44.660000000000004 2.029999999999993 43.17 C 1.6299999999999932 42.09 1.969999999999993 40.88 2.819999999999993 40.09 L 8.229999999999993 35.17 C 8.089999999999993 34.13 8.019999999999992 33.07 8.019999999999992 32 C 8.019999999999992 30.93 8.089999999999993 29.86 8.229999999999993 28.83 L 2.819999999999993 23.9 C 1.9599999999999933 23.11 1.6199999999999932 21.91 2.029999999999993 20.83 C 2.579999999999993 19.34 3.249999999999993 17.9 3.999999999999993 16.54 L 4.579999999999993 15.53 C 5.409999999999993 14.149999999999999 6.329999999999993 12.86 7.3499999999999925 11.62 C 8.089999999999993 10.729999999999999 9.309999999999992 10.42 10.409999999999993 10.77 L 17.369999999999994 12.99 C 19.039999999999992 11.7 20.889999999999993 10.620000000000001 22.869999999999994 9.81 L 24.429999999999993 2.670000000000001 C 24.679999999999993 1.540000000000001 25.549999999999994 0.6300000000000008 26.699999999999992 0.44000000000000083 C 28.429999999999993 0.15000000000000085 30.199999999999992 8.326672684688674e-16 32.00999999999999 8.326672684688674e-16 C 33.81999999999999 8.326672684688674e-16 35.599999999999994 0.15000000000000083 37.31999999999999 0.44000000000000083 C 38.46999999999999 0.6300000000000008 39.349999999999994 1.530000000000001 39.599999999999994 2.670000000000001 L 41.16 9.81 C 43.019999999999996 10.63 44.98 11.700000000000001 46.66 12.99 L 53.62 10.77 C 54.72 10.42 55.93 10.73 56.68 11.62 C 57.69 12.85 58.62 14.149999999999999 59.44 15.53 L 60.03 16.54 C 60.78 17.9 61.44 19.34 61.99 20.83 L 61.99 20.83 Z M 0 0 M 32 42 C 37.53 42 42 37.53 42 31.89 C 42 26.25 37.53 21.89 32 21.89 C 26.47 21.89 22 26.48 22 31.89 C 22 37.3 26.48 42 32 42 Z" stroke-miterlimit="10" stroke-width="2" stroke-dasharray=""/></g></g></g><g transform="matrix(1,0,0,1,224,6)"><g><path fill="white" stroke="white" paint-order="fill stroke markers" d=" M 9 0 L 11 0 L 10.999999999999998 0 A 9 9 0 0 1 20 9 L 20 11 L 20 11 A 9 9 0 0 1 11 20 L 9 20 L 9 20 A 9 9 0 0 1 0 11.000000000000002 L 0 9 L 0 9.000000000000002 A 9 9 0 0 1 8.999999999999998 0 Z" fill-opacity="0.001" stroke-miterlimit="10" stroke-opacity="0.001" stroke-dasharray=""/></g><g transform="matrix(2,0,0,2,0,0)"><path fill="#CCC" stroke="none" paint-order="stroke fill markers" d=" M 0 0 M 2.175 3.286 C 1.743 3.286 1.394 3.637 1.394 4.067 C 1.394 4.498 1.745 4.849 2.175 4.849 C 2.605 4.849 2.956 4.498 2.956 4.067 C 2.956 3.637 2.606 3.286 2.175 3.286 Z M 0 0 M 2.175 4.38 C 2.003 4.38 1.863 4.239 1.863 4.067 C 1.863 3.896 2.003 3.755 2.175 3.755 C 2.346 3.755 2.487 3.896 2.487 4.067 C 2.487 4.239 2.346 4.38 2.175 4.38 Z M 0 0 M 1.875 0.312 C 1.185 0.312 0.625 0.873 0.625 1.563 C 0.625 2.254 1.185 2.813 1.875 2.813 C 2.565 2.813 3.125 2.253 3.125 1.563 C 3.125 0.874 2.565 0.312 1.875 0.312 Z M 0 0 M 1.875 2.032 C 1.616 2.032 1.406 1.822 1.406 1.563 C 1.406 1.304 1.616 1.094 1.875 1.094 C 2.134 1.094 2.344 1.304 2.344 1.563 C 2.344 1.822 2.134 2.032 1.875 2.032 Z M 0 0 M 8.641 2.285 L 7.704 2.208 C 7.665 2.085 7.683 2.121 7.626 2 C 7.75 1.829 8.078 1.493 8.205 1.321 C 8.222 1.296 8.235 1.269 8.235 1.238 C 8.235 1.115 7.716 0.64 7.603 0.535 C 7.577 0.513 7.546 0.5 7.511 0.5 C 7.48 0.5 7.449 0.509 7.423 0.53 L 6.772 1.1 C 6.666 1.047 6.65 1.047 6.535 1.012 L 6.475 0.112 C 6.47 0.048 6.408 0 6.346 0 L 5.53 0 C 5.469 0 5.416 0.044 5.399 0.106 C 5.343 0.32 5.371 0.796 5.348 1.017 C 5.23 1.056 5.241 1.065 5.129 1.122 L 4.452 0.528 C 4.427 0.511 4.395 0.498 4.36 0.498 C 4.233 0.498 3.74 1.031 3.654 1.149 C 3.631 1.174 3.623 1.205 3.623 1.235 C 3.623 1.266 3.637 1.297 3.654 1.322 C 3.793 1.489 4.098 1.773 4.22 1.949 C 4.164 2.059 4.173 2.109 4.137 2.226 L 3.227 2.269 C 3.17 2.278 3.126 2.345 3.126 2.401 L 3.125 3.213 C 3.125 3.276 3.169 3.332 3.23 3.342 L 4.15 3.402 C 4.189 3.524 4.18 3.485 4.242 3.605 C 4.115 3.776 3.793 4.143 3.666 4.309 C 3.648 4.334 3.636 4.361 3.636 4.392 C 3.636 4.52 4.155 4.99 4.269 5.094 C 4.294 5.117 4.325 5.129 4.36 5.129 C 4.39 5.129 4.427 5.121 4.447 5.1 L 5.094 4.495 C 5.2 4.548 5.209 4.543 5.325 4.578 L 5.397 5.515 C 5.406 5.577 5.468 5.625 5.528 5.625 L 6.345 5.625 C 6.406 5.625 6.459 5.581 6.475 5.52 C 6.532 5.304 6.491 4.804 6.513 4.577 C 6.631 4.542 6.62 4.536 6.732 4.479 L 7.423 5.095 C 7.448 5.113 7.479 5.126 7.514 5.126 C 7.642 5.126 8.135 4.589 8.221 4.472 C 8.244 4.449 8.252 4.419 8.252 4.388 C 8.252 4.353 8.238 4.327 8.221 4.302 C 8.082 4.135 7.714 3.824 7.591 3.649 C 7.647 3.54 7.637 3.542 7.672 3.426 L 8.648 3.353 C 8.705 3.345 8.749 3.278 8.749 3.222 L 8.749 2.41 C 8.747 2.355 8.703 2.297 8.641 2.285 Z M 0 0 M 5.92 3.919 C 5.317 3.919 4.822 3.427 4.822 2.819 C 4.822 2.212 5.314 1.72 5.92 1.72 C 6.528 1.72 7.02 2.212 7.02 2.819 C 7.02 3.427 6.528 3.919 5.92 3.919 Z M 0 0 M 8.435 6.25 C 7.941 5.757 7.497 6.25 7.497 6.25 L 5.622 8.125 L 3.728 8.125 C 3.728 8.125 3.415 8.125 3.415 7.813 C 3.415 7.5 3.747 7.5 3.747 7.5 L 5.31 7.5 C 5.31 7.5 5.622 7.5 5.622 7.187 C 5.622 6.875 5.31 6.875 5.31 6.875 L 1.882 6.87 C 1.683 6.865 1.305 6.905 0.944 7.304 L 0 8.301 L 1.872 10 L 2.497 9.374 L 6.117 9.374 C 6.2 9.374 6.28 9.342 6.339 9.283 L 6.872 8.75 L 8.435 7.187 C 8.435 7.187 8.927 6.743 8.435 6.25 Z"/></g></g><g transform="matrix(1,0,0,1,117,70)"><g><path fill="white" stroke="white" paint-order="fill stroke markers" d=" M 9 0 L 11 0 L 10.999999999999998 0 A 9 9 0 0 1 20 9 L 20 11 L 20 11 A 9 9 0 0 1 11 20 L 9 20 L 9 20 A 9 9 0 0 1 0 11.000000000000002 L 0 9 L 0 9.000000000000002 A 9 9 0 0 1 8.999999999999998 0 Z" fill-opacity="0.001" stroke-miterlimit="10" stroke-opacity="0.001" stroke-dasharray=""/></g><g><path fill="#4F5255" stroke="#4F5255" paint-order="fill stroke markers" d=" M 0 0 M 15.26 3.1 L 0.42 3.1 C 0.189 3.1 0 2.911 0 2.68 L 0 1.56 C 0 1.329 0.189 1.14 0.42 1.14 L 15.26 1.14 C 15.491 1.14 15.68 1.329 15.68 1.56 L 15.68 2.68 C 15.68 2.911 15.491 3.1 15.26 3.1 Z M 0 0 M 15.26 8.7 L 0.42 8.7 C 0.189 8.7 0 8.511 0 8.28 L 0 7.16 C 0 6.929 0.189 6.74 0.42 6.74 L 15.26 6.74 C 15.491 6.74 15.68 6.929 15.68 7.16 L 15.68 8.28 C 15.68 8.511 15.491 8.7 15.26 8.7 Z M 0 0 M 15.26 14.3 L 0.42 14.3 C 0.189 14.3 0 14.111 0 13.88 L 0 12.76 C 0 12.529 0.189 12.34 0.42 12.34 L 15.26 12.34 C 15.491 12.34 15.68 12.529 15.68 12.76 L 15.68 13.88 C 15.68 14.111 15.491 14.3 15.26 14.3 Z" stroke-miterlimit="10" stroke-dasharray=""/></g></g><g transform="matrix(1,0,0,1,80,24)"><text fill="#383B3D" stroke="none" font-family="Open Sans" font-size="12pt" font-style="normal" font-weight="normal" text-decoration="normal" x="70.0234375" y="12" text-anchor="middle" dominant-baseline="central">SaveTransformatio</text><text fill="#383B3D" stroke="none" font-family="Open Sans" font-size="12pt" font-style="normal" font-weight="normal" text-decoration="normal" x="70.0234375" y="27" text-anchor="middle" dominant-baseline="central">         nOutput          </text></g></g><g id="_FAB89DFC-7B9E-4DF4-ACE5-228818BF5CF8" transform="matrix(1,0,0,1,202,1748)"><g><path fill="#fff" stroke="#ccc" id="_FAB89DFC-7B9E-4DF4-ACE5-228818BF5CF8?shapeType=BACKGROUND" paint-order="fill stroke markers" d=" M 0 5 L 0 5 L 0 5.000000000000001 A 5 5 0 0 1 5 0 L 245 0 L 245 0 L 245 0 A 5 5 0 0 1 250 5 L 250 85 L 250 85 L 250 85 A 5 5 0 0 1 245 90 L 5 90 L 5 90 L 5 90 A 5 5 0 0 1 0 85 Z" stroke-miterlimit="10" stroke-width="2" stroke-dasharray=""/></g><g transform="matrix(1,0,0,1,45,46)"><g id="_FAB89DFC-7B9E-4DF4-ACE5-228818BF5CF8"><path fill="#009596" stroke="#d5d5d5" id="_FAB89DFC-7B9E-4DF4-ACE5-228818BF5CF8" paint-order="fill stroke markers" d=" M 0 -25 L 0 -25 L 1.5308084989341915e-15 -25 A 25 25 0 0 1 25 0 L 25 0 L 25 0 A 25 25 0 0 1 1.5308084989341915e-15 25 L 0 25 L 1.5308084989341915e-15 25 A 25 25 0 0 1 -25 3.061616997868383e-15 L -25 0 L -25 3.061616997868383e-15 A 25 25 0 0 1 1.5308084989341915e-15 -25 Z" stroke-miterlimit="10" stroke-dasharray=""/></g><g><g transform="matrix(0.35,0,0,0.35,-11,-11)"><path fill="#fff" stroke="#fff" paint-order="fill stroke markers" d=" M 0 0 M 60.6 46.54 L 54.07 46.54 L 54.07 37.83 C 54.01 36.449999999999996 53.35 35.14 52.24 34.309999999999995 L 44.82 28.749999999999996 L 44.82 28.749999999999996 L 36.41 22.389999999999997 L 36.41 4.4 C 36.4 1.87 34.26 -0.17 31.69 0.01 C 29.44 0.17 27.6 2.23 27.6 4.49 L 27.6 22.41 L 19.19 28.72 L 19.19 28.72 L 11.770000000000001 34.269999999999996 C 10.660000000000002 35.099999999999994 10.010000000000002 36.41 9.940000000000001 37.79 L 9.940000000000001 46.5 L 3.4 46.5 C 0.45999999999999996 46.47 -1.02 50.03 1.06 52.11 L 12.07 63 C 13.36 64.29 15.45 64.29 16.75 63 L 27.759999999999998 52.11 C 29.839999999999996 50.15 28.369999999999997 46.59 25.419999999999998 46.64 L 18.75 46.64 L 18.75 40.01 C 18.75 40.01 26.97 33.93 32.03 30.14 C 36.99 33.87 45.230000000000004 40.06 45.27 40.04 L 45.27 46.67 L 38.6 46.67 C 35.660000000000004 46.620000000000005 34.18 50.18 36.260000000000005 52.14 L 47.27 63.03 C 48.56 64.32000000000001 50.650000000000006 64.32000000000001 51.95 63.03 L 62.96 52.14 C 65.04 50.06 63.56 46.5 60.620000000000005 46.53 Z" stroke-miterlimit="10" stroke-width="2" stroke-dasharray=""/></g></g></g><g transform="matrix(1,0,0,1,202,6)"><g><path fill="white" stroke="white" paint-order="fill stroke markers" d=" M 9 0 L 11 0 L 10.999999999999998 0 A 9 9 0 0 1 20 9 L 20 11 L 20 11 A 9 9 0 0 1 11 20 L 9 20 L 9 20 A 9 9 0 0 1 0 11.000000000000002 L 0 9 L 0 9.000000000000002 A 9 9 0 0 1 8.999999999999998 0 Z" fill-opacity="0.001" stroke-miterlimit="10" stroke-opacity="0.001" stroke-dasharray=""/></g><g transform="matrix(2,0,0,2,0,0)"><path fill="#CCC" stroke="none" paint-order="stroke fill markers" d=" M 0 0 M 4.531 2.344 C 4.531 2.084 4.74 1.875 5 1.875 C 5.26 1.875 5.469 2.084 5.469 2.344 L 5.469 4.75 L 7.135 5.859 C 7.35 6.004 7.408 6.295 7.248 6.51 C 7.121 6.725 6.83 6.783 6.615 6.623 L 4.74 5.373 C 4.609 5.303 4.531 5.156 4.531 4.982 L 4.531 2.344 Z M 0 0 M 5 0 C 7.762 0 10 2.238 10 5 C 10 7.762 7.762 10 5 10 C 2.238 10 0 7.762 0 5 C 0 2.238 2.238 0 5 0 Z M 0 0 M 0.938 5 C 0.938 7.244 2.756 9.063 5 9.063 C 7.244 9.063 9.063 7.244 9.063 5 C 9.063 2.756 7.244 0.938 5 0.938 C 2.756 0.938 0.938 2.756 0.938 5 Z"/></g></g><g transform="matrix(1,0,0,1,224,6)"><g><path fill="white" stroke="white" paint-order="fill stroke markers" d=" M 9 0 L 11 0 L 10.999999999999998 0 A 9 9 0 0 1 20 9 L 20 11 L 20 11 A 9 9 0 0 1 11 20 L 9 20 L 9 20 A 9 9 0 0 1 0 11.000000000000002 L 0 9 L 0 9.000000000000002 A 9 9 0 0 1 8.999999999999998 0 Z" fill-opacity="0.001" stroke-miterlimit="10" stroke-opacity="0.001" stroke-dasharray=""/></g><g transform="matrix(2,0,0,2,0,0)"><path fill="#CCC" stroke="none" paint-order="stroke fill markers" d=" M 0 0 M 7.382 2.142 L 9.781 4.542 C 9.921 4.683 10 4.876 10 5.076 C 10 5.274 9.921 5.467 9.781 5.608 L 7.382 8.008 C 7.256 8.132 7.088 8.2 6.912 8.2 C 6.547 8.2 6.25 7.903 6.25 7.538 L 6.25 6.326 L 3.75 6.326 C 3.405 6.326 3.126 6.046 3.126 5.7 L 3.126 4.45 C 3.126 4.105 3.405 3.826 3.75 3.826 L 6.25 3.826 L 6.25 2.612 C 6.25 2.247 6.547 1.95 6.912 1.95 C 7.088 1.95 7.256 2.02 7.382 2.142 Z M 0 0 M 3.126 1.95 L 1.876 1.95 C 1.53 1.95 1.25 2.23 1.25 2.576 L 1.25 7.576 C 1.25 7.92 1.53 8.2 1.876 8.2 L 3.126 8.2 C 3.47 8.2 3.75 8.48 3.75 8.826 C 3.75 9.17 3.47 9.45 3.126 9.45 L 1.876 9.45 C 0.84 9.45 0 8.61 0 7.576 L 0 2.576 C 0 1.54 0.84 0.7 1.876 0.7 L 3.126 0.7 C 3.47 0.7 3.75 0.98 3.75 1.326 C 3.75 1.67 3.47 1.95 3.126 1.95 Z"/></g></g><g transform="matrix(1,0,0,1,80,16.5)"><text fill="#383B3D" stroke="none" font-family="Open Sans" font-size="12pt" font-style="normal" font-weight="normal" text-decoration="normal" x="73.95703125" y="12" text-anchor="middle" dominant-baseline="central">WaitForSaveTransfo</text><text fill="#383B3D" stroke="none" font-family="Open Sans" font-size="12pt" font-style="normal" font-weight="normal" text-decoration="normal" x="73.95703125" y="27" text-anchor="middle" dominant-baseline="central">rmationCompletion</text></g></g><g id="_028791F7-6F12-4025-BA89-7D5E4B7D5B7C" transform="matrix(1,0,0,1,50,1965)"><g><path fill="#fff" stroke="#ccc" id="_028791F7-6F12-4025-BA89-7D5E4B7D5B7C?shapeType=BACKGROUND" paint-order="fill stroke markers" d=" M 0 5 L 0 5 L 0 5.000000000000001 A 5 5 0 0 1 5 0 L 245 0 L 245 0 L 245 0 A 5 5 0 0 1 250 5 L 250 85 L 250 85 L 250 85 A 5 5 0 0 1 245 90 L 5 90 L 5 90 L 5 90 A 5 5 0 0 1 0 85 Z" stroke-miterlimit="10" stroke-width="2" stroke-dasharray=""/></g><g transform="matrix(1,0,0,1,45,46)"><g id="_028791F7-6F12-4025-BA89-7D5E4B7D5B7C"><path fill="#8BC1F7" stroke="#d5d5d5" id="_028791F7-6F12-4025-BA89-7D5E4B7D5B7C" paint-order="fill stroke markers" d=" M 0 -25 L 0 -25 L 1.5308084989341915e-15 -25 A 25 25 0 0 1 25 0 L 25 0 L 25 0 A 25 25 0 0 1 1.5308084989341915e-15 25 L 0 25 L 1.5308084989341915e-15 25 A 25 25 0 0 1 -25 3.061616997868383e-15 L -25 0 L -25 3.061616997868383e-15 A 25 25 0 0 1 1.5308084989341915e-15 -25 Z" stroke-miterlimit="10" stroke-dasharray=""/></g><g><g transform="matrix(0.35,0,0,0.35,-11,-11)"><path fill="#fff" stroke="#fff" paint-order="fill stroke markers" d=" M 0 0 M 35.02 28.49 C 35.02 28.49 34.99 28.459999999999997 34.970000000000006 28.45 L 24.680000000000007 18.16 C 22.900000000000006 16.38 20.000000000000007 16.37 18.220000000000006 18.16 C 16.430000000000007 19.95 16.440000000000005 22.84 18.220000000000006 24.62 L 21.030000000000005 27.43 L 4.57 27.43 C 2.0500000000000003 27.43 0 29.47 0 32 C 0 34.53 2.05 36.57 4.57 36.57 L 20.94 36.57 L 18.19 39.32 C 16.41 41.1 16.400000000000002 44 18.19 45.78 C 19.98 47.56 22.87 47.56 24.650000000000002 45.78 L 34.74 35.69 C 35.02 35.489999999999995 35.28 35.25 35.510000000000005 34.98 C 36.010000000000005 34.4 36.330000000000005 33.709999999999994 36.480000000000004 32.98 C 36.85 31.389999999999997 36.370000000000005 29.65 35.02 28.479999999999997 M 0.01 4.23 C 0.19 1.83 2.25 0 4.66 0 L 59.43 0 C 61.96 0 64 2.05 64 4.57 C 64 7.090000000000001 61.96 9.14 59.43 9.14 L 4.57 9.14 C 1.93 9.14 -0.18 6.91 0.01 4.23 M 46.09 18.29 L 59.330000000000005 18.29 C 61.67 18.29 63.82000000000001 20.2 63.980000000000004 22.53 C 64.17 25.21 62.06 27.43 59.42 27.43 L 45.99 27.43 C 43.35 27.43 41.24 25.21 41.43 22.53 C 41.589999999999996 20.19 43.74 18.29 46.08 18.29 M 59.43 36.57 C 62.07 36.57 64.18 38.79 63.99 41.47 C 63.830000000000005 43.81 61.68 45.71 59.34 45.71 L 46.1 45.71 C 43.760000000000005 45.71 41.61 43.800000000000004 41.45 41.47 C 41.260000000000005 38.79 43.370000000000005 36.57 46.010000000000005 36.57 L 59.440000000000005 36.57 M 0 59.43 C 0 56.9 2.05 54.86 4.57 54.86 L 59.34 54.86 C 61.68000000000001 54.86 63.830000000000005 56.769999999999996 63.99 59.1 C 64.18 61.78 62.07 64 59.43 64 L 4.57 64 C 2.0500000000000003 64 0 61.96 0 59.43 Z" stroke-miterlimit="10" stroke-width="2" stroke-dasharray=""/></g></g></g><g transform="matrix(1,0,0,1,80,24)"><text fill="#383B3D" stroke="none" font-family="Open Sans" font-size="12pt" font-style="normal" font-weight="normal" text-decoration="normal" x="70.4453125" y="12" text-anchor="middle" dominant-baseline="central">TransformationSav</text><text fill="#383B3D" stroke="none" font-family="Open Sans" font-size="12pt" font-style="normal" font-weight="normal" text-decoration="normal" x="70.4453125" y="27" text-anchor="middle" dominant-baseline="central">              ed               </text></g></g><g id="_44B8E0E4-B1D2-462E-9F7A-16D8BAB505A0" transform="matrix(1,0,0,1,354,1965)"><g><path fill="#fff" stroke="#ccc" id="_44B8E0E4-B1D2-462E-9F7A-16D8BAB505A0?shapeType=BACKGROUND" paint-order="fill stroke markers" d=" M 0 5 L 0 5 L 0 5.000000000000001 A 5 5 0 0 1 5 0 L 245 0 L 245 0 L 245 0 A 5 5 0 0 1 250 5 L 250 85 L 250 85 L 250 85 A 5 5 0 0 1 245 90 L 5 90 L 5 90 L 5 90 A 5 5 0 0 1 0 85 Z" stroke-miterlimit="10" stroke-width="2" stroke-dasharray=""/></g><g transform="matrix(1,0,0,1,45,46)"><g id="_44B8E0E4-B1D2-462E-9F7A-16D8BAB505A0"><path fill="#8BC1F7" stroke="#d5d5d5" id="_44B8E0E4-B1D2-462E-9F7A-16D8BAB505A0" paint-order="fill stroke markers" d=" M 0 -25 L 0 -25 L 1.5308084989341915e-15 -25 A 25 25 0 0 1 25 0 L 25 0 L 25 0 A 25 25 0 0 1 1.5308084989341915e-15 25 L 0 25 L 1.5308084989341915e-15 25 A 25 25 0 0 1 -25 3.061616997868383e-15 L -25 0 L -25 3.061616997868383e-15 A 25 25 0 0 1 1.5308084989341915e-15 -25 Z" stroke-miterlimit="10" stroke-dasharray=""/></g><g><g transform="matrix(0.35,0,0,0.35,-11,-11)"><path fill="#fff" stroke="#fff" paint-order="fill stroke markers" d=" M 0 0 M 35.02 28.49 C 35.02 28.49 34.99 28.459999999999997 34.970000000000006 28.45 L 24.680000000000007 18.16 C 22.900000000000006 16.38 20.000000000000007 16.37 18.220000000000006 18.16 C 16.430000000000007 19.95 16.440000000000005 22.84 18.220000000000006 24.62 L 21.030000000000005 27.43 L 4.57 27.43 C 2.0500000000000003 27.43 0 29.47 0 32 C 0 34.53 2.05 36.57 4.57 36.57 L 20.94 36.57 L 18.19 39.32 C 16.41 41.1 16.400000000000002 44 18.19 45.78 C 19.98 47.56 22.87 47.56 24.650000000000002 45.78 L 34.74 35.69 C 35.02 35.489999999999995 35.28 35.25 35.510000000000005 34.98 C 36.010000000000005 34.4 36.330000000000005 33.709999999999994 36.480000000000004 32.98 C 36.85 31.389999999999997 36.370000000000005 29.65 35.02 28.479999999999997 M 0.01 4.23 C 0.19 1.83 2.25 0 4.66 0 L 59.43 0 C 61.96 0 64 2.05 64 4.57 C 64 7.090000000000001 61.96 9.14 59.43 9.14 L 4.57 9.14 C 1.93 9.14 -0.18 6.91 0.01 4.23 M 46.09 18.29 L 59.330000000000005 18.29 C 61.67 18.29 63.82000000000001 20.2 63.980000000000004 22.53 C 64.17 25.21 62.06 27.43 59.42 27.43 L 45.99 27.43 C 43.35 27.43 41.24 25.21 41.43 22.53 C 41.589999999999996 20.19 43.74 18.29 46.08 18.29 M 59.43 36.57 C 62.07 36.57 64.18 38.79 63.99 41.47 C 63.830000000000005 43.81 61.68 45.71 59.34 45.71 L 46.1 45.71 C 43.760000000000005 45.71 41.61 43.800000000000004 41.45 41.47 C 41.260000000000005 38.79 43.370000000000005 36.57 46.010000000000005 36.57 L 59.440000000000005 36.57 M 0 59.43 C 0 56.9 2.05 54.86 4.57 54.86 L 59.34 54.86 C 61.68000000000001 54.86 63.830000000000005 56.769999999999996 63.99 59.1 C 64.18 61.78 62.07 64 59.43 64 L 4.57 64 C 2.0500000000000003 64 0 61.96 0 59.43 Z" stroke-miterlimit="10" stroke-width="2" stroke-dasharray=""/></g></g></g><g transform="matrix(1,0,0,1,80,24)"><text fill="#383B3D" stroke="none" font-family="Open Sans" font-size="12pt" font-style="normal" font-weight="normal" text-decoration="normal" x="73.25" y="12" text-anchor="middle" dominant-baseline="central">TransformationErro</text><text fill="#383B3D" stroke="none" font-family="Open Sans" font-size="12pt" font-style="normal" font-weight="normal" text-decoration="normal" x="73.25" y="27" text-anchor="middle" dominant-baseline="central">                 r                 </text></g></g><g id="_062729EF-0CB4-4FC8-A5E4-45336EB97873" transform="matrix(1,0,0,1,354,2182)"><g><path fill="#fff" stroke="#ccc" id="_062729EF-0CB4-4FC8-A5E4-45336EB97873?shapeType=BACKGROUND" paint-order="fill stroke markers" d=" M 0 5 L 0 5 L 0 5.000000000000001 A 5 5 0 0 1 5 0 L 245 0 L 245 0 L 245 0 A 5 5 0 0 1 250 5 L 250 85 L 250 85 L 250 85 A 5 5 0 0 1 245 90 L 5 90 L 5 90 L 5 90 A 5 5 0 0 1 0 85 Z" stroke-miterlimit="10" stroke-width="2" stroke-dasharray=""/></g><g transform="matrix(1,0,0,1,45,46)"><g id="_062729EF-0CB4-4FC8-A5E4-45336EB97873"><path fill="#4CB140" stroke="#d5d5d5" id="_062729EF-0CB4-4FC8-A5E4-45336EB97873" paint-order="fill stroke markers" d=" M 0 -25 L 0 -25 L 1.5308084989341915e-15 -25 A 25 25 0 0 1 25 0 L 25 0 L 25 0 A 25 25 0 0 1 1.5308084989341915e-15 25 L 0 25 L 1.5308084989341915e-15 25 A 25 25 0 0 1 -25 3.061616997868383e-15 L -25 0 L -25 3.061616997868383e-15 A 25 25 0 0 1 1.5308084989341915e-15 -25 Z" stroke-miterlimit="10" stroke-dasharray=""/></g><g><g transform="matrix(0.35,0,0,0.35,-11,-11)"><path fill="#fff" stroke="#fff" paint-order="fill stroke markers" d=" M 0 0 M 50.54 0.01 C 52.879999999999995 0.17 54.78 2.32 54.78 4.66 L 54.78 59.43 C 54.78 62.07 52.550000000000004 64.18 49.870000000000005 63.99 C 47.540000000000006 63.82 45.64 61.68 45.64 59.34 L 45.64 4.57 C 45.64 1.9400000000000004 47.86 -0.17999999999999972 50.54 0.010000000000000675 M 13.46 63.99 C 11.120000000000001 63.830000000000005 9.22 61.68 9.22 59.34 L 9.22 4.57 C 9.22 2.0500000000000003 11.260000000000002 0 13.790000000000001 0 C 16.32 0 18.36 2.05 18.36 4.57 L 18.36 59.43 C 18.36 62.07 16.14 64.18 13.459999999999999 63.99 Z" stroke-miterlimit="10" stroke-width="2" stroke-dasharray=""/></g></g></g><g transform="matrix(1,0,0,1,224,6)"><g><path fill="white" stroke="white" paint-order="fill stroke markers" d=" M 9 0 L 11 0 L 10.999999999999998 0 A 9 9 0 0 1 20 9 L 20 11 L 20 11 A 9 9 0 0 1 11 20 L 9 20 L 9 20 A 9 9 0 0 1 0 11.000000000000002 L 0 9 L 0 9.000000000000002 A 9 9 0 0 1 8.999999999999998 0 Z" fill-opacity="0.001" stroke-miterlimit="10" stroke-opacity="0.001" stroke-dasharray=""/></g><g transform="matrix(2,0,0,2,0,0)"><path fill="#CCC" stroke="none" paint-order="stroke fill markers" d=" M 0 0 M 9.5 2.812 C 9.5 1.949 8.801 1.25 7.938 1.25 C 7.074 1.25 6.375 1.949 6.375 2.812 C 6.375 3.523 6.849 4.123 7.498 4.312 C 7.486 4.627 7.416 4.869 7.283 5.033 C 6.982 5.408 6.321 5.471 5.619 5.535 C 5.068 5.586 4.498 5.641 4.031 5.865 L 4.031 3.053 C 4.666 2.853 5.125 2.262 5.125 1.562 C 5.125 0.699 4.426 0 3.562 0 C 2.699 0 2 0.699 2 1.562 C 2 2.262 2.459 2.853 3.094 3.053 L 3.094 6.946 C 2.459 7.147 2 7.738 2 8.437 C 2 9.301 2.699 10 3.562 10 C 4.426 10 5.125 9.301 5.125 8.437 C 5.125 7.773 4.711 7.205 4.125 6.981 C 4.186 6.879 4.277 6.789 4.416 6.719 C 4.732 6.558 5.205 6.516 5.707 6.469 C 6.531 6.393 7.465 6.304 8.016 5.621 C 8.289 5.281 8.428 4.844 8.438 4.295 C 9.054 4.084 9.5 3.5 9.5 2.812 Z M 0 0 M 3.562 1.25 C 3.734 1.25 3.875 1.391 3.875 1.562 C 3.875 1.734 3.734 1.875 3.562 1.875 C 3.391 1.875 3.25 1.734 3.25 1.562 C 3.25 1.391 3.391 1.25 3.562 1.25 Z M 0 0 M 3.562 8.75 C 3.391 8.75 3.25 8.609 3.25 8.437 C 3.25 8.266 3.391 8.125 3.562 8.125 C 3.734 8.125 3.875 8.266 3.875 8.437 C 3.875 8.609 3.734 8.75 3.562 8.75 Z M 0 0 M 7.938 2.5 C 8.109 2.5 8.25 2.641 8.25 2.812 C 8.25 2.984 8.109 3.125 7.938 3.125 C 7.766 3.125 7.625 2.984 7.625 2.812 C 7.625 2.641 7.766 2.5 7.938 2.5 Z"/></g></g><g transform="matrix(1,0,0,1,125,86)"><g><path fill="white" stroke="white" paint-order="fill stroke markers" d=" M 0 0 L 60 0 L 60 10 L 0 10 L 0 0 Z Z" fill-opacity="0.001" stroke-miterlimit="10" stroke-opacity="0.001" stroke-dasharray=""/></g><g><text fill="#4F5255" stroke="none" font-family="Helvetica" font-size="11pt" font-style="normal" font-weight="normal" text-decoration="normal" x="0" y="0" text-anchor="middle" dominant-baseline="alphabetic">allOf</text></g></g><g transform="matrix(1,0,0,1,80,24)"><text fill="#383B3D" stroke="none" font-family="Open Sans" font-size="12pt" font-style="normal" font-weight="normal" text-decoration="normal" x="74.0390625" y="12" text-anchor="middle" dominant-baseline="central">PrintExitErrorMessa</text><text fill="#383B3D" stroke="none" font-family="Open Sans" font-size="12pt" font-style="normal" font-weight="normal" text-decoration="normal" x="74.0390625" y="27" text-anchor="middle" dominant-baseline="central">               ge                </text></g></g><g id="_E2524926-E3FF-4531-8141-D8AE4147BF13" transform="matrix(1,0,0,1,456,2399)"><g><path fill="#fff" stroke="#ccc" id="_E2524926-E3FF-4531-8141-D8AE4147BF13?shapeType=BACKGROUND" paint-order="fill stroke markers" d=" M 0 0 L 46 0 L 46 46 L 0 46 Z" stroke-miterlimit="10" stroke-width="2" stroke-dasharray=""/></g><g transform="matrix(1,0,0,1,9,29)"><text fill="#929292" stroke="none" font-family="Open Sans" font-size="12pt" font-style="normal" font-weight="normal" text-decoration="normal" x="0" y="0" text-anchor="start" dominant-baseline="alphabetic">End</text></g></g><g id="_76E25C5A-0AEB-4C53-8FE2-4D260CFB09A2" transform="matrix(1,0,0,1,50,2182)"><g><path fill="#fff" stroke="#ccc" id="_76E25C5A-0AEB-4C53-8FE2-4D260CFB09A2?shapeType=BACKGROUND" paint-order="fill stroke markers" d=" M 0 5 L 0 5 L 0 5.000000000000001 A 5 5 0 0 1 5 0 L 245 0 L 245 0 L 245 0 A 5 5 0 0 1 250 5 L 250 85 L 250 85 L 250 85 A 5 5 0 0 1 245 90 L 5 90 L 5 90 L 5 90 A 5 5 0 0 1 0 85 Z" stroke-miterlimit="10" stroke-width="2" stroke-dasharray=""/></g><g transform="matrix(1,0,0,1,45,46)"><g id="_76E25C5A-0AEB-4C53-8FE2-4D260CFB09A2"><path fill="#4CB140" stroke="#d5d5d5" id="_76E25C5A-0AEB-4C53-8FE2-4D260CFB09A2" paint-order="fill stroke markers" d=" M 0 -25 L 0 -25 L 1.5308084989341915e-15 -25 A 25 25 0 0 1 25 0 L 25 0 L 25 0 A 25 25 0 0 1 1.5308084989341915e-15 25 L 0 25 L 1.5308084989341915e-15 25 A 25 25 0 0 1 -25 3.061616997868383e-15 L -25 0 L -25 3.061616997868383e-15 A 25 25 0 0 1 1.5308084989341915e-15 -25 Z" stroke-miterlimit="10" stroke-dasharray=""/></g><g><g transform="matrix(0.35,0,0,0.35,-11,-11)"><path fill="#fff" stroke="#fff" paint-order="fill stroke markers" d=" M 0 0 M 50.54 0.01 C 52.879999999999995 0.17 54.78 2.32 54.78 4.66 L 54.78 59.43 C 54.78 62.07 52.550000000000004 64.18 49.870000000000005 63.99 C 47.540000000000006 63.82 45.64 61.68 45.64 59.34 L 45.64 4.57 C 45.64 1.9400000000000004 47.86 -0.17999999999999972 50.54 0.010000000000000675 M 13.46 63.99 C 11.120000000000001 63.830000000000005 9.22 61.68 9.22 59.34 L 9.22 4.57 C 9.22 2.0500000000000003 11.260000000000002 0 13.790000000000001 0 C 16.32 0 18.36 2.05 18.36 4.57 L 18.36 59.43 C 18.36 62.07 16.14 64.18 13.459999999999999 63.99 Z" stroke-miterlimit="10" stroke-width="2" stroke-dasharray=""/></g></g></g><g transform="matrix(1,0,0,1,224,6)"><g><path fill="white" stroke="white" paint-order="fill stroke markers" d=" M 9 0 L 11 0 L 10.999999999999998 0 A 9 9 0 0 1 20 9 L 20 11 L 20 11 A 9 9 0 0 1 11 20 L 9 20 L 9 20 A 9 9 0 0 1 0 11.000000000000002 L 0 9 L 0 9.000000000000002 A 9 9 0 0 1 8.999999999999998 0 Z" fill-opacity="0.001" stroke-miterlimit="10" stroke-opacity="0.001" stroke-dasharray=""/></g><g transform="matrix(2,0,0,2,0,0)"><path fill="#CCC" stroke="none" paint-order="stroke fill markers" d=" M 0 0 M 9.5 2.812 C 9.5 1.949 8.801 1.25 7.938 1.25 C 7.074 1.25 6.375 1.949 6.375 2.812 C 6.375 3.523 6.849 4.123 7.498 4.312 C 7.486 4.627 7.416 4.869 7.283 5.033 C 6.982 5.408 6.321 5.471 5.619 5.535 C 5.068 5.586 4.498 5.641 4.031 5.865 L 4.031 3.053 C 4.666 2.853 5.125 2.262 5.125 1.562 C 5.125 0.699 4.426 0 3.562 0 C 2.699 0 2 0.699 2 1.562 C 2 2.262 2.459 2.853 3.094 3.053 L 3.094 6.946 C 2.459 7.147 2 7.738 2 8.437 C 2 9.301 2.699 10 3.562 10 C 4.426 10 5.125 9.301 5.125 8.437 C 5.125 7.773 4.711 7.205 4.125 6.981 C 4.186 6.879 4.277 6.789 4.416 6.719 C 4.732 6.558 5.205 6.516 5.707 6.469 C 6.531 6.393 7.465 6.304 8.016 5.621 C 8.289 5.281 8.428 4.844 8.438 4.295 C 9.054 4.084 9.5 3.5 9.5 2.812 Z M 0 0 M 3.562 1.25 C 3.734 1.25 3.875 1.391 3.875 1.562 C 3.875 1.734 3.734 1.875 3.562 1.875 C 3.391 1.875 3.25 1.734 3.25 1.562 C 3.25 1.391 3.391 1.25 3.562 1.25 Z M 0 0 M 3.562 8.75 C 3.391 8.75 3.25 8.609 3.25 8.437 C 3.25 8.266 3.391 8.125 3.562 8.125 C 3.734 8.125 3.875 8.266 3.875 8.437 C 3.875 8.609 3.734 8.75 3.562 8.75 Z M 0 0 M 7.938 2.5 C 8.109 2.5 8.25 2.641 8.25 2.812 C 8.25 2.984 8.109 3.125 7.938 3.125 C 7.766 3.125 7.625 2.984 7.625 2.812 C 7.625 2.641 7.766 2.5 7.938 2.5 Z"/></g></g><g transform="matrix(1,0,0,1,125,86)"><g><path fill="white" stroke="white" paint-order="fill stroke markers" d=" M 0 0 L 60 0 L 60 10 L 0 10 L 0 0 Z Z" fill-opacity="0.001" stroke-miterlimit="10" stroke-opacity="0.001" stroke-dasharray=""/></g><g><text fill="#4F5255" stroke="none" font-family="Helvetica" font-size="11pt" font-style="normal" font-weight="normal" text-decoration="normal" x="0" y="0" text-anchor="middle" dominant-baseline="alphabetic">allOf</text></g></g><g transform="matrix(1,0,0,1,80,24)"><text fill="#383B3D" stroke="none" font-family="Open Sans" font-size="12pt" font-style="normal" font-weight="normal" text-decoration="normal" x="72.078125" y="12" text-anchor="middle" dominant-baseline="central">PrintExitSuccessMe</text><text fill="#383B3D" stroke="none" font-family="Open Sans" font-size="12pt" font-style="normal" font-weight="normal" text-decoration="normal" x="72.078125" y="27" text-anchor="middle" dominant-baseline="central">            ssage             </text></g></g><g id="_F1BC27EB-2FBD-4BDC-960C-8A4E7170F367" transform="matrix(1,0,0,1,152,2399)"><g><path fill="#fff" stroke="#ccc" id="_F1BC27EB-2FBD-4BDC-960C-8A4E7170F367?shapeType=BACKGROUND" paint-order="fill stroke markers" d=" M 0 0 L 46 0 L 46 46 L 0 46 Z" stroke-miterlimit="10" stroke-width="2" stroke-dasharray=""/></g><g transform="matrix(1,0,0,1,9,29)"><text fill="#929292" stroke="none" font-family="Open Sans" font-size="12pt" font-style="normal" font-weight="normal" text-decoration="normal" x="0" y="0" text-anchor="start" dominant-baseline="alphabetic">End</text></g></g><g id="startEdge"><g><path fill="none" stroke="#757575" paint-order="fill stroke markers" d=" M 327 100 L 327 110 L 327 174.66666666666669 L 327 217" stroke-miterlimit="10" stroke-width="2" stroke-dasharray=""/></g><g transform="matrix(1,0,0,1,327,100)"/><g transform="matrix(-1,1.2246467991473532e-16,-1.2246467991473532e-16,-1,331,229)"><path fill="#757575" stroke="#757575" paint-order="fill stroke markers" d=" M 8 15 L 0 15 L 4 3 Z" stroke-miterlimit="10" stroke-width="2" stroke-dasharray=""/></g><g/><g transform="matrix(1,0,0,1,337,164.5)"/></g><g id="_568ACC81-1F28-4981-A061-25E16F365DAD"><g><path fill="none" stroke="#757575" paint-order="fill stroke markers" d=" M 327 319 L 327 329 L 327 392.3333333333333 L 327 434" stroke-miterlimit="10" stroke-width="2" stroke-dasharray=""/></g><g transform="matrix(1,0,0,1,327,319)"/><g transform="matrix(-1,1.2246467991473532e-16,-1.2246467991473532e-16,-1,331,446)"><path fill="#757575" stroke="#757575" paint-order="fill stroke markers" d=" M 8 15 L 0 15 L 4 3 Z" stroke-miterlimit="10" stroke-width="2" stroke-dasharray=""/></g><g/><g transform="matrix(1,0,0,1,337,382.5)"/></g><g id="_8CFE7B38-2C91-404C-96A5-B65DDCC46960"><g><path fill="none" stroke="#757575" paint-order="fill stroke markers" d=" M 327 536 L 327 546 L 327 609.3333333333334 L 327 651" stroke-miterlimit="10" stroke-width="2" stroke-dasharray=""/></g><g transform="matrix(1,0,0,1,327,536)"/><g transform="matrix(-1,1.2246467991473532e-16,-1.2246467991473532e-16,-1,331,663)"><path fill="#757575" stroke="#757575" paint-order="fill stroke markers" d=" M 8 15 L 0 15 L 4 3 Z" stroke-miterlimit="10" stroke-width="2" stroke-dasharray=""/></g><g/><g transform="matrix(1,0,0,1,337,599.5)"/></g><g id="_FC28EDC2-F566-42AC-AD53-E4D790D57BCC"><g><path fill="none" stroke="#757575" paint-order="fill stroke markers" d=" M 327 753 L 327 763 L 327 826.3333333333334 L 327 868" stroke-miterlimit="10" stroke-width="2" stroke-dasharray=""/></g><g transform="matrix(1,0,0,1,327,753)"/><g transform="matrix(-1,1.2246467991473532e-16,-1.2246467991473532e-16,-1,331,880)"><path fill="#757575" stroke="#757575" paint-order="fill stroke markers" d=" M 8 15 L 0 15 L 4 3 Z" stroke-miterlimit="10" stroke-width="2" stroke-dasharray=""/></g><g transform="matrix(1,0,0,1,278.6598358154297,785.6666666666667)"><path fill="gray" stroke="gray" paint-order="fill stroke markers" d=" M 3 0 L 93.68032836914062 0 L 93.68032836914062 0 A 3 3 0 0 1 96.68032836914062 3 L 96.68032836914062 15 L 96.68032836914062 15 A 3 3 0 0 1 93.68032836914062 18 L 3 18 L 3 18 A 3 3 0 0 1 0 15 L 0 3 L 0 3.0000000000000004 A 3 3 0 0 1 2.9999999999999996 0 Z" stroke-miterlimit="10" stroke-dasharray=""/></g><g transform="matrix(1,0,0,1,281.6598358154297,788.6666666666667)"><text fill="white" stroke="none" font-family="Verdana" font-size="10pt" font-style="normal" font-weight="normal" text-decoration="normal" x="0" y="9.600000000000001" text-anchor="start" dominant-baseline="alphabetic">(has("plan"...        </text><path fill="none" stroke="none"/><text fill="none" stroke="white" font-family="Verdana" font-size="10pt" font-style="normal" font-weight="normal" text-decoration="normal" x="0" y="9.600000000000001" text-anchor="start" dominant-baseline="alphabetic" stroke-miterlimit="10" stroke-dasharray="">(has("plan"...        </text></g></g><g id="_8D696C8A-081A-478D-A273-0B2A06394C37"><g><path fill="none" stroke="#757575" paint-order="fill stroke markers" d=" M 327 970 L 327 980 L 327 1043.3333333333333 L 327 1085" stroke-miterlimit="10" stroke-width="2" stroke-dasharray=""/></g><g transform="matrix(1,0,0,1,327,970)"/><g transform="matrix(-1,1.2246467991473532e-16,-1.2246467991473532e-16,-1,331,1097)"><path fill="#757575" stroke="#757575" paint-order="fill stroke markers" d=" M 8 15 L 0 15 L 4 3 Z" stroke-miterlimit="10" stroke-width="2" stroke-dasharray=""/></g><g/><g transform="matrix(1,0,0,1,337,1033.5)"/></g><g id="_DCD66E67-2D9B-453A-83A7-1CD9056345C7"><g><path fill="none" stroke="#757575" paint-order="fill stroke markers" d=" M 327 1187 L 327 1197 L 327 1260.3333333333333 L 327 1302" stroke-miterlimit="10" stroke-width="2" stroke-dasharray=""/></g><g transform="matrix(1,0,0,1,327,1187)"/><g transform="matrix(-1,1.2246467991473532e-16,-1.2246467991473532e-16,-1,331,1314)"><path fill="#757575" stroke="#757575" paint-order="fill stroke markers" d=" M 8 15 L 0 15 L 4 3 Z" stroke-miterlimit="10" stroke-width="2" stroke-dasharray=""/></g><g/><g transform="matrix(1,0,0,1,337,1250.5)"/></g><g id="_58E0BD0A-6CAF-4CE0-8FAF-9B4DA2297F0B"><g><path fill="none" stroke="#757575" paint-order="fill stroke markers" d=" M 327 1404 L 327 1414 L 327 1477.3333333333333 L 327 1519" stroke-miterlimit="10" stroke-width="2" stroke-dasharray=""/></g><g transform="matrix(1,0,0,1,327,1404)"/><g transform="matrix(-1,1.2246467991473532e-16,-1.2246467991473532e-16,-1,331,1531)"><path fill="#757575" stroke="#757575" paint-order="fill stroke markers" d=" M 8 15 L 0 15 L 4 3 Z" stroke-miterlimit="10" stroke-width="2" stroke-dasharray=""/></g><g/><g transform="matrix(1,0,0,1,337,1467.5)"/></g><g id="_D05B7F0A-ABA2-4D3E-AF5A-03160AD88455"><g><path fill="none" stroke="#757575" paint-order="fill stroke markers" d=" M 327 1621 L 327 1631 L 327 1694.3333333333333 L 327 1736" stroke-miterlimit="10" stroke-width="2" stroke-dasharray=""/></g><g transform="matrix(1,0,0,1,327,1621)"/><g transform="matrix(-1,1.2246467991473532e-16,-1.2246467991473532e-16,-1,331,1748)"><path fill="#757575" stroke="#757575" paint-order="fill stroke markers" d=" M 8 15 L 0 15 L 4 3 Z" stroke-miterlimit="10" stroke-width="2" stroke-dasharray=""/></g><g/><g transform="matrix(1,0,0,1,337,1684.5)"/></g><g id="_2EF1A3F9-D34D-4B98-A05C-B5781C030844"><g><path fill="none" stroke="#12DE70" paint-order="fill stroke markers" d=" M 366.7674418604651 1838 L 366.7674418604651 1848 L 366.7674418604651 1888.2066929133857 L 479 1888.2066929133857 L 479 1953" stroke-miterlimit="10" stroke-width="2" stroke-dasharray=""/></g><g transform="matrix(1,0,0,1,366.7674418604651,1838)"/><g transform="matrix(-1,1.2246467991473532e-16,-1.2246467991473532e-16,-1,483,1965)"><path fill="#12DE70" stroke="#12DE70" paint-order="fill stroke markers" d=" M 8 15 L 0 15 L 4 3 Z" stroke-miterlimit="10" stroke-width="2" stroke-dasharray=""/></g><g/><g transform="matrix(1,0,0,1,374.26073271527656,1894.8780220352828)"/></g><g id="_89997932-897A-42BD-B4EC-C0139D0D06B1"><g><path fill="none" stroke="#757575" paint-order="fill stroke markers" d=" M 479 2055 L 479 2065 L 479 2128.3333333333335 L 479 2170" stroke-miterlimit="10" stroke-width="2" stroke-dasharray=""/></g><g transform="matrix(1,0,0,1,479,2055)"/><g transform="matrix(-1,1.2246467991473532e-16,-1.2246467991473532e-16,-1,483,2182)"><path fill="#757575" stroke="#757575" paint-order="fill stroke markers" d=" M 8 15 L 0 15 L 4 3 Z" stroke-miterlimit="10" stroke-width="2" stroke-dasharray=""/></g><g/><g transform="matrix(1,0,0,1,489,2118.5)"/></g><g id="_A640D139-1D39-4027-B574-2E207390B3ED"><g><path fill="none" stroke="#757575" paint-order="fill stroke markers" d=" M 479 2272 L 479 2282 L 479 2345.3333333333335 L 479 2387" stroke-miterlimit="10" stroke-width="2" stroke-dasharray=""/></g><g transform="matrix(1,0,0,1,479,2272)"/><g transform="matrix(-1,1.2246467991473532e-16,-1.2246467991473532e-16,-1,483,2399)"><path fill="#757575" stroke="#757575" paint-order="fill stroke markers" d=" M 8 15 L 0 15 L 4 3 Z" stroke-miterlimit="10" stroke-width="2" stroke-dasharray=""/></g><g/><g transform="matrix(1,0,0,1,489,2335.5)"/></g><g id="_AAC4B571-8725-4A27-8934-A89381945E15"><g><path fill="none" stroke="#828282" paint-order="fill stroke markers" d=" M 287.2325581395349 1838 L 287.2325581395349 1848 L 287.2325581395349 1888.2066929133857 L 175 1888.2066929133857 L 175 1953" stroke-miterlimit="10" stroke-width="2" stroke-dasharray=""/></g><g transform="matrix(1,0,0,1,287.2325581395349,1838)"/><g transform="matrix(-1,1.2246467991473532e-16,-1.2246467991473532e-16,-1,179,1965)"><path fill="#828282" stroke="#828282" paint-order="fill stroke markers" d=" M 8 15 L 0 15 L 4 3 Z" stroke-miterlimit="10" stroke-width="2" stroke-dasharray=""/></g><g transform="matrix(1,0,0,1,181.4515680712323,1879.2066929133857)"><path fill="orange" stroke="orange" paint-order="fill stroke markers" d=" M 3 0 L 96.32942199707031 0 L 96.32942199707031 0 A 3 3 0 0 1 99.32942199707031 3 L 99.32942199707031 15 L 99.32942199707031 15 A 3 3 0 0 1 96.32942199707031 18 L 3 18 L 3 18 A 3 3 0 0 1 0 15 L 0 3 L 0 3.0000000000000004 A 3 3 0 0 1 2.9999999999999996 0 Z" stroke-miterlimit="10" stroke-dasharray=""/></g><g transform="matrix(1,0,0,1,184.4515680712323,1882.2066929133857)"><text fill="white" stroke="none" font-family="Verdana" font-size="10pt" font-style="normal" font-weight="normal" text-decoration="normal" x="0" y="9.600000000000001" text-anchor="start" dominant-baseline="alphabetic">transformat...                </text><path fill="none" stroke="none"/><text fill="none" stroke="white" font-family="Verdana" font-size="10pt" font-style="normal" font-weight="normal" text-decoration="normal" x="0" y="9.600000000000001" text-anchor="start" dominant-baseline="alphabetic" stroke-miterlimit="10" stroke-dasharray="">transformat...                </text></g></g><g id="_BEE886C8-3CF6-4B76-8D79-BBE2C65359AC"><g><path fill="none" stroke="#757575" paint-order="fill stroke markers" d=" M 175 2055 L 175 2065 L 175 2128.3333333333335 L 175 2170" stroke-miterlimit="10" stroke-width="2" stroke-dasharray=""/></g><g transform="matrix(1,0,0,1,175,2055)"/><g transform="matrix(-1,1.2246467991473532e-16,-1.2246467991473532e-16,-1,179,2182)"><path fill="#757575" stroke="#757575" paint-order="fill stroke markers" d=" M 8 15 L 0 15 L 4 3 Z" stroke-miterlimit="10" stroke-width="2" stroke-dasharray=""/></g><g/><g transform="matrix(1,0,0,1,185,2118.5)"/></g><g id="_4AED472B-9FFD-4A14-96FA-C55491CDE471"><g><path fill="none" stroke="#757575" paint-order="fill stroke markers" d=" M 175 2272 L 175 2282 L 175 2345.3333333333335 L 175 2387" stroke-miterlimit="10" stroke-width="2" stroke-dasharray=""/></g><g transform="matrix(1,0,0,1,175,2272)"/><g transform="matrix(-1,1.2246467991473532e-16,-1.2246467991473532e-16,-1,179,2399)"><path fill="#757575" stroke="#757575" paint-order="fill stroke markers" d=" M 8 15 L 0 15 L 4 3 Z" stroke-miterlimit="10" stroke-width="2" stroke-dasharray=""/></g><g/><g transform="matrix(1,0,0,1,185,2335.5)"/></g><g id="_950DA9FD-778D-4A2B-9625-7949D4283BB6"><g><path fill="none" stroke="#828282" paint-order="fill stroke markers" d=" M 358.52073732718895 1838 L 358.52073732718895 1848 L 358.52073732718895 1898.7258858267717 L 447.47926267281105 1898.7258858267717 L 447.47926267281105 1953" stroke-miterlimit="10" stroke-width="2" stroke-dasharray=""/></g><g transform="matrix(1,0,0,1,358.52073732718895,1838)"/><g transform="matrix(-1,1.2246467991473532e-16,-1.2246467991473532e-16,-1,451.47926267281105,1965)"><path fill="#828282" stroke="#828282" paint-order="fill stroke markers" d=" M 8 15 L 0 15 L 4 3 Z" stroke-miterlimit="10" stroke-width="2" stroke-dasharray=""/></g><g transform="matrix(1,0,0,1,364.5368957519531,1889.7258858267717)"><path fill="orange" stroke="orange" paint-order="fill stroke markers" d=" M 3 0 L 73.92620849609375 0 L 73.92620849609375 0 A 3 3 0 0 1 76.92620849609375 3 L 76.92620849609375 15 L 76.92620849609375 15 A 3 3 0 0 1 73.92620849609375 18 L 3 18 L 3 18 A 3 3 0 0 1 0 15 L 0 3 L 0 3.0000000000000004 A 3 3 0 0 1 2.9999999999999996 0 Z" stroke-miterlimit="10" stroke-dasharray=""/></g><g transform="matrix(1,0,0,1,367.5368957519531,1892.7258858267717)"><text fill="white" stroke="none" font-family="Verdana" font-size="10pt" font-style="normal" font-weight="normal" text-decoration="normal" x="0" y="9.600000000000001" text-anchor="start" dominant-baseline="alphabetic">errorEvent                  </text><path fill="none" stroke="none"/><text fill="none" stroke="white" font-family="Verdana" font-size="10pt" font-style="normal" font-weight="normal" text-decoration="normal" x="0" y="9.600000000000001" text-anchor="start" dominant-baseline="alphabetic" stroke-miterlimit="10" stroke-dasharray="">errorEvent                  </text></g></g><g id="_027B556A-1C25-42A7-B8BE-09E2498F618A"><g><path fill="none" stroke="#12DE70" paint-order="fill stroke markers" d=" M 202 708 L 192 708 L 192 608 L 301.0783410138249 608 L 301.0783410138249 548" stroke-miterlimit="10" stroke-width="2" stroke-dasharray=""/></g><g transform="matrix(1,0,0,1,202,708)"/><g transform="matrix(1,0,0,1,297.0783410138249,536)"><path fill="#12DE70" stroke="#12DE70" paint-order="fill stroke markers" d=" M 8 15 L 0 15 L 4 3 Z" stroke-miterlimit="10" stroke-width="2" stroke-dasharray=""/></g><g/><g transform="matrix(1,0,0,1,210.66517789233035,617.0085380804549)"/></g></g></g></svg>