<svg version="1.1" xmlns="http://www.w3.org/2000/svg" xmlns:xlink="http://www.w3.org/1999/xlink" width="1160" height="1193" viewBox="0 0 1160 1193"><defs/><g transform="matrix(1,0,0,1,0,0)"><g><g><g><path fill="none" stroke="#d3d3d3" paint-order="fill stroke markers" d=" M 0 0 L 1200 0" stroke-miterlimit="10" stroke-opacity="0.8" stroke-dasharray="5"/></g><g><path fill="none" stroke="#d3d3d3" paint-order="fill stroke markers" d=" M 0 0 L 0 800" stroke-miterlimit="10" stroke-opacity="0.8" stroke-dasharray="5"/></g></g><g id="_54A06730-B833-4F95-A8CA-D672491AE2CD" transform="matrix(1,0,0,1,606,50)"><g><path fill="#fff" stroke="#ccc" id="_54A06730-B833-4F95-A8CA-D672491AE2CD?shapeType=BACKGROUND" paint-order="fill stroke markers" d=" M 25 0 L 25 0 L 25 0 A 25 25 0 0 1 50 25 L 50 25 L 50 25 A 25 25 0 0 1 25 50 L 25 50 L 25 50 A 25 25 0 0 1 0 25.000000000000004 L 0 25 L 0 25.000000000000004 A 25 25 0 0 1 25 0 Z" stroke-miterlimit="10" stroke-width="2" stroke-dasharray=""/></g><g transform="matrix(1,0,0,1,7,29)"><text fill="#929292" stroke="none" font-family="Open Sans" font-size="12pt" font-style="normal" font-weight="normal" text-decoration="normal" x="0" y="0" text-anchor="start" dominant-baseline="alphabetic">Start</text></g></g><g id="_F710FBC1-F9EB-4A53-B854-662CE4E4E4C5" transform="matrix(1,0,0,1,506,229)"><g><path fill="#fff" stroke="#ccc" id="_F710FBC1-F9EB-4A53-B854-662CE4E4E4C5?shapeType=BACKGROUND" paint-order="fill stroke markers" d=" M 0 5 L 0 5 L 0 5.000000000000001 A 5 5 0 0 1 5 0 L 245 0 L 245 0 L 245 0 A 5 5 0 0 1 250 5 L 250 85 L 250 85 L 250 85 A 5 5 0 0 1 245 90 L 5 90 L 5 90 L 5 90 A 5 5 0 0 1 0 85 Z" stroke-miterlimit="10" stroke-width="2" stroke-dasharray=""/></g><g transform="matrix(1,0,0,1,45,46)"><g id="_F710FBC1-F9EB-4A53-B854-662CE4E4E4C5"><path fill="#0066CC" stroke="#d5d5d5" id="_F710FBC1-F9EB-4A53-B854-662CE4E4E4C5" paint-order="fill stroke markers" d=" M 0 -25 L 0 -25 L 1.5308084989341915e-15 -25 A 25 25 0 0 1 25 0 L 25 0 L 25 0 A 25 25 0 0 1 1.5308084989341915e-15 25 L 0 25 L 1.5308084989341915e-15 25 A 25 25 0 0 1 -25 3.061616997868383e-15 L -25 0 L -25 3.061616997868383e-15 A 25 25 0 0 1 1.5308084989341915e-15 -25 Z" stroke-miterlimit="10" stroke-dasharray=""/></g><g><g transform="matrix(0.35,0,0,0.35,-11,-11)"><path fill="#fff" stroke="#fff" paint-order="fill stroke markers" d=" M 0 0 M 61.99 20.83 C 62.4 21.9 62.050000000000004 23.119999999999997 61.2 23.9 L 55.790000000000006 28.83 C 55.93000000000001 29.869999999999997 56.00000000000001 30.93 56.00000000000001 32 C 56.00000000000001 33.07 55.92000000000001 34.14 55.790000000000006 35.17 L 61.2 40.09 C 62.050000000000004 40.88 62.400000000000006 42.09 61.99 43.17 C 61.440000000000005 44.660000000000004 60.78 46.09 60.03 47.46 L 59.44 48.47 C 58.61 49.85 57.69 51.15 56.68 52.379999999999995 C 55.93 53.269999999999996 54.72 53.58 53.62 53.23 L 46.66 51.01 C 44.98 52.3 43.019999999999996 53.37 41.16 54.199999999999996 L 39.599999999999994 61.339999999999996 C 39.349999999999994 62.459999999999994 38.48 63.26 37.31999999999999 63.559999999999995 C 35.599999999999994 63.849999999999994 33.81999999999999 63.99999999999999 31.89999999999999 63.99999999999999 C 30.199999999999992 63.99999999999999 28.41999999999999 63.849999999999994 26.699999999999992 63.559999999999995 C 25.549999999999994 63.26 24.679999999999993 62.459999999999994 24.429999999999993 61.339999999999996 L 22.869999999999994 54.199999999999996 C 20.889999999999993 53.37 19.039999999999992 52.3 17.369999999999994 51.01 L 10.409999999999993 53.23 C 9.309999999999993 53.58 8.089999999999993 53.269999999999996 7.3499999999999925 52.379999999999995 C 6.339999999999993 51.13999999999999 5.409999999999993 49.839999999999996 4.589999999999993 48.47 L 3.999999999999993 47.46 C 3.239999999999993 46.1 2.579999999999993 44.660000000000004 2.029999999999993 43.17 C 1.6299999999999932 42.09 1.969999999999993 40.88 2.819999999999993 40.09 L 8.229999999999993 35.17 C 8.089999999999993 34.13 8.019999999999992 33.07 8.019999999999992 32 C 8.019999999999992 30.93 8.089999999999993 29.86 8.229999999999993 28.83 L 2.819999999999993 23.9 C 1.9599999999999933 23.11 1.6199999999999932 21.91 2.029999999999993 20.83 C 2.579999999999993 19.34 3.249999999999993 17.9 3.999999999999993 16.54 L 4.579999999999993 15.53 C 5.409999999999993 14.149999999999999 6.329999999999993 12.86 7.3499999999999925 11.62 C 8.089999999999993 10.729999999999999 9.309999999999992 10.42 10.409999999999993 10.77 L 17.369999999999994 12.99 C 19.039999999999992 11.7 20.889999999999993 10.620000000000001 22.869999999999994 9.81 L 24.429999999999993 2.670000000000001 C 24.679999999999993 1.540000000000001 25.549999999999994 0.6300000000000008 26.699999999999992 0.44000000000000083 C 28.429999999999993 0.15000000000000085 30.199999999999992 8.326672684688674e-16 32.00999999999999 8.326672684688674e-16 C 33.81999999999999 8.326672684688674e-16 35.599999999999994 0.15000000000000083 37.31999999999999 0.44000000000000083 C 38.46999999999999 0.6300000000000008 39.349999999999994 1.530000000000001 39.599999999999994 2.670000000000001 L 41.16 9.81 C 43.019999999999996 10.63 44.98 11.700000000000001 46.66 12.99 L 53.62 10.77 C 54.72 10.42 55.93 10.73 56.68 11.62 C 57.69 12.85 58.62 14.149999999999999 59.44 15.53 L 60.03 16.54 C 60.78 17.9 61.44 19.34 61.99 20.83 L 61.99 20.83 Z M 0 0 M 32 42 C 37.53 42 42 37.53 42 31.89 C 42 26.25 37.53 21.89 32 21.89 C 26.47 21.89 22 26.48 22 31.89 C 22 37.3 26.48 42 32 42 Z" stroke-miterlimit="10" stroke-width="2" stroke-dasharray=""/></g></g></g><g transform="matrix(1,0,0,1,224,6)"><g><path fill="white" stroke="white" paint-order="fill stroke markers" d=" M 9 0 L 11 0 L 10.999999999999998 0 A 9 9 0 0 1 20 9 L 20 11 L 20 11 A 9 9 0 0 1 11 20 L 9 20 L 9 20 A 9 9 0 0 1 0 11.000000000000002 L 0 9 L 0 9.000000000000002 A 9 9 0 0 1 8.999999999999998 0 Z" fill-opacity="0.001" stroke-miterlimit="10" stroke-opacity="0.001" stroke-dasharray=""/></g><g transform="matrix(2,0,0,2,0,0)"><path fill="#CCC" stroke="none" paint-order="stroke fill markers" d=" M 0 0 M 2.175 3.286 C 1.743 3.286 1.394 3.637 1.394 4.067 C 1.394 4.498 1.745 4.849 2.175 4.849 C 2.605 4.849 2.956 4.498 2.956 4.067 C 2.956 3.637 2.606 3.286 2.175 3.286 Z M 0 0 M 2.175 4.38 C 2.003 4.38 1.863 4.239 1.863 4.067 C 1.863 3.896 2.003 3.755 2.175 3.755 C 2.346 3.755 2.487 3.896 2.487 4.067 C 2.487 4.239 2.346 4.38 2.175 4.38 Z M 0 0 M 1.875 0.312 C 1.185 0.312 0.625 0.873 0.625 1.563 C 0.625 2.254 1.185 2.813 1.875 2.813 C 2.565 2.813 3.125 2.253 3.125 1.563 C 3.125 0.874 2.565 0.312 1.875 0.312 Z M 0 0 M 1.875 2.032 C 1.616 2.032 1.406 1.822 1.406 1.563 C 1.406 1.304 1.616 1.094 1.875 1.094 C 2.134 1.094 2.344 1.304 2.344 1.563 C 2.344 1.822 2.134 2.032 1.875 2.032 Z M 0 0 M 8.641 2.285 L 7.704 2.208 C 7.665 2.085 7.683 2.121 7.626 2 C 7.75 1.829 8.078 1.493 8.205 1.321 C 8.222 1.296 8.235 1.269 8.235 1.238 C 8.235 1.115 7.716 0.64 7.603 0.535 C 7.577 0.513 7.546 0.5 7.511 0.5 C 7.48 0.5 7.449 0.509 7.423 0.53 L 6.772 1.1 C 6.666 1.047 6.65 1.047 6.535 1.012 L 6.475 0.112 C 6.47 0.048 6.408 0 6.346 0 L 5.53 0 C 5.469 0 5.416 0.044 5.399 0.106 C 5.343 0.32 5.371 0.796 5.348 1.017 C 5.23 1.056 5.241 1.065 5.129 1.122 L 4.452 0.528 C 4.427 0.511 4.395 0.498 4.36 0.498 C 4.233 0.498 3.74 1.031 3.654 1.149 C 3.631 1.174 3.623 1.205 3.623 1.235 C 3.623 1.266 3.637 1.297 3.654 1.322 C 3.793 1.489 4.098 1.773 4.22 1.949 C 4.164 2.059 4.173 2.109 4.137 2.226 L 3.227 2.269 C 3.17 2.278 3.126 2.345 3.126 2.401 L 3.125 3.213 C 3.125 3.276 3.169 3.332 3.23 3.342 L 4.15 3.402 C 4.189 3.524 4.18 3.485 4.242 3.605 C 4.115 3.776 3.793 4.143 3.666 4.309 C 3.648 4.334 3.636 4.361 3.636 4.392 C 3.636 4.52 4.155 4.99 4.269 5.094 C 4.294 5.117 4.325 5.129 4.36 5.129 C 4.39 5.129 4.427 5.121 4.447 5.1 L 5.094 4.495 C 5.2 4.548 5.209 4.543 5.325 4.578 L 5.397 5.515 C 5.406 5.577 5.468 5.625 5.528 5.625 L 6.345 5.625 C 6.406 5.625 6.459 5.581 6.475 5.52 C 6.532 5.304 6.491 4.804 6.513 4.577 C 6.631 4.542 6.62 4.536 6.732 4.479 L 7.423 5.095 C 7.448 5.113 7.479 5.126 7.514 5.126 C 7.642 5.126 8.135 4.589 8.221 4.472 C 8.244 4.449 8.252 4.419 8.252 4.388 C 8.252 4.353 8.238 4.327 8.221 4.302 C 8.082 4.135 7.714 3.824 7.591 3.649 C 7.647 3.54 7.637 3.542 7.672 3.426 L 8.648 3.353 C 8.705 3.345 8.749 3.278 8.749 3.222 L 8.749 2.41 C 8.747 2.355 8.703 2.297 8.641 2.285 Z M 0 0 M 5.92 3.919 C 5.317 3.919 4.822 3.427 4.822 2.819 C 4.822 2.212 5.314 1.72 5.92 1.72 C 6.528 1.72 7.02 2.212 7.02 2.819 C 7.02 3.427 6.528 3.919 5.92 3.919 Z M 0 0 M 8.435 6.25 C 7.941 5.757 7.497 6.25 7.497 6.25 L 5.622 8.125 L 3.728 8.125 C 3.728 8.125 3.415 8.125 3.415 7.813 C 3.415 7.5 3.747 7.5 3.747 7.5 L 5.31 7.5 C 5.31 7.5 5.622 7.5 5.622 7.187 C 5.622 6.875 5.31 6.875 5.31 6.875 L 1.882 6.87 C 1.683 6.865 1.305 6.905 0.944 7.304 L 0 8.301 L 1.872 10 L 2.497 9.374 L 6.117 9.374 C 6.2 9.374 6.28 9.342 6.339 9.283 L 6.872 8.75 L 8.435 7.187 C 8.435 7.187 8.927 6.743 8.435 6.25 Z"/></g></g><g transform="matrix(1,0,0,1,117,70)"><g><path fill="white" stroke="white" paint-order="fill stroke markers" d=" M 9 0 L 11 0 L 10.999999999999998 0 A 9 9 0 0 1 20 9 L 20 11 L 20 11 A 9 9 0 0 1 11 20 L 9 20 L 9 20 A 9 9 0 0 1 0 11.000000000000002 L 0 9 L 0 9.000000000000002 A 9 9 0 0 1 8.999999999999998 0 Z" fill-opacity="0.001" stroke-miterlimit="10" stroke-opacity="0.001" stroke-dasharray=""/></g><g><path fill="#4F5255" stroke="#4F5255" paint-order="fill stroke markers" d=" M 0 0 M 15.26 3.1 L 0.42 3.1 C 0.189 3.1 0 2.911 0 2.68 L 0 1.56 C 0 1.329 0.189 1.14 0.42 1.14 L 15.26 1.14 C 15.491 1.14 15.68 1.329 15.68 1.56 L 15.68 2.68 C 15.68 2.911 15.491 3.1 15.26 3.1 Z M 0 0 M 15.26 8.7 L 0.42 8.7 C 0.189 8.7 0 8.511 0 8.28 L 0 7.16 C 0 6.929 0.189 6.74 0.42 6.74 L 15.26 6.74 C 15.491 6.74 15.68 6.929 15.68 7.16 L 15.68 8.28 C 15.68 8.511 15.491 8.7 15.26 8.7 Z M 0 0 M 15.26 14.3 L 0.42 14.3 C 0.189 14.3 0 14.111 0 13.88 L 0 12.76 C 0 12.529 0.189 12.34 0.42 12.34 L 15.26 12.34 C 15.491 12.34 15.68 12.529 15.68 12.76 L 15.68 13.88 C 15.68 14.111 15.491 14.3 15.26 14.3 Z" stroke-miterlimit="10" stroke-dasharray=""/></g></g><g transform="matrix(1,0,0,1,80,31.5)"><text fill="#383B3D" stroke="none" font-family="Open Sans" font-size="12pt" font-style="normal" font-weight="normal" text-decoration="normal" x="21.515625" y="12" text-anchor="middle" dominant-baseline="central">Setup</text></g></g><g id="_A7B05F45-5BDF-4B3F-9129-851592A7AFDF" transform="matrix(1,0,0,1,506,446)"><g><path fill="#E7F1FA" stroke="#0066CC" id="_A7B05F45-5BDF-4B3F-9129-851592A7AFDF?shapeType=BACKGROUND" paint-order="fill stroke markers" d=" M 0 5 L 0 5 L 0 5.000000000000001 A 5 5 0 0 1 5 0 L 245 0 L 245 0 L 245 0 A 5 5 0 0 1 250 5 L 250 85 L 250 85 L 250 85 A 5 5 0 0 1 245 90 L 5 90 L 5 90 L 5 90 A 5 5 0 0 1 0 85 Z" stroke-miterlimit="10" stroke-width="2" stroke-dasharray=""/></g><g transform="matrix(1,0,0,1,45,46)"><g id="_A7B05F45-5BDF-4B3F-9129-851592A7AFDF"><path fill="#009596" stroke="#d5d5d5" id="_A7B05F45-5BDF-4B3F-9129-851592A7AFDF" paint-order="fill stroke markers" d=" M 0 -25 L 0 -25 L 1.5308084989341915e-15 -25 A 25 25 0 0 1 25 0 L 25 0 L 25 0 A 25 25 0 0 1 1.5308084989341915e-15 25 L 0 25 L 1.5308084989341915e-15 25 A 25 25 0 0 1 -25 3.061616997868383e-15 L -25 0 L -25 3.061616997868383e-15 A 25 25 0 0 1 1.5308084989341915e-15 -25 Z" stroke-miterlimit="10" stroke-dasharray=""/></g><g><g transform="matrix(0.35,0,0,0.35,-11,-11)"><path fill="#fff" stroke="#fff" paint-order="fill stroke markers" d=" M 0 0 M 60.6 46.54 L 54.07 46.54 L 54.07 37.83 C 54.01 36.449999999999996 53.35 35.14 52.24 34.309999999999995 L 44.82 28.749999999999996 L 44.82 28.749999999999996 L 36.41 22.389999999999997 L 36.41 4.4 C 36.4 1.87 34.26 -0.17 31.69 0.01 C 29.44 0.17 27.6 2.23 27.6 4.49 L 27.6 22.41 L 19.19 28.72 L 19.19 28.72 L 11.770000000000001 34.269999999999996 C 10.660000000000002 35.099999999999994 10.010000000000002 36.41 9.940000000000001 37.79 L 9.940000000000001 46.5 L 3.4 46.5 C 0.45999999999999996 46.47 -1.02 50.03 1.06 52.11 L 12.07 63 C 13.36 64.29 15.45 64.29 16.75 63 L 27.759999999999998 52.11 C 29.839999999999996 50.15 28.369999999999997 46.59 25.419999999999998 46.64 L 18.75 46.64 L 18.75 40.01 C 18.75 40.01 26.97 33.93 32.03 30.14 C 36.99 33.87 45.230000000000004 40.06 45.27 40.04 L 45.27 46.67 L 38.6 46.67 C 35.660000000000004 46.620000000000005 34.18 50.18 36.260000000000005 52.14 L 47.27 63.03 C 48.56 64.32000000000001 50.650000000000006 64.32000000000001 51.95 63.03 L 62.96 52.14 C 65.04 50.06 63.56 46.5 60.620000000000005 46.53 Z" stroke-miterlimit="10" stroke-width="2" stroke-dasharray=""/></g></g></g><g transform="matrix(1,0,0,1,224,6)"><g><path fill="white" stroke="white" paint-order="fill stroke markers" d=" M 9 0 L 11 0 L 10.999999999999998 0 A 9 9 0 0 1 20 9 L 20 11 L 20 11 A 9 9 0 0 1 11 20 L 9 20 L 9 20 A 9 9 0 0 1 0 11.000000000000002 L 0 9 L 0 9.000000000000002 A 9 9 0 0 1 8.999999999999998 0 Z" fill-opacity="0.001" stroke-miterlimit="10" stroke-opacity="0.001" stroke-dasharray=""/></g><g transform="matrix(2,0,0,2,0,0)"><path fill="#CCC" stroke="none" paint-order="stroke fill markers" d=" M 0 0 M 7.382 2.142 L 9.781 4.542 C 9.921 4.683 10 4.876 10 5.076 C 10 5.274 9.921 5.467 9.781 5.608 L 7.382 8.008 C 7.256 8.132 7.088 8.2 6.912 8.2 C 6.547 8.2 6.25 7.903 6.25 7.538 L 6.25 6.326 L 3.75 6.326 C 3.405 6.326 3.126 6.046 3.126 5.7 L 3.126 4.45 C 3.126 4.105 3.405 3.826 3.75 3.826 L 6.25 3.826 L 6.25 2.612 C 6.25 2.247 6.547 1.95 6.912 1.95 C 7.088 1.95 7.256 2.02 7.382 2.142 Z M 0 0 M 3.126 1.95 L 1.876 1.95 C 1.53 1.95 1.25 2.23 1.25 2.576 L 1.25 7.576 C 1.25 7.92 1.53 8.2 1.876 8.2 L 3.126 8.2 C 3.47 8.2 3.75 8.48 3.75 8.826 C 3.75 9.17 3.47 9.45 3.126 9.45 L 1.876 9.45 C 0.84 9.45 0 8.61 0 7.576 L 0 2.576 C 0 1.54 0.84 0.7 1.876 0.7 L 3.126 0.7 C 3.47 0.7 3.75 0.98 3.75 1.326 C 3.75 1.67 3.47 1.95 3.126 1.95 Z"/></g></g><g transform="matrix(1,0,0,1,80,31.5)"><text fill="#383B3D" stroke="none" font-family="Open Sans" font-size="12pt" font-style="normal" font-weight="normal" text-decoration="normal" x="41.515625" y="12" text-anchor="middle" dominant-baseline="central">OnRequest</text></g></g><g id="_0AC87900-6FC6-4F98-853E-4CEE16405C2C" transform="matrix(1,0,0,1,202,663)"><g><path fill="#fff" stroke="#ccc" id="_0AC87900-6FC6-4F98-853E-4CEE16405C2C?shapeType=BACKGROUND" paint-order="fill stroke markers" d=" M 0 5 L 0 5 L 0 5.000000000000001 A 5 5 0 0 1 5 0 L 245 0 L 245 0 L 245 0 A 5 5 0 0 1 250 5 L 250 85 L 250 85 L 250 85 A 5 5 0 0 1 245 90 L 5 90 L 5 90 L 5 90 A 5 5 0 0 1 0 85 Z" stroke-miterlimit="10" stroke-width="2" stroke-dasharray=""/></g><g transform="matrix(1,0,0,1,45,46)"><g id="_0AC87900-6FC6-4F98-853E-4CEE16405C2C"><path fill="#0066CC" stroke="#d5d5d5" id="_0AC87900-6FC6-4F98-853E-4CEE16405C2C" paint-order="fill stroke markers" d=" M 0 -25 L 0 -25 L 1.5308084989341915e-15 -25 A 25 25 0 0 1 25 0 L 25 0 L 25 0 A 25 25 0 0 1 1.5308084989341915e-15 25 L 0 25 L 1.5308084989341915e-15 25 A 25 25 0 0 1 -25 3.061616997868383e-15 L -25 0 L -25 3.061616997868383e-15 A 25 25 0 0 1 1.5308084989341915e-15 -25 Z" stroke-miterlimit="10" stroke-dasharray=""/></g><g><g transform="matrix(0.35,0,0,0.35,-11,-11)"><path fill="#fff" stroke="#fff" paint-order="fill stroke markers" d=" M 0 0 M 61.99 20.83 C 62.4 21.9 62.050000000000004 23.119999999999997 61.2 23.9 L 55.790000000000006 28.83 C 55.93000000000001 29.869999999999997 56.00000000000001 30.93 56.00000000000001 32 C 56.00000000000001 33.07 55.92000000000001 34.14 55.790000000000006 35.17 L 61.2 40.09 C 62.050000000000004 40.88 62.400000000000006 42.09 61.99 43.17 C 61.440000000000005 44.660000000000004 60.78 46.09 60.03 47.46 L 59.44 48.47 C 58.61 49.85 57.69 51.15 56.68 52.379999999999995 C 55.93 53.269999999999996 54.72 53.58 53.62 53.23 L 46.66 51.01 C 44.98 52.3 43.019999999999996 53.37 41.16 54.199999999999996 L 39.599999999999994 61.339999999999996 C 39.349999999999994 62.459999999999994 38.48 63.26 37.31999999999999 63.559999999999995 C 35.599999999999994 63.849999999999994 33.81999999999999 63.99999999999999 31.89999999999999 63.99999999999999 C 30.199999999999992 63.99999999999999 28.41999999999999 63.849999999999994 26.699999999999992 63.559999999999995 C 25.549999999999994 63.26 24.679999999999993 62.459999999999994 24.429999999999993 61.339999999999996 L 22.869999999999994 54.199999999999996 C 20.889999999999993 53.37 19.039999999999992 52.3 17.369999999999994 51.01 L 10.409999999999993 53.23 C 9.309999999999993 53.58 8.089999999999993 53.269999999999996 7.3499999999999925 52.379999999999995 C 6.339999999999993 51.13999999999999 5.409999999999993 49.839999999999996 4.589999999999993 48.47 L 3.999999999999993 47.46 C 3.239999999999993 46.1 2.579999999999993 44.660000000000004 2.029999999999993 43.17 C 1.6299999999999932 42.09 1.969999999999993 40.88 2.819999999999993 40.09 L 8.229999999999993 35.17 C 8.089999999999993 34.13 8.019999999999992 33.07 8.019999999999992 32 C 8.019999999999992 30.93 8.089999999999993 29.86 8.229999999999993 28.83 L 2.819999999999993 23.9 C 1.9599999999999933 23.11 1.6199999999999932 21.91 2.029999999999993 20.83 C 2.579999999999993 19.34 3.249999999999993 17.9 3.999999999999993 16.54 L 4.579999999999993 15.53 C 5.409999999999993 14.149999999999999 6.329999999999993 12.86 7.3499999999999925 11.62 C 8.089999999999993 10.729999999999999 9.309999999999992 10.42 10.409999999999993 10.77 L 17.369999999999994 12.99 C 19.039999999999992 11.7 20.889999999999993 10.620000000000001 22.869999999999994 9.81 L 24.429999999999993 2.670000000000001 C 24.679999999999993 1.540000000000001 25.549999999999994 0.6300000000000008 26.699999999999992 0.44000000000000083 C 28.429999999999993 0.15000000000000085 30.199999999999992 8.326672684688674e-16 32.00999999999999 8.326672684688674e-16 C 33.81999999999999 8.326672684688674e-16 35.599999999999994 0.15000000000000083 37.31999999999999 0.44000000000000083 C 38.46999999999999 0.6300000000000008 39.349999999999994 1.530000000000001 39.599999999999994 2.670000000000001 L 41.16 9.81 C 43.019999999999996 10.63 44.98 11.700000000000001 46.66 12.99 L 53.62 10.77 C 54.72 10.42 55.93 10.73 56.68 11.62 C 57.69 12.85 58.62 14.149999999999999 59.44 15.53 L 60.03 16.54 C 60.78 17.9 61.44 19.34 61.99 20.83 L 61.99 20.83 Z M 0 0 M 32 42 C 37.53 42 42 37.53 42 31.89 C 42 26.25 37.53 21.89 32 21.89 C 26.47 21.89 22 26.48 22 31.89 C 22 37.3 26.48 42 32 42 Z" stroke-miterlimit="10" stroke-width="2" stroke-dasharray=""/></g></g></g><g transform="matrix(1,0,0,1,224,6)"><g><path fill="white" stroke="white" paint-order="fill stroke markers" d=" M 9 0 L 11 0 L 10.999999999999998 0 A 9 9 0 0 1 20 9 L 20 11 L 20 11 A 9 9 0 0 1 11 20 L 9 20 L 9 20 A 9 9 0 0 1 0 11.000000000000002 L 0 9 L 0 9.000000000000002 A 9 9 0 0 1 8.999999999999998 0 Z" fill-opacity="0.001" stroke-miterlimit="10" stroke-opacity="0.001" stroke-dasharray=""/></g><g transform="matrix(2,0,0,2,0,0)"><path fill="#CCC" stroke="none" paint-order="stroke fill markers" d=" M 0 0 M 2.175 3.286 C 1.743 3.286 1.394 3.637 1.394 4.067 C 1.394 4.498 1.745 4.849 2.175 4.849 C 2.605 4.849 2.956 4.498 2.956 4.067 C 2.956 3.637 2.606 3.286 2.175 3.286 Z M 0 0 M 2.175 4.38 C 2.003 4.38 1.863 4.239 1.863 4.067 C 1.863 3.896 2.003 3.755 2.175 3.755 C 2.346 3.755 2.487 3.896 2.487 4.067 C 2.487 4.239 2.346 4.38 2.175 4.38 Z M 0 0 M 1.875 0.312 C 1.185 0.312 0.625 0.873 0.625 1.563 C 0.625 2.254 1.185 2.813 1.875 2.813 C 2.565 2.813 3.125 2.253 3.125 1.563 C 3.125 0.874 2.565 0.312 1.875 0.312 Z M 0 0 M 1.875 2.032 C 1.616 2.032 1.406 1.822 1.406 1.563 C 1.406 1.304 1.616 1.094 1.875 1.094 C 2.134 1.094 2.344 1.304 2.344 1.563 C 2.344 1.822 2.134 2.032 1.875 2.032 Z M 0 0 M 8.641 2.285 L 7.704 2.208 C 7.665 2.085 7.683 2.121 7.626 2 C 7.75 1.829 8.078 1.493 8.205 1.321 C 8.222 1.296 8.235 1.269 8.235 1.238 C 8.235 1.115 7.716 0.64 7.603 0.535 C 7.577 0.513 7.546 0.5 7.511 0.5 C 7.48 0.5 7.449 0.509 7.423 0.53 L 6.772 1.1 C 6.666 1.047 6.65 1.047 6.535 1.012 L 6.475 0.112 C 6.47 0.048 6.408 0 6.346 0 L 5.53 0 C 5.469 0 5.416 0.044 5.399 0.106 C 5.343 0.32 5.371 0.796 5.348 1.017 C 5.23 1.056 5.241 1.065 5.129 1.122 L 4.452 0.528 C 4.427 0.511 4.395 0.498 4.36 0.498 C 4.233 0.498 3.74 1.031 3.654 1.149 C 3.631 1.174 3.623 1.205 3.623 1.235 C 3.623 1.266 3.637 1.297 3.654 1.322 C 3.793 1.489 4.098 1.773 4.22 1.949 C 4.164 2.059 4.173 2.109 4.137 2.226 L 3.227 2.269 C 3.17 2.278 3.126 2.345 3.126 2.401 L 3.125 3.213 C 3.125 3.276 3.169 3.332 3.23 3.342 L 4.15 3.402 C 4.189 3.524 4.18 3.485 4.242 3.605 C 4.115 3.776 3.793 4.143 3.666 4.309 C 3.648 4.334 3.636 4.361 3.636 4.392 C 3.636 4.52 4.155 4.99 4.269 5.094 C 4.294 5.117 4.325 5.129 4.36 5.129 C 4.39 5.129 4.427 5.121 4.447 5.1 L 5.094 4.495 C 5.2 4.548 5.209 4.543 5.325 4.578 L 5.397 5.515 C 5.406 5.577 5.468 5.625 5.528 5.625 L 6.345 5.625 C 6.406 5.625 6.459 5.581 6.475 5.52 C 6.532 5.304 6.491 4.804 6.513 4.577 C 6.631 4.542 6.62 4.536 6.732 4.479 L 7.423 5.095 C 7.448 5.113 7.479 5.126 7.514 5.126 C 7.642 5.126 8.135 4.589 8.221 4.472 C 8.244 4.449 8.252 4.419 8.252 4.388 C 8.252 4.353 8.238 4.327 8.221 4.302 C 8.082 4.135 7.714 3.824 7.591 3.649 C 7.647 3.54 7.637 3.542 7.672 3.426 L 8.648 3.353 C 8.705 3.345 8.749 3.278 8.749 3.222 L 8.749 2.41 C 8.747 2.355 8.703 2.297 8.641 2.285 Z M 0 0 M 5.92 3.919 C 5.317 3.919 4.822 3.427 4.822 2.819 C 4.822 2.212 5.314 1.72 5.92 1.72 C 6.528 1.72 7.02 2.212 7.02 2.819 C 7.02 3.427 6.528 3.919 5.92 3.919 Z M 0 0 M 8.435 6.25 C 7.941 5.757 7.497 6.25 7.497 6.25 L 5.622 8.125 L 3.728 8.125 C 3.728 8.125 3.415 8.125 3.415 7.813 C 3.415 7.5 3.747 7.5 3.747 7.5 L 5.31 7.5 C 5.31 7.5 5.622 7.5 5.622 7.187 C 5.622 6.875 5.31 6.875 5.31 6.875 L 1.882 6.87 C 1.683 6.865 1.305 6.905 0.944 7.304 L 0 8.301 L 1.872 10 L 2.497 9.374 L 6.117 9.374 C 6.2 9.374 6.28 9.342 6.339 9.283 L 6.872 8.75 L 8.435 7.187 C 8.435 7.187 8.927 6.743 8.435 6.25 Z"/></g></g><g transform="matrix(1,0,0,1,224,28)"><g><path fill="white" stroke="white" paint-order="fill stroke markers" d=" M 9 0 L 11 0 L 10.999999999999998 0 A 9 9 0 0 1 20 9 L 20 11 L 20 11 A 9 9 0 0 1 11 20 L 9 20 L 9 20 A 9 9 0 0 1 0 11.000000000000002 L 0 9 L 0 9.000000000000002 A 9 9 0 0 1 8.999999999999998 0 Z" fill-opacity="0.001" stroke-miterlimit="10" stroke-opacity="0.001" stroke-dasharray=""/></g><g transform="matrix(2,0,0,2,0,0)"><path fill="#CCC" stroke="none" paint-order="stroke fill markers" d=" M 0 0 M 9.531 0 L 0.469 0 C 0.053 0 -0.157 0.505 0.138 0.8 L 3.75 4.413 L 3.75 8.437 C 3.75 8.59 3.825 8.734 3.95 8.822 L 5.513 9.915 C 5.821 10.131 6.25 9.912 6.25 9.531 L 6.25 4.413 L 9.862 0.8 C 10.157 0.506 9.948 0 9.531 0 Z"/></g></g><g transform="matrix(1,0,0,1,117,70)"><g><path fill="white" stroke="white" paint-order="fill stroke markers" d=" M 9 0 L 11 0 L 10.999999999999998 0 A 9 9 0 0 1 20 9 L 20 11 L 20 11 A 9 9 0 0 1 11 20 L 9 20 L 9 20 A 9 9 0 0 1 0 11.000000000000002 L 0 9 L 0 9.000000000000002 A 9 9 0 0 1 8.999999999999998 0 Z" fill-opacity="0.001" stroke-miterlimit="10" stroke-opacity="0.001" stroke-dasharray=""/></g><g><path fill="#4F5255" stroke="#4F5255" paint-order="fill stroke markers" d=" M 0 0 M 15.26 3.1 L 0.42 3.1 C 0.189 3.1 0 2.911 0 2.68 L 0 1.56 C 0 1.329 0.189 1.14 0.42 1.14 L 15.26 1.14 C 15.491 1.14 15.68 1.329 15.68 1.56 L 15.68 2.68 C 15.68 2.911 15.491 3.1 15.26 3.1 Z M 0 0 M 15.26 8.7 L 0.42 8.7 C 0.189 8.7 0 8.511 0 8.28 L 0 7.16 C 0 6.929 0.189 6.74 0.42 6.74 L 15.26 6.74 C 15.491 6.74 15.68 6.929 15.68 7.16 L 15.68 8.28 C 15.68 8.511 15.491 8.7 15.26 8.7 Z M 0 0 M 15.26 14.3 L 0.42 14.3 C 0.189 14.3 0 14.111 0 13.88 L 0 12.76 C 0 12.529 0.189 12.34 0.42 12.34 L 15.26 12.34 C 15.491 12.34 15.68 12.529 15.68 12.76 L 15.68 13.88 C 15.68 14.111 15.491 14.3 15.26 14.3 Z" stroke-miterlimit="10" stroke-dasharray=""/></g></g><g transform="matrix(1,0,0,1,80,31.5)"><text fill="#383B3D" stroke="none" font-family="Open Sans" font-size="12pt" font-style="normal" font-weight="normal" text-decoration="normal" x="55.37890625" y="12" text-anchor="middle" dominant-baseline="central">CreateJiraIssue</text></g></g><g id="_8363D5DE-0613-480A-9E85-2974C1E9E35F" transform="matrix(1,0,0,1,50,880)"><g><path fill="#fff" stroke="#ccc" id="_8363D5DE-0613-480A-9E85-2974C1E9E35F?shapeType=BACKGROUND" paint-order="fill stroke markers" d=" M 0 5 L 0 5 L 0 5.000000000000001 A 5 5 0 0 1 5 0 L 245 0 L 245 0 L 245 0 A 5 5 0 0 1 250 5 L 250 85 L 250 85 L 250 85 A 5 5 0 0 1 245 90 L 5 90 L 5 90 L 5 90 A 5 5 0 0 1 0 85 Z" stroke-miterlimit="10" stroke-width="2" stroke-dasharray=""/></g><g transform="matrix(1,0,0,1,45,46)"><g id="_8363D5DE-0613-480A-9E85-2974C1E9E35F"><path fill="#8BC1F7" stroke="#d5d5d5" id="_8363D5DE-0613-480A-9E85-2974C1E9E35F" paint-order="fill stroke markers" d=" M 0 -25 L 0 -25 L 1.5308084989341915e-15 -25 A 25 25 0 0 1 25 0 L 25 0 L 25 0 A 25 25 0 0 1 1.5308084989341915e-15 25 L 0 25 L 1.5308084989341915e-15 25 A 25 25 0 0 1 -25 3.061616997868383e-15 L -25 0 L -25 3.061616997868383e-15 A 25 25 0 0 1 1.5308084989341915e-15 -25 Z" stroke-miterlimit="10" stroke-dasharray=""/></g><g><g transform="matrix(0.35,0,0,0.35,-11,-11)"><path fill="#fff" stroke="#fff" paint-order="fill stroke markers" d=" M 0 0 M 35.02 28.49 C 35.02 28.49 34.99 28.459999999999997 34.970000000000006 28.45 L 24.680000000000007 18.16 C 22.900000000000006 16.38 20.000000000000007 16.37 18.220000000000006 18.16 C 16.430000000000007 19.95 16.440000000000005 22.84 18.220000000000006 24.62 L 21.030000000000005 27.43 L 4.57 27.43 C 2.0500000000000003 27.43 0 29.47 0 32 C 0 34.53 2.05 36.57 4.57 36.57 L 20.94 36.57 L 18.19 39.32 C 16.41 41.1 16.400000000000002 44 18.19 45.78 C 19.98 47.56 22.87 47.56 24.650000000000002 45.78 L 34.74 35.69 C 35.02 35.489999999999995 35.28 35.25 35.510000000000005 34.98 C 36.010000000000005 34.4 36.330000000000005 33.709999999999994 36.480000000000004 32.98 C 36.85 31.389999999999997 36.370000000000005 29.65 35.02 28.479999999999997 M 0.01 4.23 C 0.19 1.83 2.25 0 4.66 0 L 59.43 0 C 61.96 0 64 2.05 64 4.57 C 64 7.090000000000001 61.96 9.14 59.43 9.14 L 4.57 9.14 C 1.93 9.14 -0.18 6.91 0.01 4.23 M 46.09 18.29 L 59.330000000000005 18.29 C 61.67 18.29 63.82000000000001 20.2 63.980000000000004 22.53 C 64.17 25.21 62.06 27.43 59.42 27.43 L 45.99 27.43 C 43.35 27.43 41.24 25.21 41.43 22.53 C 41.589999999999996 20.19 43.74 18.29 46.08 18.29 M 59.43 36.57 C 62.07 36.57 64.18 38.79 63.99 41.47 C 63.830000000000005 43.81 61.68 45.71 59.34 45.71 L 46.1 45.71 C 43.760000000000005 45.71 41.61 43.800000000000004 41.45 41.47 C 41.260000000000005 38.79 43.370000000000005 36.57 46.010000000000005 36.57 L 59.440000000000005 36.57 M 0 59.43 C 0 56.9 2.05 54.86 4.57 54.86 L 59.34 54.86 C 61.68000000000001 54.86 63.830000000000005 56.769999999999996 63.99 59.1 C 64.18 61.78 62.07 64 59.43 64 L 4.57 64 C 2.0500000000000003 64 0 61.96 0 59.43 Z" stroke-miterlimit="10" stroke-width="2" stroke-dasharray=""/></g></g></g><g transform="matrix(1,0,0,1,224,28)"><g><path fill="white" stroke="white" paint-order="fill stroke markers" d=" M 9 0 L 11 0 L 10.999999999999998 0 A 9 9 0 0 1 20 9 L 20 11 L 20 11 A 9 9 0 0 1 11 20 L 9 20 L 9 20 A 9 9 0 0 1 0 11.000000000000002 L 0 9 L 0 9.000000000000002 A 9 9 0 0 1 8.999999999999998 0 Z" fill-opacity="0.001" stroke-miterlimit="10" stroke-opacity="0.001" stroke-dasharray=""/></g><g transform="matrix(2,0,0,2,0,0)"><path fill="#CCC" stroke="none" paint-order="stroke fill markers" d=" M 0 0 M 9.531 0 L 0.469 0 C 0.053 0 -0.157 0.505 0.138 0.8 L 3.75 4.413 L 3.75 8.437 C 3.75 8.59 3.825 8.734 3.95 8.822 L 5.513 9.915 C 5.821 10.131 6.25 9.912 6.25 9.531 L 6.25 4.413 L 9.862 0.8 C 10.157 0.506 9.948 0 9.531 0 Z"/></g></g><g transform="matrix(1,0,0,1,80,24)"><text fill="#383B3D" stroke="none" font-family="Open Sans" font-size="12pt" font-style="normal" font-weight="normal" text-decoration="normal" x="72.1328125" y="12" text-anchor="middle" dominant-baseline="central">NormalizeCreateRe</text><text fill="#383B3D" stroke="none" font-family="Open Sans" font-size="12pt" font-style="normal" font-weight="normal" text-decoration="normal" x="72.1328125" y="27" text-anchor="middle" dominant-baseline="central">           sponse           </text></g></g><g id="_593D3C3F-FFFA-46C6-A61B-880381ADE017" transform="matrix(1,0,0,1,304,1097)"><g><path fill="#fff" stroke="#ccc" id="_593D3C3F-FFFA-46C6-A61B-880381ADE017?shapeType=BACKGROUND" paint-order="fill stroke markers" d=" M 0 0 L 46 0 L 46 46 L 0 46 Z" stroke-miterlimit="10" stroke-width="2" stroke-dasharray=""/></g><g transform="matrix(1,0,0,1,9,29)"><text fill="#929292" stroke="none" font-family="Open Sans" font-size="12pt" font-style="normal" font-weight="normal" text-decoration="normal" x="0" y="0" text-anchor="start" dominant-baseline="alphabetic">End</text></g></g><g id="_C3EFA963-4CB0-43D3-884B-28516A5D340D" transform="matrix(1,0,0,1,506,663)"><g><path fill="#fff" stroke="#ccc" id="_C3EFA963-4CB0-43D3-884B-28516A5D340D?shapeType=BACKGROUND" paint-order="fill stroke markers" d=" M 0 5 L 0 5 L 0 5.000000000000001 A 5 5 0 0 1 5 0 L 245 0 L 245 0 L 245 0 A 5 5 0 0 1 250 5 L 250 85 L 250 85 L 250 85 A 5 5 0 0 1 245 90 L 5 90 L 5 90 L 5 90 A 5 5 0 0 1 0 85 Z" stroke-miterlimit="10" stroke-width="2" stroke-dasharray=""/></g><g transform="matrix(1,0,0,1,45,46)"><g id="_C3EFA963-4CB0-43D3-884B-28516A5D340D"><path fill="#0066CC" stroke="#d5d5d5" id="_C3EFA963-4CB0-43D3-884B-28516A5D340D" paint-order="fill stroke markers" d=" M 0 -25 L 0 -25 L 1.5308084989341915e-15 -25 A 25 25 0 0 1 25 0 L 25 0 L 25 0 A 25 25 0 0 1 1.5308084989341915e-15 25 L 0 25 L 1.5308084989341915e-15 25 A 25 25 0 0 1 -25 3.061616997868383e-15 L -25 0 L -25 3.061616997868383e-15 A 25 25 0 0 1 1.5308084989341915e-15 -25 Z" stroke-miterlimit="10" stroke-dasharray=""/></g><g><g transform="matrix(0.35,0,0,0.35,-11,-11)"><path fill="#fff" stroke="#fff" paint-order="fill stroke markers" d=" M 0 0 M 61.99 20.83 C 62.4 21.9 62.050000000000004 23.119999999999997 61.2 23.9 L 55.790000000000006 28.83 C 55.93000000000001 29.869999999999997 56.00000000000001 30.93 56.00000000000001 32 C 56.00000000000001 33.07 55.92000000000001 34.14 55.790000000000006 35.17 L 61.2 40.09 C 62.050000000000004 40.88 62.400000000000006 42.09 61.99 43.17 C 61.440000000000005 44.660000000000004 60.78 46.09 60.03 47.46 L 59.44 48.47 C 58.61 49.85 57.69 51.15 56.68 52.379999999999995 C 55.93 53.269999999999996 54.72 53.58 53.62 53.23 L 46.66 51.01 C 44.98 52.3 43.019999999999996 53.37 41.16 54.199999999999996 L 39.599999999999994 61.339999999999996 C 39.349999999999994 62.459999999999994 38.48 63.26 37.31999999999999 63.559999999999995 C 35.599999999999994 63.849999999999994 33.81999999999999 63.99999999999999 31.89999999999999 63.99999999999999 C 30.199999999999992 63.99999999999999 28.41999999999999 63.849999999999994 26.699999999999992 63.559999999999995 C 25.549999999999994 63.26 24.679999999999993 62.459999999999994 24.429999999999993 61.339999999999996 L 22.869999999999994 54.199999999999996 C 20.889999999999993 53.37 19.039999999999992 52.3 17.369999999999994 51.01 L 10.409999999999993 53.23 C 9.309999999999993 53.58 8.089999999999993 53.269999999999996 7.3499999999999925 52.379999999999995 C 6.339999999999993 51.13999999999999 5.409999999999993 49.839999999999996 4.589999999999993 48.47 L 3.999999999999993 47.46 C 3.239999999999993 46.1 2.579999999999993 44.660000000000004 2.029999999999993 43.17 C 1.6299999999999932 42.09 1.969999999999993 40.88 2.819999999999993 40.09 L 8.229999999999993 35.17 C 8.089999999999993 34.13 8.019999999999992 33.07 8.019999999999992 32 C 8.019999999999992 30.93 8.089999999999993 29.86 8.229999999999993 28.83 L 2.819999999999993 23.9 C 1.9599999999999933 23.11 1.6199999999999932 21.91 2.029999999999993 20.83 C 2.579999999999993 19.34 3.249999999999993 17.9 3.999999999999993 16.54 L 4.579999999999993 15.53 C 5.409999999999993 14.149999999999999 6.329999999999993 12.86 7.3499999999999925 11.62 C 8.089999999999993 10.729999999999999 9.309999999999992 10.42 10.409999999999993 10.77 L 17.369999999999994 12.99 C 19.039999999999992 11.7 20.889999999999993 10.620000000000001 22.869999999999994 9.81 L 24.429999999999993 2.670000000000001 C 24.679999999999993 1.540000000000001 25.549999999999994 0.6300000000000008 26.699999999999992 0.44000000000000083 C 28.429999999999993 0.15000000000000085 30.199999999999992 8.326672684688674e-16 32.00999999999999 8.326672684688674e-16 C 33.81999999999999 8.326672684688674e-16 35.599999999999994 0.15000000000000083 37.31999999999999 0.44000000000000083 C 38.46999999999999 0.6300000000000008 39.349999999999994 1.530000000000001 39.599999999999994 2.670000000000001 L 41.16 9.81 C 43.019999999999996 10.63 44.98 11.700000000000001 46.66 12.99 L 53.62 10.77 C 54.72 10.42 55.93 10.73 56.68 11.62 C 57.69 12.85 58.62 14.149999999999999 59.44 15.53 L 60.03 16.54 C 60.78 17.9 61.44 19.34 61.99 20.83 L 61.99 20.83 Z M 0 0 M 32 42 C 37.53 42 42 37.53 42 31.89 C 42 26.25 37.53 21.89 32 21.89 C 26.47 21.89 22 26.48 22 31.89 C 22 37.3 26.48 42 32 42 Z" stroke-miterlimit="10" stroke-width="2" stroke-dasharray=""/></g></g></g><g transform="matrix(1,0,0,1,224,6)"><g><path fill="white" stroke="white" paint-order="fill stroke markers" d=" M 9 0 L 11 0 L 10.999999999999998 0 A 9 9 0 0 1 20 9 L 20 11 L 20 11 A 9 9 0 0 1 11 20 L 9 20 L 9 20 A 9 9 0 0 1 0 11.000000000000002 L 0 9 L 0 9.000000000000002 A 9 9 0 0 1 8.999999999999998 0 Z" fill-opacity="0.001" stroke-miterlimit="10" stroke-opacity="0.001" stroke-dasharray=""/></g><g transform="matrix(2,0,0,2,0,0)"><path fill="#CCC" stroke="none" paint-order="stroke fill markers" d=" M 0 0 M 2.175 3.286 C 1.743 3.286 1.394 3.637 1.394 4.067 C 1.394 4.498 1.745 4.849 2.175 4.849 C 2.605 4.849 2.956 4.498 2.956 4.067 C 2.956 3.637 2.606 3.286 2.175 3.286 Z M 0 0 M 2.175 4.38 C 2.003 4.38 1.863 4.239 1.863 4.067 C 1.863 3.896 2.003 3.755 2.175 3.755 C 2.346 3.755 2.487 3.896 2.487 4.067 C 2.487 4.239 2.346 4.38 2.175 4.38 Z M 0 0 M 1.875 0.312 C 1.185 0.312 0.625 0.873 0.625 1.563 C 0.625 2.254 1.185 2.813 1.875 2.813 C 2.565 2.813 3.125 2.253 3.125 1.563 C 3.125 0.874 2.565 0.312 1.875 0.312 Z M 0 0 M 1.875 2.032 C 1.616 2.032 1.406 1.822 1.406 1.563 C 1.406 1.304 1.616 1.094 1.875 1.094 C 2.134 1.094 2.344 1.304 2.344 1.563 C 2.344 1.822 2.134 2.032 1.875 2.032 Z M 0 0 M 8.641 2.285 L 7.704 2.208 C 7.665 2.085 7.683 2.121 7.626 2 C 7.75 1.829 8.078 1.493 8.205 1.321 C 8.222 1.296 8.235 1.269 8.235 1.238 C 8.235 1.115 7.716 0.64 7.603 0.535 C 7.577 0.513 7.546 0.5 7.511 0.5 C 7.48 0.5 7.449 0.509 7.423 0.53 L 6.772 1.1 C 6.666 1.047 6.65 1.047 6.535 1.012 L 6.475 0.112 C 6.47 0.048 6.408 0 6.346 0 L 5.53 0 C 5.469 0 5.416 0.044 5.399 0.106 C 5.343 0.32 5.371 0.796 5.348 1.017 C 5.23 1.056 5.241 1.065 5.129 1.122 L 4.452 0.528 C 4.427 0.511 4.395 0.498 4.36 0.498 C 4.233 0.498 3.74 1.031 3.654 1.149 C 3.631 1.174 3.623 1.205 3.623 1.235 C 3.623 1.266 3.637 1.297 3.654 1.322 C 3.793 1.489 4.098 1.773 4.22 1.949 C 4.164 2.059 4.173 2.109 4.137 2.226 L 3.227 2.269 C 3.17 2.278 3.126 2.345 3.126 2.401 L 3.125 3.213 C 3.125 3.276 3.169 3.332 3.23 3.342 L 4.15 3.402 C 4.189 3.524 4.18 3.485 4.242 3.605 C 4.115 3.776 3.793 4.143 3.666 4.309 C 3.648 4.334 3.636 4.361 3.636 4.392 C 3.636 4.52 4.155 4.99 4.269 5.094 C 4.294 5.117 4.325 5.129 4.36 5.129 C 4.39 5.129 4.427 5.121 4.447 5.1 L 5.094 4.495 C 5.2 4.548 5.209 4.543 5.325 4.578 L 5.397 5.515 C 5.406 5.577 5.468 5.625 5.528 5.625 L 6.345 5.625 C 6.406 5.625 6.459 5.581 6.475 5.52 C 6.532 5.304 6.491 4.804 6.513 4.577 C 6.631 4.542 6.62 4.536 6.732 4.479 L 7.423 5.095 C 7.448 5.113 7.479 5.126 7.514 5.126 C 7.642 5.126 8.135 4.589 8.221 4.472 C 8.244 4.449 8.252 4.419 8.252 4.388 C 8.252 4.353 8.238 4.327 8.221 4.302 C 8.082 4.135 7.714 3.824 7.591 3.649 C 7.647 3.54 7.637 3.542 7.672 3.426 L 8.648 3.353 C 8.705 3.345 8.749 3.278 8.749 3.222 L 8.749 2.41 C 8.747 2.355 8.703 2.297 8.641 2.285 Z M 0 0 M 5.92 3.919 C 5.317 3.919 4.822 3.427 4.822 2.819 C 4.822 2.212 5.314 1.72 5.92 1.72 C 6.528 1.72 7.02 2.212 7.02 2.819 C 7.02 3.427 6.528 3.919 5.92 3.919 Z M 0 0 M 8.435 6.25 C 7.941 5.757 7.497 6.25 7.497 6.25 L 5.622 8.125 L 3.728 8.125 C 3.728 8.125 3.415 8.125 3.415 7.813 C 3.415 7.5 3.747 7.5 3.747 7.5 L 5.31 7.5 C 5.31 7.5 5.622 7.5 5.622 7.187 C 5.622 6.875 5.31 6.875 5.31 6.875 L 1.882 6.87 C 1.683 6.865 1.305 6.905 0.944 7.304 L 0 8.301 L 1.872 10 L 2.497 9.374 L 6.117 9.374 C 6.2 9.374 6.28 9.342 6.339 9.283 L 6.872 8.75 L 8.435 7.187 C 8.435 7.187 8.927 6.743 8.435 6.25 Z"/></g></g><g transform="matrix(1,0,0,1,117,70)"><g><path fill="white" stroke="white" paint-order="fill stroke markers" d=" M 9 0 L 11 0 L 10.999999999999998 0 A 9 9 0 0 1 20 9 L 20 11 L 20 11 A 9 9 0 0 1 11 20 L 9 20 L 9 20 A 9 9 0 0 1 0 11.000000000000002 L 0 9 L 0 9.000000000000002 A 9 9 0 0 1 8.999999999999998 0 Z" fill-opacity="0.001" stroke-miterlimit="10" stroke-opacity="0.001" stroke-dasharray=""/></g><g><path fill="#4F5255" stroke="#4F5255" paint-order="fill stroke markers" d=" M 0 0 M 15.26 3.1 L 0.42 3.1 C 0.189 3.1 0 2.911 0 2.68 L 0 1.56 C 0 1.329 0.189 1.14 0.42 1.14 L 15.26 1.14 C 15.491 1.14 15.68 1.329 15.68 1.56 L 15.68 2.68 C 15.68 2.911 15.491 3.1 15.26 3.1 Z M 0 0 M 15.26 8.7 L 0.42 8.7 C 0.189 8.7 0 8.511 0 8.28 L 0 7.16 C 0 6.929 0.189 6.74 0.42 6.74 L 15.26 6.74 C 15.491 6.74 15.68 6.929 15.68 7.16 L 15.68 8.28 C 15.68 8.511 15.491 8.7 15.26 8.7 Z M 0 0 M 15.26 14.3 L 0.42 14.3 C 0.189 14.3 0 14.111 0 13.88 L 0 12.76 C 0 12.529 0.189 12.34 0.42 12.34 L 15.26 12.34 C 15.491 12.34 15.68 12.529 15.68 12.76 L 15.68 13.88 C 15.68 14.111 15.491 14.3 15.26 14.3 Z" stroke-miterlimit="10" stroke-dasharray=""/></g></g><g transform="matrix(1,0,0,1,80,31.5)"><text fill="#383B3D" stroke="none" font-family="Open Sans" font-size="12pt" font-style="normal" font-weight="normal" text-decoration="normal" x="44.11328125" y="12" text-anchor="middle" dominant-baseline="central">GetJiraIssue</text></g></g><g id="_43704092-8BF4-4D20-A9F9-D7489D453A6E" transform="matrix(1,0,0,1,354,880)"><g><path fill="#fff" stroke="#ccc" id="_43704092-8BF4-4D20-A9F9-D7489D453A6E?shapeType=BACKGROUND" paint-order="fill stroke markers" d=" M 0 5 L 0 5 L 0 5.000000000000001 A 5 5 0 0 1 5 0 L 245 0 L 245 0 L 245 0 A 5 5 0 0 1 250 5 L 250 85 L 250 85 L 250 85 A 5 5 0 0 1 245 90 L 5 90 L 5 90 L 5 90 A 5 5 0 0 1 0 85 Z" stroke-miterlimit="10" stroke-width="2" stroke-dasharray=""/></g><g transform="matrix(1,0,0,1,45,46)"><g id="_43704092-8BF4-4D20-A9F9-D7489D453A6E"><path fill="#8BC1F7" stroke="#d5d5d5" id="_43704092-8BF4-4D20-A9F9-D7489D453A6E" paint-order="fill stroke markers" d=" M 0 -25 L 0 -25 L 1.5308084989341915e-15 -25 A 25 25 0 0 1 25 0 L 25 0 L 25 0 A 25 25 0 0 1 1.5308084989341915e-15 25 L 0 25 L 1.5308084989341915e-15 25 A 25 25 0 0 1 -25 3.061616997868383e-15 L -25 0 L -25 3.061616997868383e-15 A 25 25 0 0 1 1.5308084989341915e-15 -25 Z" stroke-miterlimit="10" stroke-dasharray=""/></g><g><g transform="matrix(0.35,0,0,0.35,-11,-11)"><path fill="#fff" stroke="#fff" paint-order="fill stroke markers" d=" M 0 0 M 35.02 28.49 C 35.02 28.49 34.99 28.459999999999997 34.970000000000006 28.45 L 24.680000000000007 18.16 C 22.900000000000006 16.38 20.000000000000007 16.37 18.220000000000006 18.16 C 16.430000000000007 19.95 16.440000000000005 22.84 18.220000000000006 24.62 L 21.030000000000005 27.43 L 4.57 27.43 C 2.0500000000000003 27.43 0 29.47 0 32 C 0 34.53 2.05 36.57 4.57 36.57 L 20.94 36.57 L 18.19 39.32 C 16.41 41.1 16.400000000000002 44 18.19 45.78 C 19.98 47.56 22.87 47.56 24.650000000000002 45.78 L 34.74 35.69 C 35.02 35.489999999999995 35.28 35.25 35.510000000000005 34.98 C 36.010000000000005 34.4 36.330000000000005 33.709999999999994 36.480000000000004 32.98 C 36.85 31.389999999999997 36.370000000000005 29.65 35.02 28.479999999999997 M 0.01 4.23 C 0.19 1.83 2.25 0 4.66 0 L 59.43 0 C 61.96 0 64 2.05 64 4.57 C 64 7.090000000000001 61.96 9.14 59.43 9.14 L 4.57 9.14 C 1.93 9.14 -0.18 6.91 0.01 4.23 M 46.09 18.29 L 59.330000000000005 18.29 C 61.67 18.29 63.82000000000001 20.2 63.980000000000004 22.53 C 64.17 25.21 62.06 27.43 59.42 27.43 L 45.99 27.43 C 43.35 27.43 41.24 25.21 41.43 22.53 C 41.589999999999996 20.19 43.74 18.29 46.08 18.29 M 59.43 36.57 C 62.07 36.57 64.18 38.79 63.99 41.47 C 63.830000000000005 43.81 61.68 45.71 59.34 45.71 L 46.1 45.71 C 43.760000000000005 45.71 41.61 43.800000000000004 41.45 41.47 C 41.260000000000005 38.79 43.370000000000005 36.57 46.010000000000005 36.57 L 59.440000000000005 36.57 M 0 59.43 C 0 56.9 2.05 54.86 4.57 54.86 L 59.34 54.86 C 61.68000000000001 54.86 63.830000000000005 56.769999999999996 63.99 59.1 C 64.18 61.78 62.07 64 59.43 64 L 4.57 64 C 2.0500000000000003 64 0 61.96 0 59.43 Z" stroke-miterlimit="10" stroke-width="2" stroke-dasharray=""/></g></g></g><g transform="matrix(1,0,0,1,224,28)"><g><path fill="white" stroke="white" paint-order="fill stroke markers" d=" M 9 0 L 11 0 L 10.999999999999998 0 A 9 9 0 0 1 20 9 L 20 11 L 20 11 A 9 9 0 0 1 11 20 L 9 20 L 9 20 A 9 9 0 0 1 0 11.000000000000002 L 0 9 L 0 9.000000000000002 A 9 9 0 0 1 8.999999999999998 0 Z" fill-opacity="0.001" stroke-miterlimit="10" stroke-opacity="0.001" stroke-dasharray=""/></g><g transform="matrix(2,0,0,2,0,0)"><path fill="#CCC" stroke="none" paint-order="stroke fill markers" d=" M 0 0 M 9.531 0 L 0.469 0 C 0.053 0 -0.157 0.505 0.138 0.8 L 3.75 4.413 L 3.75 8.437 C 3.75 8.59 3.825 8.734 3.95 8.822 L 5.513 9.915 C 5.821 10.131 6.25 9.912 6.25 9.531 L 6.25 4.413 L 9.862 0.8 C 10.157 0.506 9.948 0 9.531 0 Z"/></g></g><g transform="matrix(1,0,0,1,80,24)"><text fill="#383B3D" stroke="none" font-family="Open Sans" font-size="12pt" font-style="normal" font-weight="normal" text-decoration="normal" x="74.41796875" y="12" text-anchor="middle" dominant-baseline="central">NormalizeGetRespo</text><text fill="#383B3D" stroke="none" font-family="Open Sans" font-size="12pt" font-style="normal" font-weight="normal" text-decoration="normal" x="74.41796875" y="27" text-anchor="middle" dominant-baseline="central">              nse               </text></g></g><g id="_82B98A19-D9AF-43E9-A0DF-83EA8D181609" transform="matrix(1,0,0,1,608,1097)"><g><path fill="#fff" stroke="#ccc" id="_82B98A19-D9AF-43E9-A0DF-83EA8D181609?shapeType=BACKGROUND" paint-order="fill stroke markers" d=" M 0 0 L 46 0 L 46 46 L 0 46 Z" stroke-miterlimit="10" stroke-width="2" stroke-dasharray=""/></g><g transform="matrix(1,0,0,1,9,29)"><text fill="#929292" stroke="none" font-family="Open Sans" font-size="12pt" font-style="normal" font-weight="normal" text-decoration="normal" x="0" y="0" text-anchor="start" dominant-baseline="alphabetic">End</text></g></g><g id="_236F3CF0-44F4-45D2-B91E-CB2B901F53F4" transform="matrix(1,0,0,1,810,663)"><g><path fill="#fff" stroke="#ccc" id="_236F3CF0-44F4-45D2-B91E-CB2B901F53F4?shapeType=BACKGROUND" paint-order="fill stroke markers" d=" M 0 5 L 0 5 L 0 5.000000000000001 A 5 5 0 0 1 5 0 L 245 0 L 245 0 L 245 0 A 5 5 0 0 1 250 5 L 250 85 L 250 85 L 250 85 A 5 5 0 0 1 245 90 L 5 90 L 5 90 L 5 90 A 5 5 0 0 1 0 85 Z" stroke-miterlimit="10" stroke-width="2" stroke-dasharray=""/></g><g transform="matrix(1,0,0,1,45,46)"><g id="_236F3CF0-44F4-45D2-B91E-CB2B901F53F4"><path fill="#0066CC" stroke="#d5d5d5" id="_236F3CF0-44F4-45D2-B91E-CB2B901F53F4" paint-order="fill stroke markers" d=" M 0 -25 L 0 -25 L 1.5308084989341915e-15 -25 A 25 25 0 0 1 25 0 L 25 0 L 25 0 A 25 25 0 0 1 1.5308084989341915e-15 25 L 0 25 L 1.5308084989341915e-15 25 A 25 25 0 0 1 -25 3.061616997868383e-15 L -25 0 L -25 3.061616997868383e-15 A 25 25 0 0 1 1.5308084989341915e-15 -25 Z" stroke-miterlimit="10" stroke-dasharray=""/></g><g><g transform="matrix(0.35,0,0,0.35,-11,-11)"><path fill="#fff" stroke="#fff" paint-order="fill stroke markers" d=" M 0 0 M 61.99 20.83 C 62.4 21.9 62.050000000000004 23.119999999999997 61.2 23.9 L 55.790000000000006 28.83 C 55.93000000000001 29.869999999999997 56.00000000000001 30.93 56.00000000000001 32 C 56.00000000000001 33.07 55.92000000000001 34.14 55.790000000000006 35.17 L 61.2 40.09 C 62.050000000000004 40.88 62.400000000000006 42.09 61.99 43.17 C 61.440000000000005 44.660000000000004 60.78 46.09 60.03 47.46 L 59.44 48.47 C 58.61 49.85 57.69 51.15 56.68 52.379999999999995 C 55.93 53.269999999999996 54.72 53.58 53.62 53.23 L 46.66 51.01 C 44.98 52.3 43.019999999999996 53.37 41.16 54.199999999999996 L 39.599999999999994 61.339999999999996 C 39.349999999999994 62.459999999999994 38.48 63.26 37.31999999999999 63.559999999999995 C 35.599999999999994 63.849999999999994 33.81999999999999 63.99999999999999 31.89999999999999 63.99999999999999 C 30.199999999999992 63.99999999999999 28.41999999999999 63.849999999999994 26.699999999999992 63.559999999999995 C 25.549999999999994 63.26 24.679999999999993 62.459999999999994 24.429999999999993 61.339999999999996 L 22.869999999999994 54.199999999999996 C 20.889999999999993 53.37 19.039999999999992 52.3 17.369999999999994 51.01 L 10.409999999999993 53.23 C 9.309999999999993 53.58 8.089999999999993 53.269999999999996 7.3499999999999925 52.379999999999995 C 6.339999999999993 51.13999999999999 5.409999999999993 49.839999999999996 4.589999999999993 48.47 L 3.999999999999993 47.46 C 3.239999999999993 46.1 2.579999999999993 44.660000000000004 2.029999999999993 43.17 C 1.6299999999999932 42.09 1.969999999999993 40.88 2.819999999999993 40.09 L 8.229999999999993 35.17 C 8.089999999999993 34.13 8.019999999999992 33.07 8.019999999999992 32 C 8.019999999999992 30.93 8.089999999999993 29.86 8.229999999999993 28.83 L 2.819999999999993 23.9 C 1.9599999999999933 23.11 1.6199999999999932 21.91 2.029999999999993 20.83 C 2.579999999999993 19.34 3.249999999999993 17.9 3.999999999999993 16.54 L 4.579999999999993 15.53 C 5.409999999999993 14.149999999999999 6.329999999999993 12.86 7.3499999999999925 11.62 C 8.089999999999993 10.729999999999999 9.309999999999992 10.42 10.409999999999993 10.77 L 17.369999999999994 12.99 C 19.039999999999992 11.7 20.889999999999993 10.620000000000001 22.869999999999994 9.81 L 24.429999999999993 2.670000000000001 C 24.679999999999993 1.540000000000001 25.549999999999994 0.6300000000000008 26.699999999999992 0.44000000000000083 C 28.429999999999993 0.15000000000000085 30.199999999999992 8.326672684688674e-16 32.00999999999999 8.326672684688674e-16 C 33.81999999999999 8.326672684688674e-16 35.599999999999994 0.15000000000000083 37.31999999999999 0.44000000000000083 C 38.46999999999999 0.6300000000000008 39.349999999999994 1.530000000000001 39.599999999999994 2.670000000000001 L 41.16 9.81 C 43.019999999999996 10.63 44.98 11.700000000000001 46.66 12.99 L 53.62 10.77 C 54.72 10.42 55.93 10.73 56.68 11.62 C 57.69 12.85 58.62 14.149999999999999 59.44 15.53 L 60.03 16.54 C 60.78 17.9 61.44 19.34 61.99 20.83 L 61.99 20.83 Z M 0 0 M 32 42 C 37.53 42 42 37.53 42 31.89 C 42 26.25 37.53 21.89 32 21.89 C 26.47 21.89 22 26.48 22 31.89 C 22 37.3 26.48 42 32 42 Z" stroke-miterlimit="10" stroke-width="2" stroke-dasharray=""/></g></g></g><g transform="matrix(1,0,0,1,224,6)"><g><path fill="white" stroke="white" paint-order="fill stroke markers" d=" M 9 0 L 11 0 L 10.999999999999998 0 A 9 9 0 0 1 20 9 L 20 11 L 20 11 A 9 9 0 0 1 11 20 L 9 20 L 9 20 A 9 9 0 0 1 0 11.000000000000002 L 0 9 L 0 9.000000000000002 A 9 9 0 0 1 8.999999999999998 0 Z" fill-opacity="0.001" stroke-miterlimit="10" stroke-opacity="0.001" stroke-dasharray=""/></g><g transform="matrix(2,0,0,2,0,0)"><path fill="#CCC" stroke="none" paint-order="stroke fill markers" d=" M 0 0 M 2.175 3.286 C 1.743 3.286 1.394 3.637 1.394 4.067 C 1.394 4.498 1.745 4.849 2.175 4.849 C 2.605 4.849 2.956 4.498 2.956 4.067 C 2.956 3.637 2.606 3.286 2.175 3.286 Z M 0 0 M 2.175 4.38 C 2.003 4.38 1.863 4.239 1.863 4.067 C 1.863 3.896 2.003 3.755 2.175 3.755 C 2.346 3.755 2.487 3.896 2.487 4.067 C 2.487 4.239 2.346 4.38 2.175 4.38 Z M 0 0 M 1.875 0.312 C 1.185 0.312 0.625 0.873 0.625 1.563 C 0.625 2.254 1.185 2.813 1.875 2.813 C 2.565 2.813 3.125 2.253 3.125 1.563 C 3.125 0.874 2.565 0.312 1.875 0.312 Z M 0 0 M 1.875 2.032 C 1.616 2.032 1.406 1.822 1.406 1.563 C 1.406 1.304 1.616 1.094 1.875 1.094 C 2.134 1.094 2.344 1.304 2.344 1.563 C 2.344 1.822 2.134 2.032 1.875 2.032 Z M 0 0 M 8.641 2.285 L 7.704 2.208 C 7.665 2.085 7.683 2.121 7.626 2 C 7.75 1.829 8.078 1.493 8.205 1.321 C 8.222 1.296 8.235 1.269 8.235 1.238 C 8.235 1.115 7.716 0.64 7.603 0.535 C 7.577 0.513 7.546 0.5 7.511 0.5 C 7.48 0.5 7.449 0.509 7.423 0.53 L 6.772 1.1 C 6.666 1.047 6.65 1.047 6.535 1.012 L 6.475 0.112 C 6.47 0.048 6.408 0 6.346 0 L 5.53 0 C 5.469 0 5.416 0.044 5.399 0.106 C 5.343 0.32 5.371 0.796 5.348 1.017 C 5.23 1.056 5.241 1.065 5.129 1.122 L 4.452 0.528 C 4.427 0.511 4.395 0.498 4.36 0.498 C 4.233 0.498 3.74 1.031 3.654 1.149 C 3.631 1.174 3.623 1.205 3.623 1.235 C 3.623 1.266 3.637 1.297 3.654 1.322 C 3.793 1.489 4.098 1.773 4.22 1.949 C 4.164 2.059 4.173 2.109 4.137 2.226 L 3.227 2.269 C 3.17 2.278 3.126 2.345 3.126 2.401 L 3.125 3.213 C 3.125 3.276 3.169 3.332 3.23 3.342 L 4.15 3.402 C 4.189 3.524 4.18 3.485 4.242 3.605 C 4.115 3.776 3.793 4.143 3.666 4.309 C 3.648 4.334 3.636 4.361 3.636 4.392 C 3.636 4.52 4.155 4.99 4.269 5.094 C 4.294 5.117 4.325 5.129 4.36 5.129 C 4.39 5.129 4.427 5.121 4.447 5.1 L 5.094 4.495 C 5.2 4.548 5.209 4.543 5.325 4.578 L 5.397 5.515 C 5.406 5.577 5.468 5.625 5.528 5.625 L 6.345 5.625 C 6.406 5.625 6.459 5.581 6.475 5.52 C 6.532 5.304 6.491 4.804 6.513 4.577 C 6.631 4.542 6.62 4.536 6.732 4.479 L 7.423 5.095 C 7.448 5.113 7.479 5.126 7.514 5.126 C 7.642 5.126 8.135 4.589 8.221 4.472 C 8.244 4.449 8.252 4.419 8.252 4.388 C 8.252 4.353 8.238 4.327 8.221 4.302 C 8.082 4.135 7.714 3.824 7.591 3.649 C 7.647 3.54 7.637 3.542 7.672 3.426 L 8.648 3.353 C 8.705 3.345 8.749 3.278 8.749 3.222 L 8.749 2.41 C 8.747 2.355 8.703 2.297 8.641 2.285 Z M 0 0 M 5.92 3.919 C 5.317 3.919 4.822 3.427 4.822 2.819 C 4.822 2.212 5.314 1.72 5.92 1.72 C 6.528 1.72 7.02 2.212 7.02 2.819 C 7.02 3.427 6.528 3.919 5.92 3.919 Z M 0 0 M 8.435 6.25 C 7.941 5.757 7.497 6.25 7.497 6.25 L 5.622 8.125 L 3.728 8.125 C 3.728 8.125 3.415 8.125 3.415 7.813 C 3.415 7.5 3.747 7.5 3.747 7.5 L 5.31 7.5 C 5.31 7.5 5.622 7.5 5.622 7.187 C 5.622 6.875 5.31 6.875 5.31 6.875 L 1.882 6.87 C 1.683 6.865 1.305 6.905 0.944 7.304 L 0 8.301 L 1.872 10 L 2.497 9.374 L 6.117 9.374 C 6.2 9.374 6.28 9.342 6.339 9.283 L 6.872 8.75 L 8.435 7.187 C 8.435 7.187 8.927 6.743 8.435 6.25 Z"/></g></g><g transform="matrix(1,0,0,1,117,70)"><g><path fill="white" stroke="white" paint-order="fill stroke markers" d=" M 9 0 L 11 0 L 10.999999999999998 0 A 9 9 0 0 1 20 9 L 20 11 L 20 11 A 9 9 0 0 1 11 20 L 9 20 L 9 20 A 9 9 0 0 1 0 11.000000000000002 L 0 9 L 0 9.000000000000002 A 9 9 0 0 1 8.999999999999998 0 Z" fill-opacity="0.001" stroke-miterlimit="10" stroke-opacity="0.001" stroke-dasharray=""/></g><g><path fill="#4F5255" stroke="#4F5255" paint-order="fill stroke markers" d=" M 0 0 M 15.26 3.1 L 0.42 3.1 C 0.189 3.1 0 2.911 0 2.68 L 0 1.56 C 0 1.329 0.189 1.14 0.42 1.14 L 15.26 1.14 C 15.491 1.14 15.68 1.329 15.68 1.56 L 15.68 2.68 C 15.68 2.911 15.491 3.1 15.26 3.1 Z M 0 0 M 15.26 8.7 L 0.42 8.7 C 0.189 8.7 0 8.511 0 8.28 L 0 7.16 C 0 6.929 0.189 6.74 0.42 6.74 L 15.26 6.74 C 15.491 6.74 15.68 6.929 15.68 7.16 L 15.68 8.28 C 15.68 8.511 15.491 8.7 15.26 8.7 Z M 0 0 M 15.26 14.3 L 0.42 14.3 C 0.189 14.3 0 14.111 0 13.88 L 0 12.76 C 0 12.529 0.189 12.34 0.42 12.34 L 15.26 12.34 C 15.491 12.34 15.68 12.529 15.68 12.76 L 15.68 13.88 C 15.68 14.111 15.491 14.3 15.26 14.3 Z" stroke-miterlimit="10" stroke-dasharray=""/></g></g><g transform="matrix(1,0,0,1,80,31.5)"><text fill="#383B3D" stroke="none" font-family="Open Sans" font-size="12pt" font-style="normal" font-weight="normal" text-decoration="normal" x="45.7578125" y="12" text-anchor="middle" dominant-baseline="central">Unmanaged</text></g></g><g id="_259F9F4D-2CBE-4E46-AB69-33704A16DE51" transform="matrix(1,0,0,1,1064,880)"><g><path fill="#fff" stroke="#ccc" id="_259F9F4D-2CBE-4E46-AB69-33704A16DE51?shapeType=BACKGROUND" paint-order="fill stroke markers" d=" M 0 0 L 46 0 L 46 46 L 0 46 Z" stroke-miterlimit="10" stroke-width="2" stroke-dasharray=""/></g><g transform="matrix(1,0,0,1,9,29)"><text fill="#929292" stroke="none" font-family="Open Sans" font-size="12pt" font-style="normal" font-weight="normal" text-decoration="normal" x="0" y="0" text-anchor="start" dominant-baseline="alphabetic">End</text></g></g><g id="_90AA7804-759A-47EB-841B-012FF70717DB" transform="matrix(1,0,0,1,658,880)"><g><path fill="#fff" stroke="#ccc" id="_90AA7804-759A-47EB-841B-012FF70717DB?shapeType=BACKGROUND" paint-order="fill stroke markers" d=" M 0 5 L 0 5 L 0 5.000000000000001 A 5 5 0 0 1 5 0 L 245 0 L 245 0 L 245 0 A 5 5 0 0 1 250 5 L 250 85 L 250 85 L 250 85 A 5 5 0 0 1 245 90 L 5 90 L 5 90 L 5 90 A 5 5 0 0 1 0 85 Z" stroke-miterlimit="10" stroke-width="2" stroke-dasharray=""/></g><g transform="matrix(1,0,0,1,45,46)"><g id="_90AA7804-759A-47EB-841B-012FF70717DB"><path fill="#0066CC" stroke="#d5d5d5" id="_90AA7804-759A-47EB-841B-012FF70717DB" paint-order="fill stroke markers" d=" M 0 -25 L 0 -25 L 1.5308084989341915e-15 -25 A 25 25 0 0 1 25 0 L 25 0 L 25 0 A 25 25 0 0 1 1.5308084989341915e-15 25 L 0 25 L 1.5308084989341915e-15 25 A 25 25 0 0 1 -25 3.061616997868383e-15 L -25 0 L -25 3.061616997868383e-15 A 25 25 0 0 1 1.5308084989341915e-15 -25 Z" stroke-miterlimit="10" stroke-dasharray=""/></g><g><g transform="matrix(0.35,0,0,0.35,-11,-11)"><path fill="#fff" stroke="#fff" paint-order="fill stroke markers" d=" M 0 0 M 61.99 20.83 C 62.4 21.9 62.050000000000004 23.119999999999997 61.2 23.9 L 55.790000000000006 28.83 C 55.93000000000001 29.869999999999997 56.00000000000001 30.93 56.00000000000001 32 C 56.00000000000001 33.07 55.92000000000001 34.14 55.790000000000006 35.17 L 61.2 40.09 C 62.050000000000004 40.88 62.400000000000006 42.09 61.99 43.17 C 61.440000000000005 44.660000000000004 60.78 46.09 60.03 47.46 L 59.44 48.47 C 58.61 49.85 57.69 51.15 56.68 52.379999999999995 C 55.93 53.269999999999996 54.72 53.58 53.62 53.23 L 46.66 51.01 C 44.98 52.3 43.019999999999996 53.37 41.16 54.199999999999996 L 39.599999999999994 61.339999999999996 C 39.349999999999994 62.459999999999994 38.48 63.26 37.31999999999999 63.559999999999995 C 35.599999999999994 63.849999999999994 33.81999999999999 63.99999999999999 31.89999999999999 63.99999999999999 C 30.199999999999992 63.99999999999999 28.41999999999999 63.849999999999994 26.699999999999992 63.559999999999995 C 25.549999999999994 63.26 24.679999999999993 62.459999999999994 24.429999999999993 61.339999999999996 L 22.869999999999994 54.199999999999996 C 20.889999999999993 53.37 19.039999999999992 52.3 17.369999999999994 51.01 L 10.409999999999993 53.23 C 9.309999999999993 53.58 8.089999999999993 53.269999999999996 7.3499999999999925 52.379999999999995 C 6.339999999999993 51.13999999999999 5.409999999999993 49.839999999999996 4.589999999999993 48.47 L 3.999999999999993 47.46 C 3.239999999999993 46.1 2.579999999999993 44.660000000000004 2.029999999999993 43.17 C 1.6299999999999932 42.09 1.969999999999993 40.88 2.819999999999993 40.09 L 8.229999999999993 35.17 C 8.089999999999993 34.13 8.019999999999992 33.07 8.019999999999992 32 C 8.019999999999992 30.93 8.089999999999993 29.86 8.229999999999993 28.83 L 2.819999999999993 23.9 C 1.9599999999999933 23.11 1.6199999999999932 21.91 2.029999999999993 20.83 C 2.579999999999993 19.34 3.249999999999993 17.9 3.999999999999993 16.54 L 4.579999999999993 15.53 C 5.409999999999993 14.149999999999999 6.329999999999993 12.86 7.3499999999999925 11.62 C 8.089999999999993 10.729999999999999 9.309999999999992 10.42 10.409999999999993 10.77 L 17.369999999999994 12.99 C 19.039999999999992 11.7 20.889999999999993 10.620000000000001 22.869999999999994 9.81 L 24.429999999999993 2.670000000000001 C 24.679999999999993 1.540000000000001 25.549999999999994 0.6300000000000008 26.699999999999992 0.44000000000000083 C 28.429999999999993 0.15000000000000085 30.199999999999992 8.326672684688674e-16 32.00999999999999 8.326672684688674e-16 C 33.81999999999999 8.326672684688674e-16 35.599999999999994 0.15000000000000083 37.31999999999999 0.44000000000000083 C 38.46999999999999 0.6300000000000008 39.349999999999994 1.530000000000001 39.599999999999994 2.670000000000001 L 41.16 9.81 C 43.019999999999996 10.63 44.98 11.700000000000001 46.66 12.99 L 53.62 10.77 C 54.72 10.42 55.93 10.73 56.68 11.62 C 57.69 12.85 58.62 14.149999999999999 59.44 15.53 L 60.03 16.54 C 60.78 17.9 61.44 19.34 61.99 20.83 L 61.99 20.83 Z M 0 0 M 32 42 C 37.53 42 42 37.53 42 31.89 C 42 26.25 37.53 21.89 32 21.89 C 26.47 21.89 22 26.48 22 31.89 C 22 37.3 26.48 42 32 42 Z" stroke-miterlimit="10" stroke-width="2" stroke-dasharray=""/></g></g></g><g transform="matrix(1,0,0,1,224,6)"><g><path fill="white" stroke="white" paint-order="fill stroke markers" d=" M 9 0 L 11 0 L 10.999999999999998 0 A 9 9 0 0 1 20 9 L 20 11 L 20 11 A 9 9 0 0 1 11 20 L 9 20 L 9 20 A 9 9 0 0 1 0 11.000000000000002 L 0 9 L 0 9.000000000000002 A 9 9 0 0 1 8.999999999999998 0 Z" fill-opacity="0.001" stroke-miterlimit="10" stroke-opacity="0.001" stroke-dasharray=""/></g><g transform="matrix(2,0,0,2,0,0)"><path fill="#CCC" stroke="none" paint-order="stroke fill markers" d=" M 0 0 M 2.175 3.286 C 1.743 3.286 1.394 3.637 1.394 4.067 C 1.394 4.498 1.745 4.849 2.175 4.849 C 2.605 4.849 2.956 4.498 2.956 4.067 C 2.956 3.637 2.606 3.286 2.175 3.286 Z M 0 0 M 2.175 4.38 C 2.003 4.38 1.863 4.239 1.863 4.067 C 1.863 3.896 2.003 3.755 2.175 3.755 C 2.346 3.755 2.487 3.896 2.487 4.067 C 2.487 4.239 2.346 4.38 2.175 4.38 Z M 0 0 M 1.875 0.312 C 1.185 0.312 0.625 0.873 0.625 1.563 C 0.625 2.254 1.185 2.813 1.875 2.813 C 2.565 2.813 3.125 2.253 3.125 1.563 C 3.125 0.874 2.565 0.312 1.875 0.312 Z M 0 0 M 1.875 2.032 C 1.616 2.032 1.406 1.822 1.406 1.563 C 1.406 1.304 1.616 1.094 1.875 1.094 C 2.134 1.094 2.344 1.304 2.344 1.563 C 2.344 1.822 2.134 2.032 1.875 2.032 Z M 0 0 M 8.641 2.285 L 7.704 2.208 C 7.665 2.085 7.683 2.121 7.626 2 C 7.75 1.829 8.078 1.493 8.205 1.321 C 8.222 1.296 8.235 1.269 8.235 1.238 C 8.235 1.115 7.716 0.64 7.603 0.535 C 7.577 0.513 7.546 0.5 7.511 0.5 C 7.48 0.5 7.449 0.509 7.423 0.53 L 6.772 1.1 C 6.666 1.047 6.65 1.047 6.535 1.012 L 6.475 0.112 C 6.47 0.048 6.408 0 6.346 0 L 5.53 0 C 5.469 0 5.416 0.044 5.399 0.106 C 5.343 0.32 5.371 0.796 5.348 1.017 C 5.23 1.056 5.241 1.065 5.129 1.122 L 4.452 0.528 C 4.427 0.511 4.395 0.498 4.36 0.498 C 4.233 0.498 3.74 1.031 3.654 1.149 C 3.631 1.174 3.623 1.205 3.623 1.235 C 3.623 1.266 3.637 1.297 3.654 1.322 C 3.793 1.489 4.098 1.773 4.22 1.949 C 4.164 2.059 4.173 2.109 4.137 2.226 L 3.227 2.269 C 3.17 2.278 3.126 2.345 3.126 2.401 L 3.125 3.213 C 3.125 3.276 3.169 3.332 3.23 3.342 L 4.15 3.402 C 4.189 3.524 4.18 3.485 4.242 3.605 C 4.115 3.776 3.793 4.143 3.666 4.309 C 3.648 4.334 3.636 4.361 3.636 4.392 C 3.636 4.52 4.155 4.99 4.269 5.094 C 4.294 5.117 4.325 5.129 4.36 5.129 C 4.39 5.129 4.427 5.121 4.447 5.1 L 5.094 4.495 C 5.2 4.548 5.209 4.543 5.325 4.578 L 5.397 5.515 C 5.406 5.577 5.468 5.625 5.528 5.625 L 6.345 5.625 C 6.406 5.625 6.459 5.581 6.475 5.52 C 6.532 5.304 6.491 4.804 6.513 4.577 C 6.631 4.542 6.62 4.536 6.732 4.479 L 7.423 5.095 C 7.448 5.113 7.479 5.126 7.514 5.126 C 7.642 5.126 8.135 4.589 8.221 4.472 C 8.244 4.449 8.252 4.419 8.252 4.388 C 8.252 4.353 8.238 4.327 8.221 4.302 C 8.082 4.135 7.714 3.824 7.591 3.649 C 7.647 3.54 7.637 3.542 7.672 3.426 L 8.648 3.353 C 8.705 3.345 8.749 3.278 8.749 3.222 L 8.749 2.41 C 8.747 2.355 8.703 2.297 8.641 2.285 Z M 0 0 M 5.92 3.919 C 5.317 3.919 4.822 3.427 4.822 2.819 C 4.822 2.212 5.314 1.72 5.92 1.72 C 6.528 1.72 7.02 2.212 7.02 2.819 C 7.02 3.427 6.528 3.919 5.92 3.919 Z M 0 0 M 8.435 6.25 C 7.941 5.757 7.497 6.25 7.497 6.25 L 5.622 8.125 L 3.728 8.125 C 3.728 8.125 3.415 8.125 3.415 7.813 C 3.415 7.5 3.747 7.5 3.747 7.5 L 5.31 7.5 C 5.31 7.5 5.622 7.5 5.622 7.187 C 5.622 6.875 5.31 6.875 5.31 6.875 L 1.882 6.87 C 1.683 6.865 1.305 6.905 0.944 7.304 L 0 8.301 L 1.872 10 L 2.497 9.374 L 6.117 9.374 C 6.2 9.374 6.28 9.342 6.339 9.283 L 6.872 8.75 L 8.435 7.187 C 8.435 7.187 8.927 6.743 8.435 6.25 Z"/></g></g><g transform="matrix(1,0,0,1,224,28)"><g><path fill="white" stroke="white" paint-order="fill stroke markers" d=" M 9 0 L 11 0 L 10.999999999999998 0 A 9 9 0 0 1 20 9 L 20 11 L 20 11 A 9 9 0 0 1 11 20 L 9 20 L 9 20 A 9 9 0 0 1 0 11.000000000000002 L 0 9 L 0 9.000000000000002 A 9 9 0 0 1 8.999999999999998 0 Z" fill-opacity="0.001" stroke-miterlimit="10" stroke-opacity="0.001" stroke-dasharray=""/></g><g transform="matrix(2,0,0,2,0,0)"><path fill="#CCC" stroke="none" paint-order="stroke fill markers" d=" M 0 0 M 9.531 0 L 0.469 0 C 0.053 0 -0.157 0.505 0.138 0.8 L 3.75 4.413 L 3.75 8.437 C 3.75 8.59 3.825 8.734 3.95 8.822 L 5.513 9.915 C 5.821 10.131 6.25 9.912 6.25 9.531 L 6.25 4.413 L 9.862 0.8 C 10.157 0.506 9.948 0 9.531 0 Z"/></g></g><g transform="matrix(1,0,0,1,117,70)"><g><path fill="white" stroke="white" paint-order="fill stroke markers" d=" M 9 0 L 11 0 L 10.999999999999998 0 A 9 9 0 0 1 20 9 L 20 11 L 20 11 A 9 9 0 0 1 11 20 L 9 20 L 9 20 A 9 9 0 0 1 0 11.000000000000002 L 0 9 L 0 9.000000000000002 A 9 9 0 0 1 8.999999999999998 0 Z" fill-opacity="0.001" stroke-miterlimit="10" stroke-opacity="0.001" stroke-dasharray=""/></g><g><path fill="#4F5255" stroke="#4F5255" paint-order="fill stroke markers" d=" M 0 0 M 15.26 3.1 L 0.42 3.1 C 0.189 3.1 0 2.911 0 2.68 L 0 1.56 C 0 1.329 0.189 1.14 0.42 1.14 L 15.26 1.14 C 15.491 1.14 15.68 1.329 15.68 1.56 L 15.68 2.68 C 15.68 2.911 15.491 3.1 15.26 3.1 Z M 0 0 M 15.26 8.7 L 0.42 8.7 C 0.189 8.7 0 8.511 0 8.28 L 0 7.16 C 0 6.929 0.189 6.74 0.42 6.74 L 15.26 6.74 C 15.491 6.74 15.68 6.929 15.68 7.16 L 15.68 8.28 C 15.68 8.511 15.491 8.7 15.26 8.7 Z M 0 0 M 15.26 14.3 L 0.42 14.3 C 0.189 14.3 0 14.111 0 13.88 L 0 12.76 C 0 12.529 0.189 12.34 0.42 12.34 L 15.26 12.34 C 15.491 12.34 15.68 12.529 15.68 12.76 L 15.68 13.88 C 15.68 14.111 15.491 14.3 15.26 14.3 Z" stroke-miterlimit="10" stroke-dasharray=""/></g></g><g transform="matrix(1,0,0,1,80,31.5)"><text fill="#383B3D" stroke="none" font-family="Open Sans" font-size="12pt" font-style="normal" font-weight="normal" text-decoration="normal" x="36.625" y="12" text-anchor="middle" dominant-baseline="central">AuthError</text></g></g><g id="_65D8C827-CE4A-4BDE-AAC6-B793E6A7DF84" transform="matrix(1,0,0,1,912,1097)"><g><path fill="#fff" stroke="#ccc" id="_65D8C827-CE4A-4BDE-AAC6-B793E6A7DF84?shapeType=BACKGROUND" paint-order="fill stroke markers" d=" M 0 0 L 46 0 L 46 46 L 0 46 Z" stroke-miterlimit="10" stroke-width="2" stroke-dasharray=""/></g><g transform="matrix(1,0,0,1,9,29)"><text fill="#929292" stroke="none" font-family="Open Sans" font-size="12pt" font-style="normal" font-weight="normal" text-decoration="normal" x="0" y="0" text-anchor="start" dominant-baseline="alphabetic">End</text></g></g><g id="startEdge"><g><path fill="none" stroke="#757575" paint-order="fill stroke markers" d=" M 631 100 L 631 110 L 631 174.66666666666669 L 631 217" stroke-miterlimit="10" stroke-width="2" stroke-dasharray=""/></g><g transform="matrix(1,0,0,1,631,100)"/><g transform="matrix(-1,1.2246467991473532e-16,-1.2246467991473532e-16,-1,635,229)"><path fill="#757575" stroke="#757575" paint-order="fill stroke markers" d=" M 8 15 L 0 15 L 4 3 Z" stroke-miterlimit="10" stroke-width="2" stroke-dasharray=""/></g><g/><g transform="matrix(1,0,0,1,641,164.5)"/></g><g id="_A8E217FE-17F4-47AF-B078-049EF72A46D8"><g><path fill="none" stroke="#757575" paint-order="fill stroke markers" d=" M 631 319 L 631 329 L 631 392.3333333333333 L 631 434" stroke-miterlimit="10" stroke-width="2" stroke-dasharray=""/></g><g transform="matrix(1,0,0,1,631,319)"/><g transform="matrix(-1,1.2246467991473532e-16,-1.2246467991473532e-16,-1,635,446)"><path fill="#757575" stroke="#757575" paint-order="fill stroke markers" d=" M 8 15 L 0 15 L 4 3 Z" stroke-miterlimit="10" stroke-width="2" stroke-dasharray=""/></g><g/><g transform="matrix(1,0,0,1,641,382.5)"/></g><g id="_849DFB1B-5E93-4B16-8A66-756BED9C33B7"><g><path fill="none" stroke="#12DE70" paint-order="fill stroke markers" d=" M 710.5348837209302 536 L 710.5348837209302 546 L 710.5348837209302 566.1033464566929 L 935 566.1033464566929 L 935 651" stroke-miterlimit="10" stroke-width="2" stroke-dasharray=""/></g><g transform="matrix(1,0,0,1,710.5348837209302,536)"/><g transform="matrix(-1,1.2246467991473532e-16,-1.2246467991473532e-16,-1,939,663)"><path fill="#12DE70" stroke="#12DE70" paint-order="fill stroke markers" d=" M 8 15 L 0 15 L 4 3 Z" stroke-miterlimit="10" stroke-width="2" stroke-dasharray=""/></g><g/><g transform="matrix(1,0,0,1,740.6568407198565,590.7965053184292)"/></g><g id="_70CF6262-8C1D-43B6-A61A-149077564B3C"><g><path fill="none" stroke="#757575" paint-order="fill stroke markers" d=" M 935 753 L 935 763 L 935 792.6875 L 1087 792.6875 L 1087 868" stroke-miterlimit="10" stroke-width="2" stroke-dasharray=""/></g><g transform="matrix(1,0,0,1,935,753)"/><g transform="matrix(-1,1.2246467991473532e-16,-1.2246467991473532e-16,-1,1091,880)"><path fill="#757575" stroke="#757575" paint-order="fill stroke markers" d=" M 8 15 L 0 15 L 4 3 Z" stroke-miterlimit="10" stroke-width="2" stroke-dasharray=""/></g><g/><g transform="matrix(1,0,0,1,941.4117703937357,808.8260700799385)"/></g><g id="_63EB693A-1D74-405B-AD3E-4E26FB374E79"><g><path fill="none" stroke="#757575" paint-order="fill stroke markers" d=" M 551.4651162790698 536 L 551.4651162790698 546 L 551.4651162790698 566.1033464566929 L 327 566.1033464566929 L 327 651" stroke-miterlimit="10" stroke-width="2" stroke-dasharray=""/></g><g transform="matrix(1,0,0,1,551.4651162790698,536)"/><g transform="matrix(-1,1.2246467991473532e-16,-1.2246467991473532e-16,-1,331,663)"><path fill="#757575" stroke="#757575" paint-order="fill stroke markers" d=" M 8 15 L 0 15 L 4 3 Z" stroke-miterlimit="10" stroke-width="2" stroke-dasharray=""/></g><g transform="matrix(1,0,0,1,392.93614090320676,557.1033464566929)"><path fill="gray" stroke="gray" paint-order="fill stroke markers" d=" M 3 0 L 89.59283447265625 0 L 89.59283447265625 0 A 3 3 0 0 1 92.59283447265625 3 L 92.59283447265625 15 L 92.59283447265625 15 A 3 3 0 0 1 89.59283447265625 18 L 3 18 L 3 18 A 3 3 0 0 1 0 15 L 0 3 L 0 3.0000000000000004 A 3 3 0 0 1 2.9999999999999996 0 Z" stroke-miterlimit="10" stroke-dasharray=""/></g><g transform="matrix(1,0,0,1,395.93614090320676,560.1033464566929)"><text fill="white" stroke="none" font-family="Verdana" font-size="10pt" font-style="normal" font-weight="normal" text-decoration="normal" x="0" y="9.600000000000001" text-anchor="start" dominant-baseline="alphabetic">.request.ty...                        </text><path fill="none" stroke="none"/><text fill="none" stroke="white" font-family="Verdana" font-size="10pt" font-style="normal" font-weight="normal" text-decoration="normal" x="0" y="9.600000000000001" text-anchor="start" dominant-baseline="alphabetic" stroke-miterlimit="10" stroke-dasharray="">.request.ty...                        </text></g></g><g id="_BF2CB06A-3EDF-4831-B2E4-F8E9475F1B95"><g><path fill="none" stroke="#757575" paint-order="fill stroke markers" d=" M 287.2325581395349 753 L 287.2325581395349 763 L 287.2325581395349 803.2066929133858 L 175 803.2066929133858 L 175 868" stroke-miterlimit="10" stroke-width="2" stroke-dasharray=""/></g><g transform="matrix(1,0,0,1,287.2325581395349,753)"/><g transform="matrix(-1,1.2246467991473532e-16,-1.2246467991473532e-16,-1,179,880)"><path fill="#757575" stroke="#757575" paint-order="fill stroke markers" d=" M 8 15 L 0 15 L 4 3 Z" stroke-miterlimit="10" stroke-width="2" stroke-dasharray=""/></g><g/><g transform="matrix(1,0,0,1,182.49329085481142,809.8780220352829)"/></g><g id="_F7C180DD-7026-421E-99A6-F4535C60FE9D"><g><path fill="none" stroke="#757575" paint-order="fill stroke markers" d=" M 175 970 L 175 980 L 175 1009.6875 L 327 1009.6875 L 327 1085" stroke-miterlimit="10" stroke-width="2" stroke-dasharray=""/></g><g transform="matrix(1,0,0,1,175,970)"/><g transform="matrix(-1,1.2246467991473532e-16,-1.2246467991473532e-16,-1,331,1097)"><path fill="#757575" stroke="#757575" paint-order="fill stroke markers" d=" M 8 15 L 0 15 L 4 3 Z" stroke-miterlimit="10" stroke-width="2" stroke-dasharray=""/></g><g/><g transform="matrix(1,0,0,1,181.41177039373568,1025.8260700799385)"/></g><g id="_130F2BC2-4A09-494F-8B84-2A58E51FCCD1"><g><path fill="none" stroke="#c9190b" paint-order="fill stroke markers" d=" M 446.30232558139534 753 L 446.30232558139534 763 L 446.30232558139534 776.4022309711286 L 783 776.4022309711286 L 783 868" stroke-miterlimit="10" stroke-width="2" stroke-dasharray="8,8"/></g><g transform="matrix(1,0,0,1,446.30232558139534,753)"/><g transform="matrix(-1,1.2246467991473532e-16,-1.2246467991473532e-16,-1,787,880)"><path fill="#c9190b" stroke="#c9190b" paint-order="fill stroke markers" d=" M 8 15 L 0 15 L 4 3 Z" stroke-miterlimit="10" stroke-width="2" stroke-dasharray=""/></g><g transform="matrix(1,0,0,1,579.7939316505609,767.4022309711286)"><path fill="red" stroke="red" paint-order="fill stroke markers" d=" M 3 0 L 66.71446228027344 0 L 66.71446228027344 0 A 3 3 0 0 1 69.71446228027344 3 L 69.71446228027344 15 L 69.71446228027344 15 A 3 3 0 0 1 66.71446228027344 18 L 3 18 L 3 18 A 3 3 0 0 1 0 15 L 0 3 L 0 3.0000000000000004 A 3 3 0 0 1 2.9999999999999996 0 Z" stroke-miterlimit="10" stroke-dasharray=""/></g><g transform="matrix(1,0,0,1,582.7939316505609,770.4022309711286)"><text fill="white" stroke="none" font-family="Verdana" font-size="10pt" font-style="normal" font-weight="normal" text-decoration="normal" x="0" y="9.600000000000001" text-anchor="start" dominant-baseline="alphabetic">authError                             </text><path fill="none" stroke="none"/><text fill="none" stroke="white" font-family="Verdana" font-size="10pt" font-style="normal" font-weight="normal" text-decoration="normal" x="0" y="9.600000000000001" text-anchor="start" dominant-baseline="alphabetic" stroke-miterlimit="10" stroke-dasharray="">authError                             </text></g></g><g id="_3DC0888B-7D98-41FE-9B5C-E68613BC1E5A"><g><path fill="none" stroke="#757575" paint-order="fill stroke markers" d=" M 783 970 L 783 980 L 783 1009.6875 L 935 1009.6875 L 935 1085" stroke-miterlimit="10" stroke-width="2" stroke-dasharray=""/></g><g transform="matrix(1,0,0,1,783,970)"/><g transform="matrix(-1,1.2246467991473532e-16,-1.2246467991473532e-16,-1,939,1097)"><path fill="#757575" stroke="#757575" paint-order="fill stroke markers" d=" M 8 15 L 0 15 L 4 3 Z" stroke-miterlimit="10" stroke-width="2" stroke-dasharray=""/></g><g/><g transform="matrix(1,0,0,1,789.4117703937357,1025.8260700799385)"/></g><g id="_DB21F361-D54D-46F1-A3AC-6E482C7874DA"><g><path fill="none" stroke="#757575" paint-order="fill stroke markers" d=" M 631 536 L 631 546 L 631 609.3333333333334 L 631 651" stroke-miterlimit="10" stroke-width="2" stroke-dasharray=""/></g><g transform="matrix(1,0,0,1,631,536)"/><g transform="matrix(-1,1.2246467991473532e-16,-1.2246467991473532e-16,-1,635,663)"><path fill="#757575" stroke="#757575" paint-order="fill stroke markers" d=" M 8 15 L 0 15 L 4 3 Z" stroke-miterlimit="10" stroke-width="2" stroke-dasharray=""/></g><g transform="matrix(1,0,0,1,584.7035827636719,568.6666666666667)"><path fill="gray" stroke="gray" paint-order="fill stroke markers" d=" M 3 0 L 89.59283447265625 0 L 89.59283447265625 0 A 3 3 0 0 1 92.59283447265625 3 L 92.59283447265625 15 L 92.59283447265625 15 A 3 3 0 0 1 89.59283447265625 18 L 3 18 L 3 18 A 3 3 0 0 1 0 15 L 0 3 L 0 3.0000000000000004 A 3 3 0 0 1 2.9999999999999996 0 Z" stroke-miterlimit="10" stroke-dasharray=""/></g><g transform="matrix(1,0,0,1,587.7035827636719,571.6666666666667)"><text fill="white" stroke="none" font-family="Verdana" font-size="10pt" font-style="normal" font-weight="normal" text-decoration="normal" x="0" y="9.600000000000001" text-anchor="start" dominant-baseline="alphabetic">.request.ty...         </text><path fill="none" stroke="none"/><text fill="none" stroke="white" font-family="Verdana" font-size="10pt" font-style="normal" font-weight="normal" text-decoration="normal" x="0" y="9.600000000000001" text-anchor="start" dominant-baseline="alphabetic" stroke-miterlimit="10" stroke-dasharray="">.request.ty...         </text></g></g><g id="_9A9A9EC1-1A56-4201-AED4-2C6022354382"><g><path fill="none" stroke="#757575" paint-order="fill stroke markers" d=" M 631 753 L 631 763 L 631 792.6875 L 479 792.6875 L 479 868" stroke-miterlimit="10" stroke-width="2" stroke-dasharray=""/></g><g transform="matrix(1,0,0,1,631,753)"/><g transform="matrix(-1,1.2246467991473532e-16,-1.2246467991473532e-16,-1,483,880)"><path fill="#757575" stroke="#757575" paint-order="fill stroke markers" d=" M 8 15 L 0 15 L 4 3 Z" stroke-miterlimit="10" stroke-width="2" stroke-dasharray=""/></g><g/><g transform="matrix(1,0,0,1,485.4117703937356,808.8260700799385)"/></g><g id="_A9659377-85CA-471D-B048-EDBD29BD8146"><g><path fill="none" stroke="#757575" paint-order="fill stroke markers" d=" M 479 970 L 479 980 L 479 1009.6875 L 631 1009.6875 L 631 1085" stroke-miterlimit="10" stroke-width="2" stroke-dasharray=""/></g><g transform="matrix(1,0,0,1,479,970)"/><g transform="matrix(-1,1.2246467991473532e-16,-1.2246467991473532e-16,-1,635,1097)"><path fill="#757575" stroke="#757575" paint-order="fill stroke markers" d=" M 8 15 L 0 15 L 4 3 Z" stroke-miterlimit="10" stroke-width="2" stroke-dasharray=""/></g><g/><g transform="matrix(1,0,0,1,485.41177039373565,1025.8260700799385)"/></g></g></g></svg>